<?xml version="1.0" encoding="UTF-8" standalone="no"?>
            <svg
                xmlns:dc="http://purl.org/dc/elements/1.1/"
                xmlns:cc="http://creativecommons.org/ns#"
                xmlns:rdf="http://www.w3.org/1999/02/22-rdf-syntax-ns#"
                xmlns:svg="http://www.w3.org/2000/svg"
                xmlns="http://www.w3.org/2000/svg"
                width="468"
                height="60"
                viewBox="0 0 468 60"
                id="svg8"
                version="1.1"
                <title
                    id="title4375">PopsPassengerPlane
                </title>
                <defs
                    id="defs2">
                    <linearGradient
                    x1="0"
                    y1="0"
                    x2="1"
                    y2="0"
                    gradientUnits="userSpaceOnUse"
                    gradientTransform="matrix(0,800,800,0,399.99951,0)"
                    spreadMethod="pad"
                    id="linearGradient3727">
                    <stop
                        style="stop-opacity:1;stop-color:#ffffff"
                        offset="0"
                        id="stop3721" />
                    <stop
                        style="stop-opacity:1;stop-color:#f7f1c1"
                        offset="0.292683"
                        id="stop3723" />
                    <stop
                        style="stop-opacity:1;stop-color:#006a8e"
                        offset="1"
                        id="stop3725" />
                    </linearGradient>
                    <clipPath
                    clipPathUnits="userSpaceOnUse"
                    id="clipPath3737">
                    <path
                        d="M 0,800 H 800 V 0 H 0 Z"
                        id="path3735" />
                    </clipPath>
                    <clipPath
                    clipPathUnits="userSpaceOnUse"
                    id="clipPath3745">
                    <path
                        d="M 0,536.742 H 800 V 320.729 H 0 Z"
                        id="path3743" />
                    </clipPath>
                    <clipPath
                    clipPathUnits="userSpaceOnUse"
                    id="clipPath3761">
                    <path
                        d="M 0,421.828 H 800 V 214.124 H 0 Z"
                        id="path3759" />
                    </clipPath>
                    <clipPath
                    clipPathUnits="userSpaceOnUse"
                    id="clipPath3777">
                    <path
                        d="M 0,315.223 H 800 V 103.315 H 0 Z"
                        id="path3775" />
                    </clipPath>
                    <clipPath
                    clipPathUnits="userSpaceOnUse"
                    id="clipPath3797">
                    <path
                        d="M 0,800 H 800 V 0 H 0 Z"
                        id="path3795" />
                    </clipPath>
                    <clipPath
                    clipPathUnits="userSpaceOnUse"
                    id="clipPath3909">
                    <path
                        d="M 64.1567,775.982 H 238.916 V 681.396 H 64.1567 Z"
                        id="path3907" />
                    </clipPath>
                    <clipPath
                    clipPathUnits="userSpaceOnUse"
                    id="clipPath3925">
                    <path
                        d="M 447.061,757.117 H 562.695 V 694.531 H 447.061 Z"
                        id="path3923" />
                    </clipPath>
                    <clipPath
                    clipPathUnits="userSpaceOnUse"
                    id="clipPath3941">
                    <path
                        d="M 603.582,656.824 H 741.591 V 579.748 H 603.582 Z"
                        id="path3939" />
                    </clipPath>
                    <clipPath
                    clipPathUnits="userSpaceOnUse"
                    id="clipPath3957">
                    <path
                        d="m 254.472,643.689 h 109.36 v -61.076 h -109.36 z"
                        id="path3955" />
                    </clipPath>
                </defs>
                <metadata
                    id="metadata5">
                    <rdf:RDF>
                    <cc:Work
                        rdf:about="">
                        <dc:format>image/svg+xml</dc:format>
                        <dc:type
                        rdf:resource="http://purl.org/dc/dcmitype/StillImage" />
                        <dc:title>PopsPassengerPlane</dc:title>
                    </cc:Work>
                    </rdf:RDF>
                </metadata>
                <g
                    id="layer1">
                    <g
                    id="g3707"
                    transform="matrix(0.35277777,0,0,-0.35277777,-61.358129,294.10218)">
                    <g
                        transform="translate(-15.000001,-5.357143)"
                        id="g3709">
                        <g
                        id="g3711">
                        <g
                            id="g3717">
                            <g
                            id="g3719">
                            <path
                                d="M 0,0 H 800 V 800 H 0 Z"
                                style="fill:url(#linearGradient3727);stroke:none"
                                id="path3729" />
                            </g>
                        </g>
                        </g>
                    </g>
                    <g
                        transform="matrix(1,0,0,0.76445174,0,63.214358)"
                        id="g3731">
                        <g
                        id="g3733"
                        clip-path="url(#clipPath3737)">
                        <g
                            id="g3739">
                            <g
                            id="g3741" />
                            <g
                            id="g3753">
                            <g
                                clip-path="url(#clipPath3745)"
                                id="g3751"
                                style="opacity:0.19999701">
                                <g
                                transform="translate(761,448.9141)"
                                id="g3749">
                                <path
                                    d="m 0,0 c -0.2,0 -0.396,-0.014 -0.597,-0.015 -1.944,7.568 -6.558,14.061 -12.771,18.433 2.401,4.075 3.784,8.823 3.784,13.895 0,15.143 -12.276,27.419 -27.419,27.419 -11.293,0 -20.987,-6.829 -25.189,-16.581 -0.738,0.049 -1.48,0.082 -2.23,0.082 -7.521,0 -14.463,-2.486 -20.048,-6.68 -4.997,16.651 -20.434,28.788 -38.714,28.788 -4.051,0 -7.961,-0.604 -11.65,-1.712 -0.45,12.537 -10.75,22.564 -23.397,22.564 -9.08,0 -16.946,-5.17 -20.832,-12.723 -6.348,8.7 -16.618,14.358 -28.212,14.358 -14.327,0 -26.63,-8.633 -32.01,-20.977 -4.765,9.42 -14.527,15.884 -25.807,15.884 -12.172,0 -22.579,-7.526 -26.842,-18.174 -5.641,2.155 -11.758,3.346 -18.158,3.346 -19.467,0 -36.374,-10.928 -44.938,-26.982 -4.937,2.089 -10.365,3.244 -16.062,3.244 -12.685,0 -24.027,-5.731 -31.594,-14.738 -5.957,2.445 -12.476,3.802 -19.314,3.802 -2.287,0 -4.534,-0.166 -6.741,-0.458 -6.102,17.465 -22.711,29.999 -42.259,29.999 -3.767,0 -7.423,-0.47 -10.918,-1.347 -3.462,9.388 -12.488,16.084 -23.078,16.084 -13.581,0 -24.591,-11.01 -24.591,-24.591 0,-3.115 0.586,-6.093 1.643,-8.836 -11.194,-1.603 -20.952,-7.654 -27.413,-16.314 -8.683,2.93 -17.972,4.543 -27.643,4.543 -12.155,0 -23.717,-2.521 -34.209,-7.051 -4.286,11.06 -15.02,18.907 -27.594,18.907 -15.529,0 -28.255,-11.964 -29.485,-27.176 -14.582,-0.119 -27.011,-9.237 -32.018,-22.075 -5.934,1.73 -12.202,2.676 -18.694,2.676 -13.265,0 -25.614,-3.89 -36,-10.567 v -112.215 -2.699 c 10.386,6.677 22.735,10.567 36,10.567 6.492,0 12.76,-0.946 18.694,-2.676 5.007,12.838 17.436,21.956 32.018,22.075 1.23,15.212 13.956,27.176 29.485,27.176 12.574,0 23.308,-7.847 27.594,-18.907 10.492,4.53 22.054,7.051 34.209,7.051 9.671,0 18.96,-1.613 27.643,-4.544 6.461,8.661 16.219,14.712 27.413,16.315 -1.057,2.743 -1.643,5.721 -1.643,8.836 0,13.581 11.01,24.591 24.591,24.591 10.59,0 19.616,-6.696 23.078,-16.084 3.495,0.877 7.151,1.347 10.918,1.347 19.548,0 36.157,-12.534 42.259,-29.999 2.207,0.292 4.454,0.458 6.741,0.458 6.838,0 13.357,-1.357 19.314,-3.802 7.567,9.007 18.909,14.738 31.594,14.738 5.697,0 11.125,-1.155 16.062,-3.244 8.564,16.053 25.471,26.982 44.938,26.982 6.4,0 12.517,-1.191 18.158,-3.347 4.263,10.649 14.67,18.175 26.842,18.175 11.28,0 21.042,-6.464 25.807,-15.884 5.38,12.344 17.683,20.977 32.01,20.977 11.594,0 21.864,-5.658 28.212,-14.358 3.886,7.553 11.752,12.723 20.832,12.723 12.647,0 22.947,-10.027 23.397,-22.564 3.689,1.108 7.599,1.712 11.65,1.712 18.28,0 33.717,-12.137 38.714,-28.788 5.585,4.194 12.527,6.68 20.048,6.68 0.75,0 1.492,-0.033 2.23,-0.082 4.202,9.752 13.896,16.581 25.189,16.581 15.143,0 27.419,-12.276 27.419,-27.419 0,-5.072 -1.383,-9.82 -3.784,-13.895 6.213,-4.372 10.827,-10.865 12.771,-18.433 0.201,0.001 0.397,0.015 0.597,0.015 14.683,0 28.201,-4.956 39,-13.271 v 13.456 101.458 C 28.201,-4.956 14.683,0 0,0"
                                    style="fill:#ffffff;fill-opacity:1;fill-rule:nonzero;stroke:none"
                                    id="path3747" />
                                </g>
                            </g>
                            </g>
                        </g>
                        <g
                            id="g3755">
                            <g
                            id="g3757" />
                            <g
                            id="g3769">
                            <g
                                clip-path="url(#clipPath3761)"
                                id="g3767"
                                style="opacity:0.39999402">
                                <g
                                transform="translate(760.4033,333.9854)"
                                id="g3765">
                                <path
                                    d="m 0,0 c -1.944,7.567 -6.559,14.061 -12.771,18.433 2.401,4.075 3.784,8.823 3.784,13.895 0,15.143 -12.277,27.419 -27.419,27.419 -11.293,0 -20.988,-6.829 -25.19,-16.581 -0.737,0.049 -1.479,0.082 -2.229,0.082 -7.522,0 -14.463,-2.486 -20.048,-6.681 -4.997,16.652 -20.435,28.788 -38.714,28.788 -4.052,0 -7.961,-0.603 -11.65,-1.711 -0.45,12.537 -10.75,22.564 -23.398,22.564 -9.079,0 -16.945,-5.17 -20.832,-12.724 -6.347,8.701 -16.617,14.359 -28.212,14.359 -14.326,0 -26.63,-8.633 -32.009,-20.978 -4.765,9.421 -14.528,15.885 -25.807,15.885 -12.172,0 -22.579,-7.526 -26.842,-18.175 -5.642,2.155 -11.759,3.347 -18.158,3.347 -19.467,0 -36.374,-10.929 -44.939,-26.983 -4.936,2.089 -10.364,3.245 -16.062,3.245 -12.684,0 -24.026,-5.731 -31.593,-14.739 -5.957,2.446 -12.476,3.803 -19.314,3.803 -2.287,0 -4.534,-0.166 -6.742,-0.458 -6.101,17.465 -22.71,29.999 -42.258,29.999 -3.767,0 -7.423,-0.471 -10.919,-1.348 -3.462,9.389 -12.487,16.084 -23.077,16.084 -13.581,0 -24.591,-11.009 -24.591,-24.59 0,-3.116 0.585,-6.093 1.642,-8.836 -11.194,-1.603 -20.951,-7.655 -27.413,-16.315 -8.682,2.931 -17.971,4.544 -27.642,4.544 -12.155,0 -23.718,-2.521 -34.21,-7.052 -4.285,11.061 -15.02,18.908 -27.594,18.908 -15.528,0 -28.254,-11.964 -29.484,-27.176 -14.582,-0.119 -27.011,-9.237 -32.018,-22.075 -5.934,1.73 -12.202,2.675 -18.694,2.675 -13.265,0 -25.615,-3.889 -36,-10.566 v -106.605 c 10.385,6.676 22.735,10.566 36,10.566 6.492,0 12.76,-0.945 18.694,-2.676 5.007,12.838 17.436,21.956 32.018,22.075 1.23,15.212 13.956,27.176 29.484,27.176 12.574,0 23.309,-7.847 27.594,-18.907 10.492,4.53 22.055,7.052 34.21,7.052 9.671,0 18.96,-1.614 27.642,-4.544 6.462,8.66 16.219,14.712 27.413,16.314 -1.057,2.743 -1.642,5.721 -1.642,8.836 0,13.581 11.01,24.591 24.591,24.591 10.59,0 19.615,-6.695 23.077,-16.084 3.496,0.877 7.152,1.348 10.919,1.348 19.548,0 36.157,-12.535 42.258,-29.999 2.208,0.292 4.455,0.458 6.742,0.458 6.838,0 13.357,-1.358 19.314,-3.803 7.567,9.008 18.909,14.738 31.593,14.738 5.698,0 11.126,-1.155 16.062,-3.244 8.565,16.054 25.472,26.982 44.939,26.982 6.399,0 12.516,-1.191 18.158,-3.346 4.263,10.648 14.67,18.175 26.842,18.175 11.279,0 21.042,-6.464 25.807,-15.885 5.379,12.344 17.683,20.977 32.009,20.977 11.595,0 21.865,-5.658 28.212,-14.358 3.887,7.554 11.753,12.724 20.832,12.724 12.648,0 22.948,-10.028 23.398,-22.565 3.689,1.108 7.598,1.712 11.65,1.712 18.279,0 33.717,-12.137 38.714,-28.788 5.585,4.194 12.526,6.681 20.048,6.681 0.75,0 1.492,-0.034 2.229,-0.082 4.202,9.751 13.897,16.581 25.19,16.581 15.142,0 27.419,-12.277 27.419,-27.419 0,-5.073 -1.383,-9.821 -3.784,-13.896 6.212,-4.372 10.827,-10.865 12.771,-18.432 0.2,0.001 0.396,0.014 0.597,0.014 14.682,0 28.201,-4.956 39,-13.27 v 5.146 101.459 C 28.798,-4.941 15.279,0.015 0.597,0.015 0.396,0.015 0.2,0.001 0,0"
                                    style="fill:#ffffff;fill-opacity:1;fill-rule:nonzero;stroke:none"
                                    id="path3763" />
                                </g>
                            </g>
                            </g>
                        </g>
                        <g
                            id="g3771">
                            <g
                            id="g3773" />
                            <g
                            id="g3785">
                            <g
                                clip-path="url(#clipPath3777)"
                                id="g3783"
                                style="opacity:0.69999701">
                                <g
                                transform="translate(760.4033,227.3799)"
                                id="g3781">
                                <path
                                    d="m 0,0 c -1.944,7.567 -6.559,14.061 -12.771,18.433 2.401,4.075 3.784,8.823 3.784,13.895 0,15.143 -12.277,27.419 -27.419,27.419 -11.293,0 -20.988,-6.829 -25.19,-16.581 -0.737,0.049 -1.479,0.082 -2.229,0.082 -7.522,0 -14.463,-2.486 -20.048,-6.681 -4.997,16.652 -20.435,28.788 -38.714,28.788 -4.052,0 -7.961,-0.603 -11.65,-1.711 -0.45,12.537 -10.75,22.564 -23.398,22.564 -9.079,0 -16.945,-5.17 -20.832,-12.724 -6.347,8.701 -16.617,14.359 -28.212,14.359 -14.326,0 -26.63,-8.633 -32.009,-20.978 -4.765,9.421 -14.528,15.885 -25.807,15.885 -12.172,0 -22.579,-7.526 -26.842,-18.175 -5.642,2.155 -11.759,3.347 -18.158,3.347 -19.467,0 -36.374,-10.929 -44.939,-26.983 -4.936,2.089 -10.364,3.245 -16.062,3.245 -12.684,0 -24.026,-5.731 -31.593,-14.739 -5.957,2.446 -12.476,3.803 -19.314,3.803 -2.287,0 -4.534,-0.166 -6.742,-0.458 -6.101,17.465 -22.71,29.999 -42.258,29.999 -3.767,0 -7.423,-0.471 -10.919,-1.348 -3.462,9.389 -12.487,16.084 -23.077,16.084 -13.581,0 -24.591,-11.009 -24.591,-24.59 0,-3.116 0.585,-6.093 1.642,-8.836 -11.194,-1.603 -20.951,-7.655 -27.413,-16.315 -8.682,2.931 -17.971,4.544 -27.642,4.544 -12.155,0 -23.718,-2.521 -34.21,-7.052 -4.285,11.061 -15.02,18.908 -27.594,18.908 -15.528,0 -28.254,-11.964 -29.484,-27.176 -14.582,-0.119 -27.011,-9.237 -32.018,-22.075 -5.934,1.73 -12.202,2.675 -18.694,2.675 -13.265,0 -25.615,-3.889 -36,-10.566 v -5.609 -105.2 c 10.385,6.677 22.735,10.567 36,10.567 6.492,0 12.76,-0.946 18.694,-2.676 5.007,12.838 17.436,21.956 32.018,22.075 1.23,15.212 13.956,27.176 29.484,27.176 12.574,0 23.309,-7.847 27.594,-18.907 10.492,4.53 22.055,7.052 34.21,7.052 9.671,0 18.96,-1.614 27.642,-4.544 6.462,8.66 16.219,14.711 27.413,16.314 -1.057,2.743 -1.642,5.721 -1.642,8.836 0,13.581 11.01,24.591 24.591,24.591 10.59,0 19.615,-6.696 23.077,-16.084 3.496,0.877 7.152,1.347 10.919,1.347 19.548,0 36.157,-12.534 42.258,-29.999 2.208,0.292 4.455,0.458 6.742,0.458 6.838,0 13.357,-1.357 19.314,-3.802 7.567,9.008 18.909,14.738 31.593,14.738 5.698,0 11.126,-1.155 16.062,-3.244 8.565,16.054 25.472,26.982 44.939,26.982 6.399,0 12.516,-1.191 18.158,-3.346 4.263,10.648 14.67,18.174 26.842,18.174 11.279,0 21.042,-6.463 25.807,-15.884 5.379,12.344 17.683,20.977 32.009,20.977 11.595,0 21.865,-5.658 28.212,-14.358 3.887,7.553 11.753,12.723 20.832,12.723 12.648,0 22.948,-10.027 23.398,-22.564 3.689,1.108 7.598,1.712 11.65,1.712 18.279,0 33.717,-12.137 38.714,-28.788 5.585,4.194 12.526,6.68 20.048,6.68 0.75,0 1.492,-0.033 2.229,-0.082 4.202,9.752 13.897,16.581 25.19,16.581 15.142,0 27.419,-12.276 27.419,-27.418 0,-5.073 -1.383,-9.821 -3.784,-13.896 6.212,-4.372 10.827,-10.865 12.771,-18.433 0.2,10e-4 0.396,0.015 0.597,0.015 14.682,0 28.201,-4.956 39,-13.27 V -13.256 C 28.798,-4.941 15.279,0.015 0.597,0.015 0.396,0.015 0.2,0.001 0,0"
                                    style="fill:#ffffff;fill-opacity:1;fill-rule:nonzero;stroke:none"
                                    id="path3779" />
                                </g>
                            </g>
                            </g>
                        </g>
                        <g
                            id="g3787"
                            transform="translate(760.4033,116.5713)">
                            <path
                            d="m 0,0 c -1.944,7.567 -6.559,14.061 -12.771,18.433 2.401,4.075 3.784,8.823 3.784,13.895 0,15.143 -12.277,27.419 -27.419,27.419 -11.293,0 -20.988,-6.829 -25.19,-16.581 -0.737,0.049 -1.479,0.082 -2.229,0.082 -7.522,0 -14.463,-2.486 -20.048,-6.681 -4.997,16.652 -20.435,28.788 -38.714,28.788 -4.052,0 -7.961,-0.603 -11.65,-1.711 -0.45,12.537 -10.75,22.564 -23.398,22.564 -9.079,0 -16.945,-5.17 -20.832,-12.724 -6.347,8.701 -16.617,14.359 -28.212,14.359 -14.326,0 -26.63,-8.633 -32.009,-20.978 -4.765,9.421 -14.528,15.885 -25.807,15.885 -12.172,0 -22.579,-7.526 -26.842,-18.175 -5.642,2.155 -11.759,3.347 -18.158,3.347 -19.467,0 -36.374,-10.929 -44.939,-26.983 -4.936,2.089 -10.364,3.245 -16.062,3.245 -12.684,0 -24.026,-5.731 -31.593,-14.739 -5.957,2.446 -12.476,3.803 -19.314,3.803 -2.287,0 -4.534,-0.166 -6.742,-0.458 -6.101,17.465 -22.71,29.999 -42.258,29.999 -3.767,0 -7.423,-0.471 -10.919,-1.348 -3.462,9.389 -12.487,16.084 -23.077,16.084 -13.581,0 -24.591,-11.009 -24.591,-24.59 0,-3.116 0.585,-6.093 1.642,-8.836 -11.194,-1.603 -20.951,-7.655 -27.413,-16.315 -8.682,2.931 -17.971,4.544 -27.642,4.544 -12.155,0 -23.718,-2.521 -34.21,-7.052 -4.285,11.061 -15.02,18.908 -27.594,18.908 -15.528,0 -28.254,-11.964 -29.484,-27.176 -14.582,-0.119 -27.011,-9.237 -32.018,-22.075 -5.934,1.73 -12.202,2.675 -18.694,2.675 -13.265,0 -25.615,-3.889 -36,-10.566 v -103.613 h 800 V -13.256 C 28.798,-4.941 15.279,0.015 0.597,0.015 0.396,0.015 0.2,0.001 0,0"
                            style="fill:#ffffff;fill-opacity:1;fill-rule:nonzero;stroke:none"
                            id="path3789" />
                        </g>
                        </g>
                    </g>
                    <g
                        clip-path="url(#clipPath3797)"
                        id="g3793"
                        transform="translate(-11.8015,-15.125728)">
                        <g
                        transform="translate(328.7129,21.0996)"
                        id="g3807" />
                        <g
                        transform="translate(332.1309,25.1523)"
                        id="g3811" />
                        <g
                        transform="translate(344.3984,25.1787)"
                        id="g3819" />
                        <g
                        transform="translate(352.6465,23.0361)"
                        id="g3823" />
                        <g
                        transform="translate(415.9238,26.041)"
                        id="g3839" />
                        <g
                        transform="translate(401.3437,30.9707)"
                        id="g3883" />
                        <g
                        transform="translate(407.0488,24.6348)"
                        id="g3891" />
                        <g
                        id="g3903">
                        <g
                            id="g3905" />
                        <g
                            id="g3917">
                            <g
                            style="opacity:0.39999402"
                            id="g3915"
                            clip-path="url(#clipPath3909)">
                            <g
                                id="g3913"
                                transform="translate(208.8818,745.8716)">
                                <path
                                id="path3911"
                                style="fill:#ffffff;fill-opacity:1;fill-rule:nonzero;stroke:none"
                                d="m 0,0 c -3.315,13.552 -15.533,23.61 -30.106,23.61 -5.79,0 -11.206,-1.591 -15.843,-4.354 -4.06,6.515 -11.286,10.854 -19.529,10.854 -11.834,0 -21.576,-8.938 -22.854,-20.431 -10.243,-1.675 -19.008,-7.732 -24.314,-16.186 -2.137,0.585 -4.384,0.903 -6.707,0.903 -14.013,0 -25.372,-11.36 -25.372,-25.372 0,-14.011 11.359,-25.372 25.372,-25.372 5.055,0 9.761,1.485 13.717,4.033 6.206,-5.315 14.261,-8.533 23.073,-8.533 6.761,0 13.08,1.892 18.459,5.172 5.585,-5.442 13.211,-8.8 21.626,-8.8 8.674,0 16.511,3.567 22.138,9.308 5.307,-4.256 12.041,-6.808 19.374,-6.808 17.121,0 31,13.88 31,31 C 30.034,-14.18 16.673,-0.512 0,0" />
                            </g>
                            </g>
                        </g>
                        </g>
                        <g
                        id="g3919">
                        <g
                            id="g3921" />
                        <g
                            id="g3933">
                            <g
                            style="opacity:0.39999402"
                            id="g3931"
                            clip-path="url(#clipPath3925)">
                            <g
                                id="g3929"
                                transform="translate(466.9336,737.1934)">
                                <path
                                id="path3927"
                                style="fill:#ffffff;fill-opacity:1;fill-rule:nonzero;stroke:none"
                                d="m 0,0 c 2.192,8.967 10.277,15.623 19.921,15.623 3.831,0 7.415,-1.054 10.482,-2.882 2.687,4.311 7.468,7.182 12.923,7.182 7.83,0 14.276,-5.914 15.121,-13.519 6.779,-1.108 12.577,-5.116 16.088,-10.71 1.414,0.388 2.902,0.598 4.439,0.598 9.272,0 16.788,-7.517 16.788,-16.788 0,-9.272 -7.516,-16.789 -16.788,-16.789 -3.345,0 -6.458,0.983 -9.077,2.669 -4.106,-3.517 -9.437,-5.646 -15.266,-5.646 -4.475,0 -8.656,1.252 -12.215,3.422 -3.695,-3.601 -8.741,-5.823 -14.309,-5.823 -5.74,0 -10.925,2.36 -14.649,6.159 -3.511,-2.816 -7.967,-4.504 -12.818,-4.504 -11.329,0 -20.513,9.184 -20.513,20.512 0,11.113 8.841,20.157 19.873,20.496" />
                            </g>
                            </g>
                        </g>
                        </g>
                        <g
                        id="g3935">
                        <g
                            id="g3937" />
                        <g
                            id="g3949">
                            <g
                            style="opacity:0.39999402"
                            id="g3947"
                            clip-path="url(#clipPath3941)">
                            <g
                                id="g3945"
                                transform="translate(731.8633,624.5259)">
                                <path
                                id="path3943"
                                style="fill:#ffffff;fill-opacity:1;fill-rule:nonzero;stroke:none"
                                d="m 0,0 c 0.254,1.369 0.394,2.779 0.394,4.222 0,12.702 -10.297,23 -23,23 -5.905,0 -11.288,-2.227 -15.361,-5.885 -3.273,6.496 -9.986,10.961 -17.757,10.961 -5.694,0 -10.815,-2.406 -14.442,-6.24 -2.908,0.757 -5.959,1.164 -9.105,1.164 -11.962,0 -22.555,-5.839 -29.102,-14.817 -0.006,0 -0.012,0.001 -0.018,0.001 -10.984,0 -19.89,-8.905 -19.89,-19.891 0,-10.392 7.97,-18.911 18.131,-19.803 6.294,-10.478 17.765,-17.49 30.879,-17.49 7.023,0 13.572,2.018 19.112,5.497 4.81,-3.282 10.624,-5.204 16.887,-5.204 6.781,0 13.035,2.252 18.059,6.046 3.481,-2.119 7.567,-3.339 11.941,-3.339 12.703,0 23,10.297 23,23 C 9.728,-11.021 5.884,-4.166 0,0" />
                            </g>
                            </g>
                        </g>
                        </g>
                        <g
                        id="g3951">
                        <g
                            id="g3953" />
                        <g
                            id="g3965">
                            <g
                            style="opacity:0.39999402"
                            id="g3963"
                            clip-path="url(#clipPath3957)">
                            <g
                                id="g3961"
                                transform="translate(262.1802,618.0957)">
                                <path
                                id="path3959"
                                style="fill:#ffffff;fill-opacity:1;fill-rule:nonzero;stroke:none"
                                d="m 0,0 c -0.201,1.085 -0.312,2.202 -0.312,3.345 0,10.066 8.16,18.226 18.226,18.226 4.678,0 8.944,-1.765 12.171,-4.663 2.595,5.147 7.914,8.685 14.071,8.685 4.512,0 8.571,-1.906 11.445,-4.945 2.304,0.601 4.722,0.923 7.215,0.923 9.479,0 17.872,-4.627 23.06,-11.741 0.005,0 0.01,10e-4 0.014,10e-4 8.705,0 15.762,-7.057 15.762,-15.763 0,-8.235 -6.316,-14.984 -14.367,-15.692 -4.988,-8.302 -14.078,-13.859 -24.469,-13.859 -5.566,0 -10.755,1.6 -15.145,4.356 -3.812,-2.601 -8.419,-4.124 -13.381,-4.124 -5.373,0 -10.33,1.785 -14.311,4.792 -2.758,-1.679 -5.996,-2.646 -9.461,-2.646 -10.067,0 -18.226,8.159 -18.226,18.225 0,6.147 3.046,11.579 7.708,14.88" />
                            </g>
                            </g>
                        </g>
                        </g>
                        <g
                        transform="translate(692.1748,225.7744)"
                        id="g3967">
                        <path
                            id="path3969"
                            style="fill:#e85b0d;fill-opacity:1;fill-rule:nonzero;stroke:none"
                            d="m 0,0 0.712,85.488 c 2.134,36.771 -40.275,86.363 -99.149,85.07 V 82.562 C -39.955,72.74 0,38.747 0,0" />
                        </g>
                        <g
                        transform="translate(314.374,188.9482)"
                        id="g3971">
                        <path
                            id="path3973"
                            style="fill:#ec7833;fill-opacity:1;fill-rule:nonzero;stroke:none"
                            d="m 0,0 c 0,-34.209 -165.034,40.544 -207.332,-46.916 0,0 -1.416,55.023 39.483,91.693 -9.863,8.449 -39.483,32.444 -39.483,53.595 C -93.099,65.929 0,151.978 0,97.294 Z" />
                        </g>
                        <g
                        transform="translate(314.374,188.9482)"
                        id="g3975">
                        <path
                            id="path3977"
                            style="fill:#e85b0d;fill-opacity:1;fill-rule:nonzero;stroke:none"
                            d="m 0,0 c 0,28.848 -131.977,-45.837 -131.977,-7.161 l 0.398,94.134 c 0,-26.82 68.471,46.202 131.579,19.074 z" />
                        </g>
                        <g
                        transform="translate(182.795,275.9212)"
                        id="g3979">
                        <path
                            id="path3981"
                            style="fill:#ef8e53;fill-opacity:1;fill-rule:nonzero;stroke:none"
                            d="m 0,0 c 0.574,208.722 510.719,-94.528 510.287,45.882 l 0.025,-78.349 C 510.751,-206.16 0.26,88.035 -0.229,-87.799 Z" />
                        </g>
                        <g
                        transform="translate(602.0166,391.9414)"
                        id="g3983">
                        <path
                            id="path3985"
                            style="fill:#e85b0d;fill-opacity:1;fill-rule:nonzero;stroke:none"
                            d="m 0,0 -2.542,4.391 -69.764,-40.385 v -5.861 L -2.542,-82.239 0,-77.85 -67.243,-38.924 Z" />
                        </g>
                        <g
                        transform="translate(504.4814,433.394)"
                        id="g3987">
                        <path
                            id="path3989"
                            style="fill:#f29a00;fill-opacity:1;fill-rule:nonzero;stroke:none"
                            d="m 0,0 c -25.465,-5.4 -47.354,-35.753 -47.354,-35.753 l -64.324,35.107 c 0,0 -10.538,-2.695 -32.392,5.179 -21.852,7.867 -22.032,20.198 -22.032,20.198 l -110.753,51.645 -30.316,-65.012 110.753,-51.644 c 0,0 49.122,-20.716 83.143,-30.134 C -79.252,-79.833 -10.919,-90.3 -10.919,-90.3 L 31.345,0.333 C 31.345,0.333 25.461,5.399 0,0" />
                        </g>
                        <g
                        transform="translate(224.4209,514.228)"
                        id="g3991">
                        <path
                            id="path3993"
                            style="fill:#3c3c3b;fill-opacity:1;fill-rule:nonzero;stroke:none"
                            d="m 0,0 -23.188,10.814 c -4.914,2.291 -10.753,0.166 -13.043,-4.748 l -24.293,-52.092 c -2.289,-4.912 -0.164,-10.752 4.749,-13.043 l 23.188,-10.812 z" />
                        </g>
                        <g
                        transform="translate(177.9185,507.9395)"
                        id="g3995">
                        <path
                            id="path3997"
                            style="fill:#3c3c3b;fill-opacity:1;fill-rule:nonzero;stroke:none"
                            d="m 0,0 c -12.691,5.918 -25.474,5.359 -28.557,-1.249 -3.08,-6.607 4.708,-16.763 17.4,-22.678 z" />
                        </g>
                        <g
                        transform="translate(185.5981,533.6211)"
                        id="g3999">
                        <path
                            id="path4001"
                            style="fill:#3c3c3b;fill-opacity:1;fill-rule:nonzero;stroke:none"
                            d="m 0,0 c -5.834,-12.514 -12.13,-21.927 -14.06,-21.028 -1.929,0.9 1.238,11.772 7.073,24.287 C -1.151,15.772 5.143,25.186 7.072,24.287 9.001,23.387 5.836,12.512 0,0" />
                        </g>
                        <g
                        transform="translate(152.0239,461.6201)"
                        id="g4003">
                        <path
                            id="path4005"
                            style="fill:#3c3c3b;fill-opacity:1;fill-rule:nonzero;stroke:none"
                            d="m 0,0 c -5.835,-12.512 -12.13,-21.929 -14.059,-21.029 -1.93,0.9 1.236,11.774 7.072,24.287 5.836,12.515 12.13,21.929 14.06,21.031 C 9.002,23.389 5.835,12.515 0,0" />
                        </g>
                        <g
                        transform="translate(260.3711,443.877)"
                        id="g4007">
                        <path
                            id="path4009"
                            style="fill:#3c3c3b;fill-opacity:1;fill-rule:nonzero;stroke:none"
                            d="M 0,0 13.948,74.87 C 23.63,70.322 36.698,64.196 48.244,58.823 L 33.642,-19.546 C 23.881,-13.262 11.412,-5.909 0,0 m 47.084,-28.844 c -1.798,1.402 -4.139,3.088 -6.881,4.96 l 14.821,79.555 c 6.3,-2.926 11.732,-5.424 15.302,-7.032 16.192,-7.294 14.751,-4.301 2.468,5.293 -12.283,9.595 -49.909,32.298 -68.26,38.276 -18.352,5.981 -16.584,-5.157 -4.938,-10.589 0,0 2.908,-1.369 7.579,-3.566 L -6.739,3.375 c -5.428,2.618 -10.399,4.741 -14.436,6.057 -18.352,5.978 -16.585,-5.158 -4.939,-10.588 0,0 54.537,-25.691 70.73,-32.982 16.194,-7.294 14.753,-4.301 2.468,5.294" />
                        </g>
                        <g
                        transform="translate(228.3252,373.7598)"
                        id="g4011">
                        <path
                            id="path4013"
                            style="fill:#3c3c3b;fill-opacity:1;fill-rule:nonzero;stroke:none"
                            d="m 0,0 c -5.954,-12.766 -21.123,-18.285 -33.886,-12.332 -12.763,5.949 -18.285,21.119 -12.333,33.886 5.951,12.761 21.123,18.282 33.885,12.331 C 0.427,27.934 5.951,12.764 0,0" />
                        </g>
                        <g
                        transform="translate(221.6548,376.8721)"
                        id="g4015">
                        <path
                            id="path4017"
                            style="fill:#e3f7f6;fill-opacity:1;fill-rule:nonzero;stroke:none"
                            d="m 0,0 c -4.233,-9.083 -15.025,-13.006 -24.104,-8.772 -9.079,4.23 -13.007,15.021 -8.773,24.101 4.232,9.08 15.025,13.007 24.102,8.774 C 0.303,19.87 4.233,9.077 0,0" />
                        </g>
                        <g
                        transform="translate(209.8096,382.3945)"
                        id="g4019">
                        <path
                            id="path4021"
                            style="fill:#3c3c3b;fill-opacity:1;fill-rule:nonzero;stroke:none"
                            d="m 0,0 c -1.183,-2.54 -4.198,-3.638 -6.737,-2.452 -2.537,1.184 -3.636,4.197 -2.451,6.738 1.182,2.536 4.2,3.635 6.737,2.452 C 0.088,5.555 1.183,2.535 0,0" />
                        </g>
                        <g
                        transform="translate(538.8369,432.4316)"
                        id="g4023">
                        <path
                            id="path4025"
                            style="fill:#3c3c3b;fill-opacity:1;fill-rule:nonzero;stroke:none"
                            d="m 0,0 -41.811,-89.664 c 0,0 29.924,-8.796 42.033,7.215 12.107,16.01 20.676,42.691 15.002,59.261 C 9.546,-6.62 0,0 0,0" />
                        </g>
                        <g
                        transform="translate(338.3794,458.125)"
                        id="g4027">
                        <path
                            id="path4029"
                            style="fill:#e3f7f6;fill-opacity:1;fill-rule:nonzero;stroke:none"
                            d="m 0,0 3.355,14.934 c 0,0 -12.13,1.624 -23.219,-5.669 z" />
                        </g>
                        <g
                        transform="translate(492.7803,324.9248)"
                        id="g4031">
                        <path
                            id="path4033"
                            style="fill:#3c3c3b;fill-opacity:1;fill-rule:nonzero;stroke:none"
                            d="m 0,0 c -2.29,-4.914 -8.131,-7.039 -13.045,-4.747 -4.912,2.29 -7.033,8.129 -4.743,13.043 2.29,4.914 8.129,7.039 13.04,4.747 C 0.165,10.751 2.292,4.912 0,0" />
                        </g>
                        <g
                        transform="translate(489.9775,326.2314)"
                        id="g4035">
                        <path
                            id="path4037"
                            style="fill:#e3f7f6;fill-opacity:1;fill-rule:nonzero;stroke:none"
                            d="m 0,0 c -1.568,-3.364 -5.568,-4.814 -8.934,-3.25 -3.36,1.571 -4.816,5.568 -3.249,8.935 1.569,3.36 5.569,4.814 8.93,3.248 C 0.109,7.363 1.568,3.364 0,0" />
                        </g>
                        <g
                        transform="translate(486.377,327.9111)"
                        id="g4039">
                        <path
                            id="path4041"
                            style="fill:#3c3c3b;fill-opacity:1;fill-rule:nonzero;stroke:none"
                            d="m 0,0 c -0.642,-1.377 -2.277,-1.969 -3.651,-1.326 -1.375,0.639 -1.968,2.275 -1.328,3.649 0.638,1.375 2.274,1.974 3.648,1.33 C 0.044,3.011 0.641,1.374 0,0" />
                        </g>
                        <g
                        transform="translate(237.0576,398.9453)"
                        id="g4043">
                        <path
                            id="path4045"
                            style="fill:#f29a00;fill-opacity:1;fill-rule:nonzero;stroke:none"
                            d="M 0,0 32.854,11.958 27.295,14.55 -2.043,3.872 c -2.748,4.49 -6.534,8.394 -11.211,11.32 l 6.995,15.002 -7.858,3.666 -6.995,-14.998 c -4.834,1.567 -9.82,2.021 -14.648,1.474 l 2.233,-6.138 c 3.222,0.194 6.507,-0.172 9.72,-1.114 l -1.349,-2.89 c 1.383,-0.378 2.749,-0.871 4.089,-1.495 1.341,-0.626 2.596,-1.357 3.772,-2.171 l 1.353,2.903 c 3.155,-2.099 5.787,-4.756 7.825,-7.773 l -3.071,-1.117 c 0.866,-1.199 1.625,-2.465 2.269,-3.789 l 2.979,1.087 c 3.511,-7.437 3.814,-16.323 0.065,-24.357 -2.083,-4.467 -5.17,-8.142 -8.869,-10.89 l 2.233,-6.139 c 5.191,3.442 9.531,8.306 12.355,14.363 C 4.326,-19.57 4.052,-8.964 0,0" />
                        </g>
                        <g
                        transform="translate(485.3242,338.7773)"
                        id="g4047">
                        <path
                            id="path4049"
                            style="fill:#f29a00;fill-opacity:1;fill-rule:nonzero;stroke:none"
                            d="M 0,0 0.191,5.587 C -0.412,5.685 -1.038,5.781 -1.702,5.89 l -0.2,-5.796 C -1.271,0.125 -0.637,0.096 0,0" />
                        </g>
                        <g
                        transform="translate(477.4707,336.4941)"
                        id="g4051">
                        <path
                            id="path4053"
                            style="fill:#f29a00;fill-opacity:1;fill-rule:nonzero;stroke:none"
                            d="m 0,0 -10.724,10.985 c -1.043,0.18 -2.111,0.366 -3.191,0.552 L -1.313,-1.381 C -0.917,-0.873 -0.478,-0.412 0,0" />
                        </g>
                        <g
                        transform="translate(430.9961,381.4102)"
                        id="g4055">
                        <path
                            id="path4057"
                            style="fill:#3c3c3b;fill-opacity:1;fill-rule:nonzero;stroke:none"
                            d="m 0,0 c -5.891,-12.632 -20.903,-18.098 -33.537,-12.207 -12.63,5.889 -18.094,20.904 -12.205,33.536 5.891,12.633 20.906,18.096 33.535,12.208 C 0.427,27.645 5.89,12.631 0,0" />
                        </g>
                        <g
                        transform="translate(426.2041,383.6445)"
                        id="g4059">
                        <path
                            id="path4061"
                            style="fill:#e3f7f6;fill-opacity:1;fill-rule:nonzero;stroke:none"
                            d="m 0,0 c -4.655,-9.988 -16.521,-14.307 -26.509,-9.649 -9.986,4.656 -14.306,16.523 -9.651,26.51 4.656,9.985 16.525,14.305 26.513,9.651 C 0.339,21.854 4.655,9.984 0,0" />
                        </g>
                        <g
                        transform="translate(413.0391,383.4463)"
                        id="g4063">
                        <path
                            id="path4065"
                            style="fill:#3c3c3b;fill-opacity:1;fill-rule:nonzero;stroke:none"
                            d="m 0,0 c -1.841,-3.949 -6.105,-5.176 -10.608,-3.077 -3.295,1.539 -5.255,4.158 -5.397,7.083 l 2.186,0.689 c 0.034,-2.315 1.346,-4.44 4.155,-5.751 3.227,-1.502 6.025,-0.784 7.396,2.153 1.383,2.968 0.21,5.822 -3.444,7.525 l -0.814,0.379 0.885,1.894 0.876,-0.41 c 3.33,-1.552 5.997,-0.691 7.15,1.787 1.204,2.579 -0.166,4.927 -2.873,6.19 -2.479,1.154 -5.02,0.907 -6.876,-0.608 l -0.798,2.039 c 2.143,1.78 5.645,1.974 8.811,0.497 4.013,-1.869 5.743,-5.577 4.13,-9.032 C 3.547,8.713 0.88,7.259 -1.975,8.11 0.682,6.313 1.459,3.13 0,0" />
                        </g>
                        <g
                        transform="translate(463.5557,394.1494)"
                        id="g4115">
                        <path
                            id="path4117"
                            style="fill:#3c3c3b;fill-opacity:1;fill-rule:nonzero;stroke:none"
                            d="m 0,0 32.545,-17.698 c 0,0 1.737,-25.419 -0.398,-26.256 -2.133,-0.833 -10.87,3.417 -16.797,9.232 C 9.443,-28.927 0,0 0,0" />
                        </g>
                        <flowRoot
                        xml:space="preserve"
                        id="flowRoot4323"
                        style="font-style:normal;font-weight:normal;font-size:40px;line-height:25px;font-family:sans-serif;letter-spacing:0px;word-spacing:0px;fill:#000000;fill-opacity:1;stroke:none;stroke-width:1px;stroke-linecap:butt;stroke-linejoin:miter;stroke-opacity:1"><flowRegion
                            id="flowRegion4325"><rect
                            id="rect4327"
                            width="52.709465"
                            height="41.096798"
                            x="102.40072"
                            y="703.10077" /></flowRegion><flowPara
                            id="flowPara4329"></flowPara></flowRoot>        <flowRoot
                        xml:space="preserve"
                        id="flowRoot4331"
                        style="font-style:normal;font-variant:normal;font-weight:normal;font-stretch:normal;font-size:64px;line-height:25px;font-family:'AR BERKLEY';-inkscape-font-specification:'AR BERKLEY';letter-spacing:0px;word-spacing:0px;fill:#000000;fill-opacity:1;stroke:none;stroke-width:1px;stroke-linecap:butt;stroke-linejoin:miter;stroke-opacity:1"
                        transform="matrix(0.75000002,0,0,-0.75000002,173.92856,833.67549)"><flowRegion
                            id="flowRegion4333"
                            style="font-style:normal;font-variant:normal;font-weight:normal;font-stretch:normal;font-size:64px;font-family:'AR BERKLEY';-inkscape-font-specification:'AR BERKLEY'"><rect
                            id="rect4335"
                            width="158.70479"
                            height="82.328705"
                            x="87.14286"
                            y="686.80542"
                            style="font-style:normal;font-variant:normal;font-weight:normal;font-stretch:normal;font-size:64px;font-family:'AR BERKLEY';-inkscape-font-specification:'AR BERKLEY'" /></flowRegion><flowPara
                            id="flowPara4337"></flowPara></flowRoot>        <g
                        aria-label="Pops"
                        transform="scale(0.98976859,-1.0103372)"
                        style="font-style:normal;font-weight:normal;font-size:29.69305992px;line-height:18.55816078px;font-family:sans-serif;letter-spacing:0px;word-spacing:0px;fill:#000000;fill-opacity:1;stroke:none;stroke-width:0.74232644px;stroke-linecap:butt;stroke-linejoin:miter;stroke-opacity:1"
                        id="text4341">
                        <path
                            d="m 248.52217,-316.08413 q 0,2.29657 -0.81192,4.26838 -0.78872,1.9486 -2.22698,3.38686 -1.78622,1.78622 -4.22198,2.69093 -2.43576,0.88152 -6.14739,0.88152 h -4.59314 v 12.87472 h -4.59315 v -34.54138 h 9.37187 q 3.10849,0 5.26588,0.53355 2.15739,0.51035 3.82762,1.62384 1.97181,1.32227 3.0389,3.29407 1.09029,1.97181 1.09029,4.98751 z m -4.77872,0.11599 q 0,-1.78623 -0.62634,-3.10849 -0.62634,-1.32227 -1.90221,-2.15739 -1.11349,-0.71913 -2.55175,-1.0207 -1.41506,-0.32477 -3.59564,-0.32477 h -4.54675 v 13.80263 h 3.87401 q 2.78373,0 4.52355,-0.48715 1.73983,-0.51035 2.83012,-1.60064 1.0903,-1.11349 1.53105,-2.34297 0.46396,-1.22947 0.46396,-2.76052 z"
                            style="font-size:47.50889206px;stroke-width:0.74232644px"
                            id="path4377" />
                        <path
                            d="m 275.22273,-304.92604 q 0,6.33298 -3.24768,9.99821 -3.24768,3.66524 -8.69914,3.66524 -5.49786,0 -8.74553,-3.66524 -3.22448,-3.66523 -3.22448,-9.99821 0,-6.33297 3.22448,-9.99821 3.24767,-3.68843 8.74553,-3.68843 5.45146,0 8.69914,3.68843 3.24768,3.66524 3.24768,9.99821 z m -4.50036,0 q 0,-5.0339 -1.9718,-7.46966 -1.97181,-2.45895 -5.47466,-2.45895 -3.54925,0 -5.52105,2.45895 -1.94861,2.43576 -1.94861,7.46966 0,4.87152 1.9718,7.40007 1.97181,2.50535 5.49786,2.50535 3.47965,0 5.45146,-2.48215 1.995,-2.50535 1.995,-7.42327 z"
                            style="font-size:47.50889206px;stroke-width:0.74232644px"
                            id="path4379" />
                        <path
                            d="m 304.79979,-305.25081 q 0,3.15489 -0.90471,5.77623 -0.90471,2.59815 -2.55174,4.40757 -1.53105,1.71663 -3.61884,2.66773 -2.0646,0.92791 -4.38437,0.92791 -2.0182,0 -3.66524,-0.44076 -1.62384,-0.44075 -3.31727,-1.36866 v 10.85652 h -4.36117 v -35.46928 h 4.36117 v 2.71413 q 1.73983,-1.46146 3.89722,-2.43576 2.18058,-0.9975 4.63954,-0.9975 4.68593,0 7.28407,3.54925 2.62134,3.52605 2.62134,9.81262 z m -4.50035,0.11599 q 0,-4.68593 -1.60064,-7.0057 -1.60064,-2.31977 -4.91791,-2.31977 -1.87902,0 -3.78123,0.81192 -1.90221,0.81192 -3.64204,2.13419 v 14.68414 q 1.85582,0.83512 3.17809,1.13669 1.34546,0.30157 3.0389,0.30157 3.64204,0 5.68343,-2.45896 2.0414,-2.45895 2.0414,-7.28408 z"
                            style="font-size:47.50889206px;stroke-width:0.74232644px"
                            id="path4381" />
                        <path
                            d="m 330.10849,-299.45138 q 0,3.54925 -2.94611,5.82262 -2.92291,2.27338 -8.00321,2.27338 -2.87651,0 -5.28908,-0.67274 -2.38936,-0.69593 -4.0132,-1.50785 v -4.89471 h 0.23198 q 2.06459,1.55425 4.59314,2.48215 2.52855,0.90471 4.84832,0.90471 2.87652,0 4.50036,-0.9279 1.62384,-0.92791 1.62384,-2.92291 0,-1.53105 -0.88152,-2.31978 -0.88151,-0.78872 -3.38686,-1.34546 -0.92791,-0.20878 -2.43576,-0.48715 -1.48465,-0.27838 -2.71413,-0.60314 -3.41006,-0.90471 -4.84832,-2.64454 -1.41506,-1.76303 -1.41506,-4.31477 0,-1.60065 0.64954,-3.01571 0.67273,-1.41505 2.0182,-2.52854 1.29907,-1.0903 3.29407,-1.71663 2.0182,-0.64954 4.50035,-0.64954 2.31977,0 4.68594,0.57994 2.38936,0.55675 3.96681,1.36867 v 4.66273 h -0.23198 q -1.67023,-1.22947 -4.0596,-2.06459 -2.38936,-0.85832 -4.68593,-0.85832 -2.38937,0 -4.0364,0.92791 -1.64704,0.90471 -1.64704,2.71413 0,1.60064 0.9975,2.41256 0.9743,0.81192 3.15489,1.32227 1.20628,0.27838 2.69093,0.55675 1.50785,0.27837 2.50535,0.51035 3.0389,0.69593 4.68594,2.38936 1.64704,1.71663 1.64704,4.54675 z"
                            style="font-size:47.50889206px;stroke-width:0.74232644px"
                            id="path4383" />
                        </g>
                        <flowRoot
                        xml:space="preserve"
                        id="flowRoot4343"
                        style="font-style:normal;font-weight:normal;font-size:40px;line-height:25px;font-family:sans-serif;letter-spacing:0px;word-spacing:0px;fill:#000000;fill-opacity:1;stroke:none;stroke-width:1px;stroke-linecap:butt;stroke-linejoin:miter;stroke-opacity:1"
                        transform="matrix(0.75000002,0,0,-0.75000002,173.92856,833.67549)"><flowRegion
                            id="flowRegion4345"><rect
                            id="rect4347"
                            width="301.42856"
                            height="55.714287"
                            x="180"
                            y="748.23395" /></flowRegion><flowPara
                            id="flowPara4349"></flowPara></flowRoot>        <flowRoot
                        xml:space="preserve"
                        id="flowRoot4351"
                        style="font-style:normal;font-weight:normal;font-size:40px;line-height:25px;font-family:sans-serif;letter-spacing:0px;word-spacing:0px;fill:#000000;fill-opacity:1;stroke:none;stroke-width:1px;stroke-linecap:butt;stroke-linejoin:miter;stroke-opacity:1"
                        transform="matrix(0.75000002,0,0,-0.75000002,173.92856,833.67549)"><flowRegion
                            id="flowRegion4353"><rect
                            id="rect4355"
                            width="235.71428"
                            height="70"
                            x="167.14285"
                            y="749.66254" /></flowRegion><flowPara
                            id="flowPara4357"></flowPara></flowRoot>        <g
                        aria-label="Passenger"
                        transform="scale(1,-1)"
                        style="font-style:normal;font-weight:normal;font-size:30px;line-height:18.75px;font-family:sans-serif;letter-spacing:0px;word-spacing:0px;fill:#000000;fill-opacity:1;stroke:none;stroke-width:0.75px;stroke-linecap:butt;stroke-linejoin:miter;stroke-opacity:1"
                        id="text4361">
                        <path
                            d="m 359.77393,-284.52148 q 0,2.32031 -0.82032,4.3125 -0.79687,1.96875 -2.25,3.42187 -1.80468,1.80469 -4.26562,2.71875 -2.46094,0.89063 -6.21094,0.89063 h -4.64062 v 13.00781 h -4.64063 v -34.89844 h 9.46875 q 3.14063,0 5.32031,0.53906 2.17969,0.51563 3.86719,1.64063 1.99219,1.33594 3.07031,3.32812 1.10157,1.99219 1.10157,5.03907 z m -4.82813,0.11718 q 0,-1.80468 -0.63281,-3.14062 -0.63281,-1.33594 -1.92188,-2.17969 -1.125,-0.72656 -2.57812,-1.03125 -1.42969,-0.32812 -3.63281,-0.32812 h -4.59375 v 13.94531 h 3.91406 q 2.8125,0 4.57031,-0.49219 1.75781,-0.51562 2.85938,-1.61719 1.10156,-1.125 1.54687,-2.36718 0.46875,-1.24219 0.46875,-2.78907 z"
                            style="font-size:48px;stroke-width:0.75px"
                            id="path4386" />
                        <path
                            d="m 384.78174,-260.16992 h -4.38281 v -2.78906 q -0.58594,0.39843 -1.59375,1.125 -0.98438,0.70312 -1.92188,1.125 -1.10156,0.53906 -2.53125,0.89062 -1.42969,0.375 -3.35156,0.375 -3.53906,0 -6,-2.34375 -2.46094,-2.34375 -2.46094,-5.97656 0,-2.97656 1.26563,-4.80469 1.28906,-1.85156 3.65625,-2.90625 2.39062,-1.05469 5.74218,-1.42969 3.35157,-0.375 7.19532,-0.5625 v -0.67968 q 0,-1.5 -0.53907,-2.48438 -0.51562,-0.98437 -1.5,-1.54687 -0.9375,-0.53907 -2.25,-0.72657 -1.3125,-0.1875 -2.74218,-0.1875 -1.73438,0 -3.86719,0.46875 -2.13281,0.44532 -4.40625,1.3125 h -0.23438 v -4.47656 q 1.28907,-0.35156 3.72657,-0.77344 2.4375,-0.42187 4.80468,-0.42187 2.76563,0 4.80469,0.46875 2.0625,0.44531 3.5625,1.54687 1.47656,1.07813 2.25,2.78907 0.77344,1.71093 0.77344,4.24218 z m -4.38281,-6.44531 v -7.28907 q -2.01563,0.11719 -4.75782,0.35157 -2.71875,0.23437 -4.3125,0.67968 -1.89843,0.53907 -3.07031,1.6875 -1.17187,1.125 -1.17187,3.11719 0,2.25 1.35937,3.39844 1.35938,1.125 4.14844,1.125 2.32031,0 4.24219,-0.89063 1.92187,-0.91406 3.5625,-2.17968 z"
                            style="font-size:48px;stroke-width:0.75px"
                            id="path4388" />
                        <path
                            d="m 412.01611,-267.7168 q 0,3.58594 -2.97656,5.88282 -2.95312,2.29687 -8.08594,2.29687 -2.90625,0 -5.34375,-0.67969 -2.41406,-0.70312 -4.05468,-1.52343 v -4.94532 h 0.23437 q 2.08594,1.57032 4.64063,2.50782 2.55468,0.91406 4.89843,0.91406 2.90625,0 4.54688,-0.9375 1.64062,-0.9375 1.64062,-2.95313 0,-1.54687 -0.89062,-2.34375 -0.89063,-0.79687 -3.42188,-1.35937 -0.9375,-0.21094 -2.46093,-0.49219 -1.5,-0.28125 -2.74219,-0.60937 -3.44531,-0.91407 -4.89844,-2.67188 -1.42969,-1.78125 -1.42969,-4.35937 0,-1.61719 0.65625,-3.04688 0.67969,-1.42969 2.03907,-2.55469 1.3125,-1.10156 3.32812,-1.73437 2.03906,-0.65625 4.54688,-0.65625 2.34375,0 4.73437,0.58594 2.41406,0.5625 4.00781,1.38281 v 4.71094 h -0.23437 q -1.6875,-1.24219 -4.10156,-2.08594 -2.41407,-0.86719 -4.73438,-0.86719 -2.41406,0 -4.07812,0.9375 -1.66407,0.91406 -1.66407,2.74219 0,1.61719 1.00782,2.4375 0.98437,0.82031 3.1875,1.33594 1.21875,0.28125 2.71875,0.5625 1.52343,0.28125 2.53125,0.51562 3.07031,0.70313 4.73437,2.41406 1.66406,1.73438 1.66406,4.59375 z"
                            style="font-size:48px;stroke-width:0.75px"
                            id="path4390" />
                        <path
                            d="m 437.04736,-267.7168 q 0,3.58594 -2.97656,5.88282 -2.95312,2.29687 -8.08594,2.29687 -2.90625,0 -5.34375,-0.67969 -2.41406,-0.70312 -4.05468,-1.52343 v -4.94532 h 0.23437 q 2.08594,1.57032 4.64063,2.50782 2.55468,0.91406 4.89843,0.91406 2.90625,0 4.54688,-0.9375 1.64062,-0.9375 1.64062,-2.95313 0,-1.54687 -0.89062,-2.34375 -0.89063,-0.79687 -3.42188,-1.35937 -0.9375,-0.21094 -2.46093,-0.49219 -1.5,-0.28125 -2.74219,-0.60937 -3.44531,-0.91407 -4.89844,-2.67188 -1.42969,-1.78125 -1.42969,-4.35937 0,-1.61719 0.65625,-3.04688 0.67969,-1.42969 2.03907,-2.55469 1.3125,-1.10156 3.32812,-1.73437 2.03906,-0.65625 4.54688,-0.65625 2.34375,0 4.73437,0.58594 2.41406,0.5625 4.00781,1.38281 v 4.71094 h -0.23437 q -1.6875,-1.24219 -4.10156,-2.08594 -2.41407,-0.86719 -4.73438,-0.86719 -2.41406,0 -4.07812,0.9375 -1.66407,0.91406 -1.66407,2.74219 0,1.61719 1.00782,2.4375 0.98437,0.82031 3.1875,1.33594 1.21875,0.28125 2.71875,0.5625 1.52343,0.28125 2.53125,0.51562 3.07031,0.70313 4.73437,2.41406 1.66406,1.73438 1.66406,4.59375 z"
                            style="font-size:48px;stroke-width:0.75px"
                            id="path4392" />
                        <path
                            d="m 465.28955,-272.80273 h -19.28906 q 0,2.41406 0.72656,4.21875 0.72656,1.78125 1.99219,2.92968 1.21875,1.125 2.88281,1.6875 1.6875,0.5625 3.70313,0.5625 2.67187,0 5.36718,-1.05468 2.71875,-1.07813 3.86719,-2.10938 h 0.23438 v 4.80469 q -2.22657,0.9375 -4.54688,1.57031 -2.32031,0.63281 -4.875,0.63281 -6.51562,0 -10.17187,-3.51562 -3.65625,-3.53906 -3.65625,-10.03125 0,-6.42188 3.49218,-10.19531 3.51563,-3.77344 9.23438,-3.77344 5.29687,0 8.15625,3.09375 2.88281,3.09375 2.88281,8.78906 z m -4.28906,-3.375 q -0.0234,-3.46875 -1.75781,-5.36719 -1.71094,-1.89844 -5.22657,-1.89844 -3.53906,0 -5.64843,2.08594 -2.08594,2.08594 -2.36719,5.17969 z"
                            style="font-size:48px;stroke-width:0.75px"
                            id="path4394" />
                        <path
                            d="m 493.85986,-260.16992 h -4.40625 v -14.90625 q 0,-1.80469 -0.21093,-3.375 -0.21094,-1.59375 -0.77344,-2.48438 -0.58594,-0.98437 -1.6875,-1.45312 -1.10156,-0.49219 -2.85938,-0.49219 -1.80468,0 -3.77343,0.89063 -1.96875,0.89062 -3.77344,2.27343 v 19.54688 h -4.40625 v -26.17969 h 4.40625 v 2.90625 q 2.0625,-1.71094 4.26562,-2.67187 2.20313,-0.96094 4.52344,-0.96094 4.24219,0 6.46875,2.55469 2.22656,2.55468 2.22656,7.35937 z"
                            style="font-size:48px;stroke-width:0.75px"
                            id="path4396" />
                        <path
                            d="m 523.57861,-263.14648 q 0,6.65625 -3.02343,9.77343 -3.02344,3.11719 -9.30469,3.11719 -2.08594,0 -4.07813,-0.30469 -1.96875,-0.28125 -3.89062,-0.82031 v -4.5 h 0.23437 q 1.07813,0.42188 3.42188,1.03125 2.34375,0.63281 4.6875,0.63281 2.25,0 3.72656,-0.53906 1.47656,-0.53906 2.29688,-1.5 0.82031,-0.91406 1.17187,-2.20312 0.35156,-1.28907 0.35156,-2.88282 v -2.39062 q -1.99218,1.59375 -3.82031,2.39062 -1.80469,0.77344 -4.61719,0.77344 -4.6875,0 -7.45312,-3.375 -2.74219,-3.39844 -2.74219,-9.5625 0,-3.375 0.9375,-5.8125 0.96094,-2.46094 2.60156,-4.24219 1.52344,-1.66406 3.70313,-2.57812 2.17969,-0.9375 4.33594,-0.9375 2.27343,0 3.79687,0.46875 1.54688,0.44531 3.25781,1.38281 l 0.28125,-1.125 h 4.125 z m -4.40625,-4.21875 v -14.27344 q -1.75781,-0.79688 -3.28125,-1.125 -1.5,-0.35156 -3,-0.35156 -3.63281,0 -5.71875,2.4375 -2.08593,2.4375 -2.08593,7.07812 0,4.40625 1.54687,6.67969 1.54688,2.27344 5.13281,2.27344 1.92188,0 3.84375,-0.72657 1.94532,-0.75 3.5625,-1.99218 z"
                            style="font-size:48px;stroke-width:0.75px"
                            id="path4398" />
                        <path
                            d="m 554.16455,-272.80273 h -19.28906 q 0,2.41406 0.72656,4.21875 0.72656,1.78125 1.99219,2.92968 1.21875,1.125 2.88281,1.6875 1.6875,0.5625 3.70313,0.5625 2.67187,0 5.36718,-1.05468 2.71875,-1.07813 3.86719,-2.10938 h 0.23438 v 4.80469 q -2.22657,0.9375 -4.54688,1.57031 -2.32031,0.63281 -4.875,0.63281 -6.51562,0 -10.17187,-3.51562 -3.65625,-3.53906 -3.65625,-10.03125 0,-6.42188 3.49218,-10.19531 3.51563,-3.77344 9.23438,-3.77344 5.29687,0 8.15625,3.09375 2.88281,3.09375 2.88281,8.78906 z m -4.28906,-3.375 q -0.0234,-3.46875 -1.75781,-5.36719 -1.71094,-1.89844 -5.22657,-1.89844 -3.53906,0 -5.64843,2.08594 -2.08594,2.08594 -2.36719,5.17969 z"
                            style="font-size:48px;stroke-width:0.75px"
                            id="path4400" />
                        <path
                            d="m 577.18018,-281.54492 h -0.23438 q -0.98437,-0.23438 -1.92187,-0.32813 -0.91407,-0.11718 -2.17969,-0.11718 -2.03906,0 -3.9375,0.91406 -1.89844,0.89062 -3.65625,2.32031 v 18.58594 h -4.40625 v -26.17969 h 4.40625 v 3.86719 q 2.625,-2.10938 4.61719,-2.97656 2.01562,-0.89063 4.10156,-0.89063 1.14844,0 1.66406,0.0703 0.51563,0.0469 1.54688,0.21094 z"
                            style="font-size:48px;stroke-width:0.75px"
                            id="path4402" />
                        </g>
                        <g
                        aria-label="Planes"
                        transform="scale(0.94963976,-1.0530309)"
                        style="font-style:normal;font-weight:normal;font-size:46.89574432px;line-height:18.31864738px;font-family:sans-serif;letter-spacing:0px;word-spacing:0px;fill:#000000;fill-opacity:1;stroke:none;stroke-width:0.73274601px;stroke-linecap:butt;stroke-linejoin:miter;stroke-opacity:1"
                        id="text4369">
                        <path
                            d="m 581.58452,-226.62716 q 0,2.26693 -0.80144,4.21329 -0.77854,1.92346 -2.19824,3.34315 -1.76317,1.76317 -4.16749,2.65621 -2.40432,0.87013 -6.06805,0.87013 h -4.53387 v 12.70856 h -4.53386 v -34.09558 h 9.25092 q 3.06837,0 5.19791,0.52666 2.12955,0.50376 3.77822,1.60288 1.94636,1.3052 2.99968,3.25156 1.07622,1.94636 1.07622,4.92314 z m -4.71705,0.11449 q 0,-1.76317 -0.61825,-3.06837 -0.61826,-1.30521 -1.87767,-2.12955 -1.09911,-0.70985 -2.51881,-1.00752 -1.3968,-0.32058 -3.54924,-0.32058 h -4.48807 v 13.6245 h 3.82402 q 2.7478,0 4.46517,-0.48087 1.71738,-0.50376 2.7936,-1.57998 1.07622,-1.09912 1.51128,-2.31273 0.45797,-1.21361 0.45797,-2.7249 z"
                            style="stroke-width:0.73274601px"
                            id="path4405" />
                        <path
                            d="m 591.59109,-202.83582 h -4.30489 v -35.62977 h 4.30489 z"
                            style="stroke-width:0.73274601px"
                            id="path4407" />
                        <path
                            d="m 620.03079,-202.83582 h -4.28198 v -2.72489 q -0.57246,0.38927 -1.55709,1.09911 -0.96173,0.68695 -1.87766,1.09912 -1.07622,0.52666 -2.47302,0.87014 -1.39679,0.36637 -3.27446,0.36637 -3.45764,0 -5.86196,-2.28983 -2.40433,-2.28983 -2.40433,-5.83907 0,-2.90808 1.23651,-4.69415 1.25941,-1.80897 3.57214,-2.83939 2.33563,-1.03043 5.61009,-1.3968 3.27445,-0.36637 7.02978,-0.54956 v -0.66405 q 0,-1.46549 -0.52666,-2.42722 -0.50377,-0.96173 -1.4655,-1.51129 -0.91593,-0.52666 -2.19823,-0.70985 -1.28231,-0.18319 -2.67911,-0.18319 -1.69447,0 -3.77822,0.45797 -2.08374,0.43507 -4.30488,1.28231 h -0.22898 v -4.37358 q 1.2594,-0.34348 3.64083,-0.75565 2.38142,-0.41217 4.69415,-0.41217 2.702,0 4.69416,0.45797 2.01505,0.43507 3.48054,1.51129 1.44259,1.05332 2.19824,2.7249 0.75564,1.67158 0.75564,4.14459 z m -4.28198,-6.29703 v -7.12138 q -1.96926,0.11449 -4.64836,0.34348 -2.6562,0.22898 -4.21329,0.66405 -1.85476,0.52666 -2.99968,1.64868 -1.14491,1.09912 -1.14491,3.04547 0,2.19824 1.3281,3.32026 1.3281,1.09912 4.053,1.09912 2.26693,0 4.14459,-0.87014 1.87767,-0.89303 3.48055,-2.12954 z"
                            style="stroke-width:0.73274601px"
                            id="path4409" />
                        <path
                            d="m 649.7528,-202.83582 h -4.30488 v -14.56332 q 0,-1.76317 -0.20608,-3.29736 -0.20609,-1.55708 -0.75565,-2.42722 -0.57245,-0.96173 -1.64868,-1.4197 -1.07622,-0.48086 -2.79359,-0.48086 -1.76317,0 -3.68663,0.87014 -1.92346,0.87013 -3.68663,2.22113 v 19.09719 h -4.30488 v -25.57741 h 4.30488 v 2.83939 q 2.01506,-1.67158 4.1675,-2.61041 2.15244,-0.93883 4.41937,-0.93883 4.1446,0 6.31994,2.49592 2.17533,2.49591 2.17533,7.19007 z"
                            style="stroke-width:0.73274601px"
                            id="path4411" />
                        <path
                            d="M 679.45191,-215.17801 H 660.6066 q 0,2.35853 0.70985,4.1217 0.70985,1.74027 1.94635,2.86229 1.19072,1.09912 2.8165,1.64868 1.64868,0.54956 3.61793,0.54956 2.61041,0 5.24371,-1.03043 2.65621,-1.05332 3.77823,-2.06084 h 0.22898 v 4.69415 q -2.17534,0.91593 -4.44227,1.53419 -2.26694,0.61825 -4.76285,0.61825 -6.36573,0 -9.93787,-3.43475 -3.57214,-3.45764 -3.57214,-9.80047 0,-6.27414 3.41185,-9.96077 3.43475,-3.68663 9.02194,-3.68663 5.17501,0 7.96861,3.02258 2.81649,3.02258 2.81649,8.58687 z m -4.19039,-3.29735 q -0.0229,-3.38895 -1.71737,-5.24372 -1.67158,-1.85476 -5.10633,-1.85476 -3.45764,0 -5.51849,2.03795 -2.03795,2.03795 -2.31273,5.06053 z"
                            style="stroke-width:0.73274601px"
                            id="path4413" />
                        <path
                            d="m 704.25079,-210.20907 q 0,3.50344 -2.90809,5.74747 -2.88519,2.24404 -7.89992,2.24404 -2.83939,0 -5.22081,-0.66405 -2.35853,-0.68695 -3.96141,-1.48839 v -4.83155 h 0.22898 q 2.03795,1.53419 4.53387,2.45012 2.49591,0.89304 4.78575,0.89304 2.83939,0 4.44227,-0.91594 1.60288,-0.91593 1.60288,-2.88518 0,-1.51129 -0.87014,-2.28983 -0.87013,-0.77855 -3.34315,-1.32811 -0.91593,-0.20608 -2.40432,-0.48086 -1.46549,-0.27478 -2.6791,-0.59536 -3.36606,-0.89303 -4.78575,-2.6104 -1.3968,-1.74028 -1.3968,-4.25909 0,-1.57998 0.64115,-2.97678 0.66405,-1.3968 1.99216,-2.49592 1.2823,-1.07622 3.25156,-1.69447 1.99215,-0.64116 4.44227,-0.64116 2.28983,0 4.62546,0.57246 2.35853,0.54956 3.91561,1.351 v 4.60256 h -0.22898 q -1.64868,-1.21361 -4.00721,-2.03795 -2.35852,-0.84723 -4.62546,-0.84723 -2.35852,0 -3.9843,0.91593 -1.62578,0.89303 -1.62578,2.6791 0,1.57999 0.98462,2.38143 0.96173,0.80144 3.11417,1.3052 1.19072,0.27478 2.65621,0.54956 1.48839,0.27478 2.47302,0.50376 2.99968,0.68695 4.62546,2.35853 1.62578,1.69447 1.62578,4.48807 z"
                            style="stroke-width:0.73274601px"
                            id="path4415" />
                        </g>
                    </g>
                    </g>
                </g>
            </svg> 
