<?xml version="1.0" encoding="UTF-8" standalone="no"?>
<!-- Created with Inkscape (http://www.inkscape.org/) -->

<svg
   xmlns:dc="http://purl.org/dc/elements/1.1/"
   xmlns:cc="http://creativecommons.org/ns#"
   xmlns:rdf="http://www.w3.org/1999/02/22-rdf-syntax-ns#"
   xmlns:svg="http://www.w3.org/2000/svg"
   xmlns="http://www.w3.org/2000/svg"
   xmlns:sodipodi="http://sodipodi.sourceforge.net/DTD/sodipodi-0.dtd"
   xmlns:inkscape="http://www.inkscape.org/namespaces/inkscape"
   width="468"
   height="60"
   viewBox="0 0 468 60"
   id="svg2"
   version="1.1"
   inkscape:version="0.91 r13725"
   sodipodi:docname="Banner_1.svg">
  <defs
     id="defs4">
    <radialGradient
       id="radialGradient3539"
       gradientUnits="userSpaceOnUse"
       cy="588.48999"
       cx="394.14001"
       gradientTransform="matrix(0.72403,-0.60775,3.4671,4.2491,-1901.5,-1689)"
       r="54.528999"
       inkscape:collect="always">
      <stop
         id="stop3535"
         style="stop-color:#ac00ff"
         offset="0" />
      <stop
         id="stop3537"
         style="stop-color:#d782ff"
         offset="1" />
    </radialGradient>
  </defs>
  <sodipodi:namedview
     id="base"
     pagecolor="#ffffff"
     bordercolor="#666666"
     borderopacity="1.0"
     inkscape:pageopacity="0.0"
     inkscape:pageshadow="2"
     inkscape:zoom="3.2051282"
     inkscape:cx="230.69777"
     inkscape:cy="30"
     inkscape:document-units="px"
     inkscape:current-layer="layer1"
     showgrid="false"
     inkscape:window-width="1920"
     inkscape:window-height="1137"
     inkscape:window-x="-8"
     inkscape:window-y="-8"
     inkscape:window-maximized="1"
     showguides="false"
     units="px">
    <inkscape:grid
       type="xygrid"
       id="grid3352" />
  </sodipodi:namedview>
  <metadata
     id="metadata7">
    <rdf:RDF>
      <cc:Work
         rdf:about="">
        <dc:format>image/svg+xml</dc:format>
        <dc:type
           rdf:resource="http://purl.org/dc/dcmitype/StillImage" />
        <dc:title />
      </cc:Work>
    </rdf:RDF>
  </metadata>
  <g
     inkscape:label="Layer 1"
     inkscape:groupmode="layer"
     id="layer1"
     transform="translate(0,-992.3622)">
    <flowRoot
       xml:space="preserve"
       id="flowRoot3336"
       style="font-style:normal;font-variant:normal;font-weight:normal;font-stretch:normal;font-size:30px;line-height:125%;font-family:'Bradley Hand ITC';-inkscape-font-specification:'Bradley Hand ITC';letter-spacing:0px;word-spacing:0px;fill:#000000;fill-opacity:1;stroke:none;stroke-width:1px;stroke-linecap:butt;stroke-linejoin:miter;stroke-opacity:1"
       transform="translate(0,857.48031)"><flowRegion
         id="flowRegion3338"><rect
           id="rect3340"
           width="241.42645"
           height="32.829956"
           x="25.75889"
           y="26.691498"
           style="font-style:normal;font-variant:normal;font-weight:normal;font-stretch:normal;font-family:'Bradley Hand ITC';-inkscape-font-specification:'Bradley Hand ITC'" /></flowRegion><flowPara
         id="flowPara3342">Mmmmmm</flowPara></flowRoot>    <text
       xml:space="preserve"
       style="font-style:normal;font-weight:normal;font-size:30px;line-height:125%;font-family:sans-serif;letter-spacing:0px;word-spacing:0px;fill:#000000;fill-opacity:1;stroke:none;stroke-width:1px;stroke-linecap:butt;stroke-linejoin:miter;stroke-opacity:1"
       x="164.65486"
       y="925.08301"
       id="text3347"
       sodipodi:linespacing="125%"><tspan
         sodipodi:role="line"
         id="tspan3349"
         x="164.65486"
         y="925.08301" /></text>
    <g
       transform="scale(1.3586265,0.73603746)"
       style="font-style:normal;font-variant:normal;font-weight:normal;font-stretch:normal;font-size:17.86190605px;line-height:125%;font-family:sans-serif;-inkscape-font-specification:'sans-serif, Normal';text-align:start;letter-spacing:0px;word-spacing:0.79519421px;writing-mode:lr-tb;text-anchor:start;fill:#71348f;fill-opacity:1;stroke:none;stroke-width:1px;stroke-linecap:butt;stroke-linejoin:miter;stroke-opacity:1"
       id="text3351">
      <path
         d="m 162.75688,1395.8168 -1.72688,0 0,-6.3581 -6.48018,0 0,6.3581 -1.72688,0 0,-12.9865 1.72688,0 0,5.0934 6.48018,0 0,-5.0934 1.72688,0 0,12.9865 z"
         style="font-style:normal;font-variant:normal;font-weight:normal;font-stretch:normal;font-size:17.86190605px;line-height:125%;font-family:sans-serif;-inkscape-font-specification:'sans-serif, Normal';text-align:start;word-spacing:0.79519421px;writing-mode:lr-tb;text-anchor:start;fill:#71348f;fill-opacity:1"
         id="path4908" />
      <path
         d="m 175.93527,1384.3217 q 0.79367,0.8721 1.21231,2.1368 0.42736,1.2646 0.42736,2.8694 0,1.6048 -0.43608,2.8781 -0.42736,1.2647 -1.20359,2.1107 -0.80239,0.8808 -1.90132,1.3256 -1.0902,0.4448 -2.49438,0.4448 -1.3693,0 -2.49439,-0.4535 -1.11637,-0.4535 -1.90132,-1.3169 -0.78494,-0.8635 -1.2123,-2.1194 -0.41864,-1.2559 -0.41864,-2.8694 0,-1.5874 0.41864,-2.8433 0.41863,-1.2646 1.22102,-2.1629 0.76751,-0.8548 1.90132,-1.3083 1.14253,-0.4535 2.48567,-0.4535 1.39546,0 2.50311,0.4622 1.11636,0.4536 1.89259,1.2996 z m -0.15699,5.0062 q 0,-2.5293 -1.13381,-3.8986 -1.13381,-1.378 -3.09618,-1.378 -1.97981,0 -3.11363,1.378 -1.12509,1.3693 -1.12509,3.8986 0,2.5554 1.15126,3.916 1.15126,1.3518 3.08746,1.3518 1.9362,0 3.07873,-1.3518 1.15126,-1.3606 1.15126,-3.916 z"
         style="font-style:normal;font-variant:normal;font-weight:normal;font-stretch:normal;font-size:17.86190605px;line-height:125%;font-family:sans-serif;-inkscape-font-specification:'sans-serif, Normal';text-align:start;word-spacing:0.79519421px;writing-mode:lr-tb;text-anchor:start;fill:#71348f;fill-opacity:1"
         id="path4910" />
      <path
         d="m 188.52931,1395.8168 -8.21578,0 0,-12.9865 1.72688,0 0,11.4515 6.4889,0 0,1.535 z"
         style="font-style:normal;font-variant:normal;font-weight:normal;font-stretch:normal;font-size:17.86190605px;line-height:125%;font-family:sans-serif;-inkscape-font-specification:'sans-serif, Normal';text-align:start;word-spacing:0.79519421px;writing-mode:lr-tb;text-anchor:start;fill:#71348f;fill-opacity:1"
         id="path4912" />
      <path
         d="m 194.83505,1395.8168 -5.12832,0 0,-1.3257 1.70072,0 0,-10.3352 -1.70072,0 0,-1.3256 5.12832,0 0,1.3256 -1.70072,0 0,10.3352 1.70072,0 0,1.3257 z"
         style="font-style:normal;font-variant:normal;font-weight:normal;font-stretch:normal;font-size:17.86190605px;line-height:125%;font-family:sans-serif;-inkscape-font-specification:'sans-serif, Normal';text-align:start;word-spacing:0.79519421px;writing-mode:lr-tb;text-anchor:start;fill:#71348f;fill-opacity:1"
         id="path4914" />
      <path
         d="m 208.7635,1389.3366 q 0,1.7705 -0.77623,3.2096 -0.7675,1.439 -2.04958,2.2327 -0.88961,0.5495 -1.98853,0.7937 -1.09021,0.2442 -2.87814,0.2442 l -3.27934,0 0,-12.9865 3.24445,0 q 1.90132,0 3.01769,0.2791 1.12509,0.2703 1.90131,0.75 1.32569,0.8286 2.06703,2.2066 0.74134,1.378 0.74134,3.2706 z m -1.80538,-0.026 q 0,-1.5263 -0.53202,-2.5728 -0.53202,-1.0466 -1.58734,-1.6484 -0.7675,-0.4361 -1.63094,-0.6018 -0.86344,-0.1745 -2.06703,-0.1745 l -1.62222,0 0,10.0212 1.62222,0 q 1.24719,0 2.17169,-0.1832 0.93321,-0.1831 1.70944,-0.6802 0.9681,-0.6193 1.44779,-1.631 0.48841,-1.0117 0.48841,-2.5293 z"
         style="font-style:normal;font-variant:normal;font-weight:normal;font-stretch:normal;font-size:17.86190605px;line-height:125%;font-family:sans-serif;-inkscape-font-specification:'sans-serif, Normal';text-align:start;word-spacing:0.79519421px;writing-mode:lr-tb;text-anchor:start;fill:#71348f;fill-opacity:1"
         id="path4916" />
      <path
         d="m 221.81106,1395.8168 -1.84026,0 -1.27336,-3.6195 -5.61673,0 -1.27336,3.6195 -1.75305,0 4.72713,-12.9865 2.30251,0 4.72712,12.9865 z m -3.64564,-5.1022 -2.27635,-6.3755 -2.28507,6.3755 4.56142,0 z"
         style="font-style:normal;font-variant:normal;font-weight:normal;font-stretch:normal;font-size:17.86190605px;line-height:125%;font-family:sans-serif;-inkscape-font-specification:'sans-serif, Normal';text-align:start;word-spacing:0.79519421px;writing-mode:lr-tb;text-anchor:start;fill:#71348f;fill-opacity:1"
         id="path4918" />
      <path
         d="m 232.27702,1382.8303 -4.57013,7.2912 0,5.6953 -1.72689,0 0,-5.5121 -4.58757,-7.4744 1.91003,0 3.54971,5.8086 3.58459,-5.8086 1.84026,0 z"
         style="font-style:normal;font-variant:normal;font-weight:normal;font-stretch:normal;font-size:17.86190605px;line-height:125%;font-family:sans-serif;-inkscape-font-specification:'sans-serif, Normal';text-align:start;word-spacing:0.79519421px;writing-mode:lr-tb;text-anchor:start;fill:#71348f;fill-opacity:1"
         id="path4920" />
      <path
         d="m 251.17833,1394.8748 q -0.47969,0.2094 -0.87216,0.3925 -0.38375,0.1832 -1.01171,0.3838 -0.53202,0.1657 -1.15998,0.2791 -0.61923,0.1221 -1.36929,0.1221 -1.41291,0 -2.57288,-0.3925 -1.15126,-0.4012 -2.00598,-1.2472 -0.83728,-0.8286 -1.30824,-2.1019 -0.47097,-1.2821 -0.47097,-2.9741 0,-1.6048 0.45352,-2.8694 0.45353,-1.2647 1.30825,-2.1368 0.82855,-0.846 1.99725,-1.2908 1.17742,-0.4448 2.60777,-0.4448 1.0466,0 2.08447,0.2529 1.0466,0.2529 2.31995,0.8896 l 0,2.0496 -0.13082,0 q -1.07276,-0.8983 -2.12808,-1.3083 -1.05532,-0.4099 -2.2589,-0.4099 -0.98555,0 -1.77921,0.3227 -0.78495,0.314 -1.40419,0.9856 -0.60179,0.6541 -0.94193,1.6571 -0.33143,0.9943 -0.33143,2.3025 0,1.3693 0.36631,2.3548 0.37503,0.9856 0.95938,1.6048 0.61052,0.6454 1.42163,0.9594 0.81983,0.3053 1.72688,0.3053 1.2472,0 2.3374,-0.4274 1.0902,-0.4274 2.04086,-1.2821 l 0.1221,0 0,2.0234 z"
         style="font-style:normal;font-variant:normal;font-weight:normal;font-stretch:normal;font-size:17.86190605px;line-height:125%;font-family:sans-serif;-inkscape-font-specification:'sans-serif, Normal';text-align:start;word-spacing:0.79519421px;writing-mode:lr-tb;text-anchor:start;fill:#71348f;fill-opacity:1"
         id="path4922" />
      <path
         d="m 263.43792,1384.3217 q 0.79367,0.8721 1.21231,2.1368 0.42736,1.2646 0.42736,2.8694 0,1.6048 -0.43608,2.8781 -0.42736,1.2647 -1.20359,2.1107 -0.80239,0.8808 -1.90132,1.3256 -1.0902,0.4448 -2.49438,0.4448 -1.3693,0 -2.49439,-0.4535 -1.11637,-0.4535 -1.90132,-1.3169 -0.78494,-0.8635 -1.2123,-2.1194 -0.41864,-1.2559 -0.41864,-2.8694 0,-1.5874 0.41864,-2.8433 0.41864,-1.2646 1.22103,-2.1629 0.7675,-0.8548 1.90131,-1.3083 1.14254,-0.4535 2.48567,-0.4535 1.39546,0 2.50311,0.4622 1.11637,0.4536 1.89259,1.2996 z m -0.15699,5.0062 q 0,-2.5293 -1.13381,-3.8986 -1.13381,-1.378 -3.09618,-1.378 -1.97981,0 -3.11362,1.378 -1.12509,1.3693 -1.12509,3.8986 0,2.5554 1.15125,3.916 1.15126,1.3518 3.08746,1.3518 1.9362,0 3.07874,-1.3518 1.15125,-1.3606 1.15125,-3.916 z"
         style="font-style:normal;font-variant:normal;font-weight:normal;font-stretch:normal;font-size:17.86190605px;line-height:125%;font-family:sans-serif;-inkscape-font-specification:'sans-serif, Normal';text-align:start;word-spacing:0.79519421px;writing-mode:lr-tb;text-anchor:start;fill:#71348f;fill-opacity:1"
         id="path4924" />
      <path
         d="m 276.65992,1384.3653 -4.63991,0 0,11.4515 -1.72688,0 0,-11.4515 -4.63991,0 0,-1.535 11.0067,0 0,1.535 z"
         style="font-style:normal;font-variant:normal;font-weight:normal;font-stretch:normal;font-size:17.86190605px;line-height:125%;font-family:sans-serif;-inkscape-font-specification:'sans-serif, Normal';text-align:start;word-spacing:0.79519421px;writing-mode:lr-tb;text-anchor:start;fill:#71348f;fill-opacity:1"
         id="path4926" />
      <path
         d="m 287.091,1384.3653 -4.63991,0 0,11.4515 -1.72688,0 0,-11.4515 -4.63991,0 0,-1.535 11.0067,0 0,1.535 z"
         style="font-style:normal;font-variant:normal;font-weight:normal;font-stretch:normal;font-size:17.86190605px;line-height:125%;font-family:sans-serif;-inkscape-font-specification:'sans-serif, Normal';text-align:start;word-spacing:0.79519421px;writing-mode:lr-tb;text-anchor:start;fill:#71348f;fill-opacity:1"
         id="path4928" />
      <path
         d="m 298.04537,1395.8168 -1.84027,0 -1.27335,-3.6195 -5.61674,0 -1.27336,3.6195 -1.75304,0 4.72712,-12.9865 2.30251,0 4.72713,12.9865 z m -3.64564,-5.1022 -2.27635,-6.3755 -2.28507,6.3755 4.56142,0 z"
         style="font-style:normal;font-variant:normal;font-weight:normal;font-stretch:normal;font-size:17.86190605px;line-height:125%;font-family:sans-serif;-inkscape-font-specification:'sans-serif, Normal';text-align:start;word-spacing:0.79519421px;writing-mode:lr-tb;text-anchor:start;fill:#71348f;fill-opacity:1"
         id="path4930" />
      <path
         d="m 310.84872,1394.8574 q -1.06404,0.4884 -2.32868,0.8547 -1.25591,0.3576 -2.43333,0.3576 -1.51757,0 -2.7822,-0.4186 -1.26464,-0.4187 -2.15425,-1.256 -0.89832,-0.846 -1.38674,-2.1106 -0.48841,-1.2733 -0.48841,-2.9741 0,-3.1136 1.8141,-4.9102 1.82282,-1.8054 4.9975,-1.8054 1.10765,0 2.2589,0.2703 1.15998,0.2617 2.49439,0.8984 l 0,2.0496 -0.15699,0 q -0.27037,-0.2094 -0.78495,-0.5495 -0.51457,-0.3401 -1.01171,-0.5669 -0.60179,-0.2704 -1.36929,-0.4448 -0.75879,-0.1832 -1.72689,-0.1832 -2.1804,0 -3.45376,1.4042 -1.26464,1.3955 -1.26464,3.7852 0,2.5206 1.32569,3.9247 1.32569,1.3955 3.61075,1.3955 0.83728,0 1.66584,-0.1657 0.83727,-0.1657 1.46523,-0.4274 l 0,-3.1834 -3.47993,0 0,-1.5175 5.18937,0 0,5.5731 z"
         style="font-style:normal;font-variant:normal;font-weight:normal;font-stretch:normal;font-size:17.86190605px;line-height:125%;font-family:sans-serif;-inkscape-font-specification:'sans-serif, Normal';text-align:start;word-spacing:0.79519421px;writing-mode:lr-tb;text-anchor:start;fill:#71348f;fill-opacity:1"
         id="path4932" />
      <path
         d="m 322.42234,1395.8168 -8.55593,0 0,-12.9865 8.55593,0 0,1.535 -6.82904,0 0,3.5584 6.82904,0 0,1.535 -6.82904,0 0,4.8231 6.82904,0 0,1.535 z"
         style="font-style:normal;font-variant:normal;font-weight:normal;font-stretch:normal;font-size:17.86190605px;line-height:125%;font-family:sans-serif;-inkscape-font-specification:'sans-serif, Normal';text-align:start;word-spacing:0.79519421px;writing-mode:lr-tb;text-anchor:start;fill:#71348f;fill-opacity:1"
         id="path4934" />
      <path
         d="m 334.60646,1392.1101 q 0,0.7588 -0.35759,1.5001 -0.34886,0.7413 -0.98554,1.2559 -0.69773,0.5582 -1.63095,0.8722 -0.92449,0.314 -2.23274,0.314 -1.40418,0 -2.52927,-0.2617 -1.11637,-0.2616 -2.27635,-0.7762 l 0,-2.163 0.12211,0 q 0.98554,0.8199 2.27634,1.2647 1.2908,0.4448 2.42462,0.4448 1.60478,0 2.49438,-0.6018 0.89833,-0.6018 0.89833,-1.6048 0,-0.8635 -0.42736,-1.2734 -0.41864,-0.4099 -1.28208,-0.6367 -0.65412,-0.1744 -1.42163,-0.2878 -0.75878,-0.1133 -1.6135,-0.2878 -1.72688,-0.3663 -2.56416,-1.2472 -0.82855,-0.8896 -0.82855,-2.3112 0,-1.631 1.37802,-2.6688 1.37801,-1.0466 3.49737,-1.0466 1.3693,0 2.51183,0.2616 1.14253,0.2617 2.02342,0.6454 l 0,2.0409 -0.1221,0 q -0.74134,-0.628 -1.95365,-1.0379 -1.20358,-0.4186 -2.46822,-0.4186 -1.38674,0 -2.23274,0.5756 -0.83728,0.5756 -0.83728,1.4827 0,0.8111 0.41864,1.2733 0.41864,0.4623 1.47396,0.7065 0.55818,0.1221 1.58734,0.2965 1.02915,0.1745 1.74432,0.3576 1.44779,0.3838 2.18041,1.16 0.73262,0.7762 0.73262,2.1717 z"
         style="font-style:normal;font-variant:normal;font-weight:normal;font-stretch:normal;font-size:17.86190605px;line-height:125%;font-family:sans-serif;-inkscape-font-specification:'sans-serif, Normal';text-align:start;word-spacing:0.79519421px;writing-mode:lr-tb;text-anchor:start;fill:#71348f;fill-opacity:1"
         id="path4936" />
    </g>
    <g
       id="g8712"
       transform="matrix(1.7961824,0,0,0.4750636,-33.618825,562.52028)">
      <path
         sodipodi:nodetypes="zccz"
         inkscape:connector-curvature="0"
         id="path4154"
         d="m 18.873908,953.33313 c 0.01924,4.1369 -0.0068,78.10027 -0.0068,78.10027 l 189.164572,0.9288 C 165,982.3622 18.854664,949.19623 18.873908,953.33313 Z"
         style="fill:#84c475;fill-opacity:1;fill-rule:evenodd;stroke:none;stroke-width:1px;stroke-linecap:butt;stroke-linejoin:miter;stroke-opacity:1" />
      <path
         sodipodi:nodetypes="zccz"
         inkscape:connector-curvature="0"
         id="path4154-1"
         d="m 279.34057,981.17328 c 0.49376,4.40115 -0.19907,51.64352 -0.19907,51.64352 -117.75386,-1.0728 -134.7264,-0.5082 -134.7264,-0.5082 31.06188,-32.68771 134.43171,-55.53647 134.92547,-51.13532 z"
         style="fill:#a6c475;fill-opacity:1;fill-rule:evenodd;stroke:none;stroke-width:0.68600053px;stroke-linecap:butt;stroke-linejoin:miter;stroke-opacity:1" />
    </g>
    <g
       id="g8716"
       transform="matrix(0.48941546,0.06311334,-0.06311334,0.48941546,279.25387,549.2088)">
      <ellipse
         transform="matrix(0.95790131,0.28709768,-0.28709768,0.95790131,0,0)"
         ry="12.146574"
         rx="5.6313453"
         cy="796.17816"
         cx="465.50952"
         id="path4171"
         style="fill:#dfb435;fill-opacity:1;stroke:none;stroke-opacity:1" />
      <path
         sodipodi:nodetypes="cccc"
         inkscape:connector-curvature="0"
         id="path4173"
         d="m 192.08739,987.37041 c -5.65413,14.57829 -17.68863,3.42212 29.97906,-107.7331 l 2.3143,-7.66955 c -0.004,-0.003 9.29093,-33.57134 -32.29336,115.40265 z"
         style="fill:#dfb435;fill-opacity:1;fill-rule:evenodd;stroke:none;stroke-width:1px;stroke-linecap:butt;stroke-linejoin:miter;stroke-opacity:1" />
    </g>
    <g
       transform="matrix(0.02876392,0,0,0.02876392,171.22747,1009.2127)"
       id="g5343">
      <g
         transform="matrix(1.1473661,0,0,0.87663274,-3.2023326,2.2767293)"
         id="g5355">
        <path
           id="path3513"
           sodipodi:nodetypes="cccccc"
           style="fill:#f175ff;fill-rule:evenodd;stroke:#000000;stroke-width:0.9465px"
           d="M 317.79,426.82 C 378.86,344.35 126.67,59.78 246.31,19.55 339.16,1.866 570.12,233.22 594.99,314.54 613.91,387.03 450.44,492 615.42,395.18 680.98,359.84 779.8,697.94 684.03,749.85 608.53,795.37 527.12,647.38 453.37,629.23"
           inkscape:connector-curvature="0" />
        <path
           id="path3515"
           sodipodi:nodetypes="cccccc"
           style="fill:#9900aa;fill-rule:evenodd;stroke:#000000;stroke-width:0.70480001px"
           d="M 338.58,450.52 C 395.62,383.69 191.2,52.63 248.77,37.65 c 69.06,-12.997 321,212.66 330.78,274.5 -4.55,100.58 -152.47,204.87 17.35,118.43 79.9,-42.37 143.23,253.8 72.05,292.29 -56.1,33.77 -158.68,-106.62 -213.61,-120.28"
           inkscape:connector-curvature="0" />
        <path
           id="path3517"
           sodipodi:nodetypes="cccccc"
           style="fill:#6a00ff;fill-opacity:1;fill-rule:evenodd;stroke:#000000;stroke-width:0.53684002px"
           d="M 353.7,468.1 C 411.28,409.18 212.16,65.49 264.61,55.24 313.39,38.197 578.66,278.09 563.09,321.28 537.63,423.87 415.99,521.48 586.78,457.71 651.11,439.58 716.89,686.36 660.63,704.32 620.89,726.49 509.02,585.29 452.35,595.2"
           inkscape:connector-curvature="0" />
        <ellipse
           id="path3525"
           style="fill:#00b7ff"
           transform="matrix(0.72403,-0.60775,0.59921,0.73435,241.86,430.97)"
           cx="180.81731"
           cy="416.97623"
           rx="29.294424"
           ry="31.31473" />
        <ellipse
           id="path3527"
           style="fill:#00b7ff"
           transform="matrix(0.72403,-0.60775,0.59921,0.73435,-48.704,-62.566)"
           cx="180.81731"
           cy="416.97623"
           rx="29.294424"
           ry="31.31473" />
        <path
           id="path3529"
           style="fill:none;stroke:#000000;stroke-width:1px"
           sodipodi:revolution="0.41"
           sodipodi:type="spiral"
           d="m -336.4789,176.44544 c -46.59738,-55.08816 -9.8021,-146.576592 25.3951,-196.000209"
           transform="matrix(-0.069429,1.2956,-1.015,-0.47367,186.35,747.77)"
           sodipodi:argument="-4.1452532"
           sodipodi:cy="189.50504"
           sodipodi:cx="-311.42856"
           sodipodi:t0="0.57615221"
           sodipodi:radius="209.06009"
           sodipodi:expansion="3.6300001" />
        <path
           id="path3559"
           style="fill:none;stroke:#000000;stroke-width:1px"
           sodipodi:revolution="0.41"
           sodipodi:type="spiral"
           d="m -336.4789,176.44544 c -46.59738,-55.08816 -9.8021,-146.576592 25.3951,-196.000209"
           transform="matrix(-0.31151,1.2585,-0.90745,-0.66112,118.63,742.13)"
           sodipodi:argument="-4.1452532"
           sodipodi:cy="189.50504"
           sodipodi:cx="-311.42856"
           sodipodi:t0="0.57615221"
           sodipodi:radius="209.06009"
           sodipodi:expansion="3.6300001" />
        <ellipse
           id="path3563"
           style="fill:#00b7ff"
           transform="matrix(0.72403,-0.60775,0.59921,0.73435,-350.06,34.617)"
           cx="180.81731"
           cy="416.97623"
           rx="10.633302"
           ry="8.737689" />
        <ellipse
           id="path3565"
           style="fill:#00b7ff"
           transform="matrix(0.72403,-0.60775,0.59921,0.73435,-317.92,6.0458)"
           cx="180.81731"
           cy="416.97623"
           rx="10.633302"
           ry="8.737689" />
        <path
           id="path3445"
           sodipodi:nodetypes="ccc"
           style="fill:url(#radialGradient3539);fill-rule:evenodd"
           d="M 325.88,411.17 C 250.43,281.17 138,371.11 250.56,472.16 536.94,800.4 583.78,744.17 325.88,411.17 Z"
           inkscape:connector-curvature="0" />
      </g>
    </g>
    <g
       transform="matrix(-0.10183446,0,0,0.10183446,399.30394,957.27429)"
       id="layer1-2">
      <g
         transform="matrix(1.7259026,-0.39711626,0.39711626,1.7259026,857.9627,-930.22079)"
         style="fill:#71c837"
         id="g4122">
        <path
           d="m -225.81,1002.7 c 5.1591,-17.41 8.5837,-35.448 8.6432,-53.654 0.22162,-7.546 0.2657,-15.1 -0.0134,-22.645 2.3224,15.881 2.3218,32.039 0.97031,48.007 -1.1419,10.001 -4.816,19.498 -9.5993,28.293 z"
           style="fill:#71c837"
           id="path3188"
           inkscape:connector-curvature="0" />
        <path
           d="m -225.9,1002.6 c -4.363,-27.286 -12.002,-28.204 -10.265,-137.84 -2.3963,18.103 -3.4074,74.222 -1.5304,90.627 2.534,22.148 4.8327,32.689 11.796,47.21 z"
           style="fill:#71c837"
           id="path3191"
           inkscape:connector-curvature="0" />
        <path
           d="m -222.84,870.03 a 0.50005,0.50005 0 0 0 -0.375,0.40625 c -1.4082,6.6765 -2.2908,18.823 -2.8125,33.375 -0.5217,14.552 -0.68802,31.498 -0.6875,47.594 5.2e-4,16.095 0.16935,31.348 0.34375,42.594 0.0872,5.6231 0.18459,10.25705 0.25,13.46905 0.0327,1.6057 0.0746,2.8345 0.0937,3.6874 0.01,0.4265 -0.005,0.7492 0,0.9688 0.005,0.2196 0,0.3437 0,0.3438 a 0.50005,0.50005 0 1 0 0.875,-0.3438 c 0.0325,-0.014 0.12579,0.034 0.125,0 -0.005,-0.2192 0.01,-0.5426 0,-0.9688 -0.0191,-0.8523 -0.0611,-2.1136 -0.0937,-3.7187 -0.0654,-3.2101 -0.16283,-7.81635 -0.25,-13.43805 -0.17434,-11.242 -0.34323,-26.506 -0.34375,-42.594 -5.2e-4,-16.088 0.16651,-33.03 0.6875,-47.562 0.52099,-14.533 1.407,-26.703 2.7812,-33.219 a 0.50005,0.50005 0 0 0 -0.59375,-0.59375 z"
           style="color:#000000;text-indent:0;text-transform:none;block-progression:tb;fill:#71c837"
           id="path3193"
           inkscape:connector-curvature="0" />
        <path
           d="m -225.46,911.63 c 0,0 -2.5536,-18.607 -9.2321,-28.156 -6.6786,-9.5485 -10.411,-10.773 -10.411,-10.773 0,0 6.4821,5.1415 12.179,16.894 5.6964,11.752 7.4643,22.035 7.4643,22.035 z"
           style="fill:#71c837"
           id="path3195"
           inkscape:connector-curvature="0" />
        <path
           d="m -216.17,905.01 a 0.50005,0.50005 0 0 0 -0.13719,0.14228 l -1.5491,2.4324 c -0.28994,0.45258 -0.51579,1.2188 -0.86492,2.392 -0.34914,1.1731 -0.77018,2.7132 -1.2182,4.4811 -0.89602,3.5358 -1.9343,7.9924 -2.9328,12.396 -1.997,8.8069 -3.8072,17.332 -3.8072,17.332 a 0.50025,0.50025 0 0 0 0.98194,0.19175 c 0,0 1.7991,-8.4918 3.794,-17.29 0.99749,-4.399 2.0406,-8.8752 2.9328,-12.396 0.44608,-1.7603 0.86266,-3.2888 1.205,-4.439 0.3423,-1.1502 0.6596,-1.9709 0.75798,-2.1245 l 1.5491,-2.4324 a 0.50005,0.50005 0 0 0 -0.7114,-0.68591 z"
           style="color:#000000;text-indent:0;text-transform:none;block-progression:tb;fill:#71c837"
           id="path3197"
           inkscape:connector-curvature="0" />
        <path
           d="m -225.41,943.29 c 0,0 0.26597,-13.817 12.77,-27.376 12.50403,-13.559 20.733,-18.763 20.733,-18.763 0,0 -13.382,10.779 -22.959,24.426 -9.5764,13.647 -10.545,21.713 -10.545,21.713 z"
           style="fill:#71c837"
           id="path3199"
           inkscape:connector-curvature="0" />
        <g
           transform="matrix(-0.62271,-0.066476,-0.066476,0.62271,-300.1,314.63)"
           style="fill:#71c837"
           id="g3239">
          <path
             transform="translate(2.6786,853.19)"
             d="m -218.21,10.15 a 0.98215,2.5893264 0 1 1 -1.9643,0 0.98215,2.5893264 0 1 1 1.9643,0 z"
             style="fill:#71c837"
             id="path3201"
             inkscape:connector-curvature="0" />
          <path
             transform="matrix(0.99427,-0.10689,0.10689,0.99427,-2.674,818.01)"
             d="m -218.21,10.15 a 0.98215,2.5893264 0 1 1 -1.9643,0 0.98215,2.5893264 0 1 1 1.9643,0 z"
             style="fill:#71c837"
             id="path3203"
             inkscape:connector-curvature="0" />
          <path
             transform="translate(-2.8571,850.87)"
             d="m -218.21,10.15 a 0.98215,2.5893264 0 1 1 -1.9643,0 0.98215,2.5893264 0 1 1 1.9643,0 z"
             style="fill:#71c837"
             id="path3205"
             inkscape:connector-curvature="0" />
          <path
             transform="translate(-1.6429,836.05)"
             d="m -218.21,10.15 a 0.98215,2.5893264 0 1 1 -1.9643,0 0.98215,2.5893264 0 1 1 1.9643,0 z"
             style="fill:#71c837"
             id="path3207"
             inkscape:connector-curvature="0" />
          <path
             transform="matrix(0.98329,-0.18203,0.18203,0.98329,-10.901,788.83)"
             d="m -218.21,10.15 a 0.98215,2.5893264 0 1 1 -1.9643,0 0.98215,2.5893264 0 1 1 1.9643,0 z"
             style="fill:#71c837"
             id="path3209"
             inkscape:connector-curvature="0" />
          <path
             d="m -217.58,840.59 c 0.0357,0.77032 0.008,1.5851 -0.35528,2.2831 -0.13088,0.32173 -0.56882,0.5006 -0.82774,0.21154 -0.39824,-0.41428 -0.55622,-0.99344 -0.67359,-1.5415 -0.1579,-0.91349 -0.19028,-1.878 0.1002,-2.7685 0.10544,-0.2956 0.27498,-0.68027 0.63431,-0.70643 0.41466,0.0425 0.61189,0.47988 0.76207,0.8158 0.22224,0.54116 0.31897,1.1251 0.36003,1.7059 z"
             style="fill:#71c837"
             id="path3211"
             inkscape:connector-curvature="0" />
          <path
             transform="translate(-0.44643,855.25)"
             d="m -218.21,10.15 a 0.98215,2.5893264 0 1 1 -1.9643,0 0.98215,2.5893264 0 1 1 1.9643,0 z"
             style="fill:#71c837"
             id="path3215"
             inkscape:connector-curvature="0" />
          <path
             transform="matrix(0.99427,-0.10689,0.10689,0.99427,-4.0487,821.93)"
             d="m -218.21,10.15 a 0.98215,2.5893264 0 1 1 -1.9643,0 0.98215,2.5893264 0 1 1 1.9643,0 z"
             style="fill:#71c837"
             id="path3217"
             inkscape:connector-curvature="0" />
          <path
             transform="translate(-4.4107,834.62)"
             d="m -218.21,10.15 a 0.98215,2.5893264 0 1 1 -1.9643,0 0.98215,2.5893264 0 1 1 1.9643,0 z"
             style="fill:#71c837"
             id="path3219"
             inkscape:connector-curvature="0" />
          <path
             transform="matrix(0.99798,-0.063573,0.063573,0.99798,-2.9216,815.64)"
             d="m -218.21,10.15 a 0.98215,2.5893264 0 1 1 -1.9643,0 0.98215,2.5893264 0 1 1 1.9643,0 z"
             style="fill:#71c837"
             id="path3221"
             inkscape:connector-curvature="0" />
          <path
             transform="matrix(0.99427,-0.10689,0.10689,0.99427,-0.022327,820.95)"
             d="m -218.21,10.15 a 0.98215,2.5893264 0 1 1 -1.9643,0 0.98215,2.5893264 0 1 1 1.9643,0 z"
             style="fill:#71c837"
             id="path3223"
             inkscape:connector-curvature="0" />
          <path
             transform="matrix(0.99427,-0.10689,0.10689,0.99427,-5.7878,817.44)"
             d="m -218.21,10.15 a 0.98215,2.5893264 0 1 1 -1.9643,0 0.98215,2.5893264 0 1 1 1.9643,0 z"
             style="fill:#71c837"
             id="path3225"
             inkscape:connector-curvature="0" />
          <path
             transform="translate(1.7857,837.39)"
             d="m -218.21,10.15 a 0.98215,2.5893264 0 1 1 -1.9643,0 0.98215,2.5893264 0 1 1 1.9643,0 z"
             style="fill:#71c837"
             id="path3227"
             inkscape:connector-curvature="0" />
          <path
             transform="translate(3.8948e-8,849.44)"
             d="m -218.21,10.15 a 0.98215,2.5893264 0 1 1 -1.9643,0 0.98215,2.5893264 0 1 1 1.9643,0 z"
             style="fill:#71c837"
             id="path3229"
             inkscape:connector-curvature="0" />
          <path
             d="m -219.34,832.82 c 0.18242,0.74926 0.31133,1.5542 0.0884,2.3089 -0.0669,0.34083 -0.46247,0.60024 -0.77193,0.3661 -0.47019,-0.33037 -0.73613,-0.86857 -0.95626,-1.384 -0.32986,-0.86636 -0.5463,-1.8068 -0.4317,-2.7365 0.0469,-0.31032 0.13965,-0.72034 0.48734,-0.81481 0.41512,-0.0377 0.69243,0.35386 0.90415,0.65481 0.32174,0.4886 0.52848,1.0432 0.67999,1.6054 z"
             style="fill:#71c837"
             id="path3233"
             inkscape:connector-curvature="0" />
          <path
             d="m -222.04,835.15 c 0.1673,0.75277 0.27996,1.5602 0.0419,2.3102 -0.0737,0.33944 -0.47445,0.59082 -0.77913,0.35049 -0.46345,-0.33978 -0.71849,-0.88321 -0.92819,-1.403 -0.31235,-0.87283 -0.50982,-1.8175 -0.3765,-2.7446 0.0531,-0.30931 0.15412,-0.71739 0.50363,-0.80484 0.4158,-0.0293 0.68518,0.36774 0.89079,0.6729 0.31183,0.49497 0.50737,1.0536 0.64752,1.6188 z"
             style="fill:#71c837"
             id="path3235"
             inkscape:connector-curvature="0" />
          <path
             d="m -223.17,829.85 c 0.1673,0.75277 0.27996,1.5602 0.0419,2.3102 -0.0737,0.33944 -0.47445,0.59082 -0.77913,0.35049 -0.46345,-0.33978 -0.71849,-0.88321 -0.92819,-1.403 -0.31235,-0.87283 -0.50982,-1.8175 -0.3765,-2.7446 0.0531,-0.30931 0.15412,-0.71739 0.50363,-0.80484 0.4158,-0.0293 0.68518,0.36774 0.89079,0.6729 0.31183,0.49497 0.50737,1.0536 0.64752,1.6188 z"
             style="fill:#71c837"
             id="path3237"
             inkscape:connector-curvature="0" />
        </g>
        <g
           transform="matrix(-0.39261,-0.22268,-0.22268,0.39261,-107.73,514.43)"
           style="fill:#71c837"
           id="g4027">
          <path
             transform="translate(2.6786,853.19)"
             d="m -218.21,10.15 a 0.98215,2.5893264 0 1 1 -1.9643,0 0.98215,2.5893264 0 1 1 1.9643,0 z"
             style="fill:#71c837"
             id="path4029"
             inkscape:connector-curvature="0" />
          <path
             transform="matrix(0.99427,-0.10689,0.10689,0.99427,-2.674,818.01)"
             d="m -218.21,10.15 a 0.98215,2.5893264 0 1 1 -1.9643,0 0.98215,2.5893264 0 1 1 1.9643,0 z"
             style="fill:#71c837"
             id="path4031"
             inkscape:connector-curvature="0" />
          <path
             transform="translate(-2.8571,850.87)"
             d="m -218.21,10.15 a 0.98215,2.5893264 0 1 1 -1.9643,0 0.98215,2.5893264 0 1 1 1.9643,0 z"
             style="fill:#71c837"
             id="path4033"
             inkscape:connector-curvature="0" />
          <path
             transform="translate(-1.6429,836.05)"
             d="m -218.21,10.15 a 0.98215,2.5893264 0 1 1 -1.9643,0 0.98215,2.5893264 0 1 1 1.9643,0 z"
             style="fill:#71c837"
             id="path4035"
             inkscape:connector-curvature="0" />
          <path
             transform="matrix(0.98329,-0.18203,0.18203,0.98329,-10.901,788.83)"
             d="m -218.21,10.15 a 0.98215,2.5893264 0 1 1 -1.9643,0 0.98215,2.5893264 0 1 1 1.9643,0 z"
             style="fill:#71c837"
             id="path4037"
             inkscape:connector-curvature="0" />
          <path
             d="m -217.58,840.59 c 0.0357,0.77032 0.008,1.5851 -0.35528,2.2831 -0.13088,0.32173 -0.56882,0.5006 -0.82774,0.21154 -0.39824,-0.41428 -0.55622,-0.99344 -0.67359,-1.5415 -0.1579,-0.91349 -0.19028,-1.878 0.1002,-2.7685 0.10544,-0.2956 0.27498,-0.68027 0.63431,-0.70643 0.41466,0.0425 0.61189,0.47988 0.76207,0.8158 0.22224,0.54116 0.31897,1.1251 0.36003,1.7059 z"
             style="fill:#71c837"
             id="path4039"
             inkscape:connector-curvature="0" />
          <path
             transform="translate(-0.44643,855.25)"
             d="m -218.21,10.15 a 0.98215,2.5893264 0 1 1 -1.9643,0 0.98215,2.5893264 0 1 1 1.9643,0 z"
             style="fill:#71c837"
             id="path4041"
             inkscape:connector-curvature="0" />
          <path
             transform="matrix(0.99427,-0.10689,0.10689,0.99427,-4.0487,821.93)"
             d="m -218.21,10.15 a 0.98215,2.5893264 0 1 1 -1.9643,0 0.98215,2.5893264 0 1 1 1.9643,0 z"
             style="fill:#71c837"
             id="path4043"
             inkscape:connector-curvature="0" />
          <path
             transform="translate(-4.4107,834.62)"
             d="m -218.21,10.15 a 0.98215,2.5893264 0 1 1 -1.9643,0 0.98215,2.5893264 0 1 1 1.9643,0 z"
             style="fill:#71c837"
             id="path4045"
             inkscape:connector-curvature="0" />
          <path
             transform="matrix(0.99798,-0.063573,0.063573,0.99798,-2.9216,815.64)"
             d="m -218.21,10.15 a 0.98215,2.5893264 0 1 1 -1.9643,0 0.98215,2.5893264 0 1 1 1.9643,0 z"
             style="fill:#71c837"
             id="path4047"
             inkscape:connector-curvature="0" />
          <path
             transform="matrix(0.99427,-0.10689,0.10689,0.99427,-0.022327,820.95)"
             d="m -218.21,10.15 a 0.98215,2.5893264 0 1 1 -1.9643,0 0.98215,2.5893264 0 1 1 1.9643,0 z"
             style="fill:#71c837"
             id="path4049"
             inkscape:connector-curvature="0" />
          <path
             transform="matrix(0.99427,-0.10689,0.10689,0.99427,-5.7878,817.44)"
             d="m -218.21,10.15 a 0.98215,2.5893264 0 1 1 -1.9643,0 0.98215,2.5893264 0 1 1 1.9643,0 z"
             style="fill:#71c837"
             id="path4051"
             inkscape:connector-curvature="0" />
          <path
             transform="translate(1.7857,837.39)"
             d="m -218.21,10.15 a 0.98215,2.5893264 0 1 1 -1.9643,0 0.98215,2.5893264 0 1 1 1.9643,0 z"
             style="fill:#71c837"
             id="path4053"
             inkscape:connector-curvature="0" />
          <path
             transform="translate(3.8948e-8,849.44)"
             d="m -218.21,10.15 a 0.98215,2.5893264 0 1 1 -1.9643,0 0.98215,2.5893264 0 1 1 1.9643,0 z"
             style="fill:#71c837"
             id="path4055"
             inkscape:connector-curvature="0" />
          <path
             d="m -219.34,832.82 c 0.18242,0.74926 0.31133,1.5542 0.0884,2.3089 -0.0669,0.34083 -0.46247,0.60024 -0.77193,0.3661 -0.47019,-0.33037 -0.73613,-0.86857 -0.95626,-1.384 -0.32986,-0.86636 -0.5463,-1.8068 -0.4317,-2.7365 0.0469,-0.31032 0.13965,-0.72034 0.48734,-0.81481 0.41512,-0.0377 0.69243,0.35386 0.90415,0.65481 0.32174,0.4886 0.52848,1.0432 0.67999,1.6054 z"
             style="fill:#71c837"
             id="path4057"
             inkscape:connector-curvature="0" />
          <path
             d="m -222.04,835.15 c 0.1673,0.75277 0.27996,1.5602 0.0419,2.3102 -0.0737,0.33944 -0.47445,0.59082 -0.77913,0.35049 -0.46345,-0.33978 -0.71849,-0.88321 -0.92819,-1.403 -0.31235,-0.87283 -0.50982,-1.8175 -0.3765,-2.7446 0.0531,-0.30931 0.15412,-0.71739 0.50363,-0.80484 0.4158,-0.0293 0.68518,0.36774 0.89079,0.6729 0.31183,0.49497 0.50737,1.0536 0.64752,1.6188 z"
             style="fill:#71c837"
             id="path4059"
             inkscape:connector-curvature="0" />
          <path
             d="m -223.17,829.85 c 0.1673,0.75277 0.27996,1.5602 0.0419,2.3102 -0.0737,0.33944 -0.47445,0.59082 -0.77913,0.35049 -0.46345,-0.33978 -0.71849,-0.88321 -0.92819,-1.403 -0.31235,-0.87283 -0.50982,-1.8175 -0.3765,-2.7446 0.0531,-0.30931 0.15412,-0.71739 0.50363,-0.80484 0.4158,-0.0293 0.68518,0.36774 0.89079,0.6729 0.31183,0.49497 0.50737,1.0536 0.64752,1.6188 z"
             style="fill:#71c837"
             id="path4061"
             inkscape:connector-curvature="0" />
        </g>
        <path
           d="m -194.8,882.01 c 0.003,0.19861 -0.1249,0.39015 -0.30848,0.46538 -0.18035,0.0786 -0.40438,0.0379 -0.54507,-0.0998 -0.14257,-0.13247 -0.19459,-0.35072 -0.12805,-0.53346 0.0643,-0.18941 0.25042,-0.32907 0.45053,-0.33657 0.19453,-0.0126 0.38897,0.10018 0.47581,0.27448 0.0364,0.0708 0.0554,0.15034 0.0553,0.22994 z"
           style="fill:#71c837"
           id="path4113"
           inkscape:connector-curvature="0" />
        <path
           d="m -192.59,886.03 c 0.004,0.25565 -0.16077,0.50221 -0.39708,0.59904 -0.23215,0.10118 -0.52052,0.0488 -0.70162,-0.12846 -0.18352,-0.17052 -0.25048,-0.45145 -0.16483,-0.68668 0.0828,-0.24381 0.32235,-0.42358 0.57993,-0.43324 0.2504,-0.0162 0.50069,0.12896 0.61247,0.35332 0.0469,0.0911 0.0713,0.19352 0.0712,0.29598 z"
           style="fill:#71c837"
           id="path4116"
           inkscape:connector-curvature="0" />
        <path
           d="m -204.29,847.38 c 0.003,0.19861 -0.1249,0.39015 -0.30848,0.46538 -0.18035,0.0786 -0.40438,0.0379 -0.54507,-0.0998 -0.14257,-0.13247 -0.19459,-0.35072 -0.12805,-0.53346 0.0643,-0.18941 0.25042,-0.32907 0.45053,-0.33657 0.19453,-0.0126 0.38897,0.10018 0.47581,0.27448 0.0364,0.0708 0.0554,0.15034 0.0553,0.22994 z"
           style="fill:#71c837"
           id="path4118"
           inkscape:connector-curvature="0" />
        <path
           d="m -227.89,860.11 c 0.004,0.25565 -0.16077,0.50221 -0.39708,0.59904 -0.23215,0.10118 -0.52052,0.0488 -0.70162,-0.12846 -0.18352,-0.17052 -0.25048,-0.45145 -0.16483,-0.68668 0.0828,-0.24381 0.32235,-0.42358 0.57993,-0.43324 0.2504,-0.0162 0.50069,0.12896 0.61247,0.35332 0.0469,0.0911 0.0713,0.19352 0.0712,0.29598 z"
           style="fill:#71c837"
           id="path4120"
           inkscape:connector-curvature="0" />
      </g>
    </g>
    <g
       id="g8720"
       transform="matrix(0.56799584,0,0,0.56799584,97.5191,505.89636)">
      <path
         id="path5128"
         d="m 372.76066,951.0174 0.58517,-0.4079 c -1.67738,-2.3509 -2.88841,-5.0433 -3.53493,-7.8708 -0.89449,-3.9106 -0.6958,-8.08241 0.57938,-11.91195 l 0,0 c 1.27512,-3.82934 3.62544,-7.31053 6.72284,-9.93567 -3.15344,2.55804 -5.59678,6.00333 -6.97047,9.85029 0,0 0,0 0,0 -1.37366,3.84703 -1.67329,8.08393 -0.84361,12.10883 l 0,0 c 0.5998,2.9092 1.78193,5.7026 3.46192,8.1678 z"
         style="color:#000000;fill:#008000;fill-rule:evenodd"
         inkscape:connector-curvature="0" />
      <path
         id="path5134"
         d="m 372.50001,951.1486 0.66846,-0.2489 c -1.81845,-4.7624 -4.90698,-9.018 -8.85006,-12.2128 -3.59659,-2.9133 -7.91652,-4.88504 -12.42997,-5.80793 0,0 0,0 0,0 -4.51361,-0.92322 -9.24274,-0.80229 -13.65673,0.45521 4.43413,-1.18335 9.14564,-1.22044 13.60839,-0.22981 10e-6,10e-6 2e-5,0 2e-5,0 4.46281,0.99093 8.69868,3.01443 12.18464,5.93813 l 0,0 c 3.82594,3.2074 6.7797,7.4337 8.47418,12.1058 z"
         style="color:#000000;fill:#008000;fill-opacity:1;fill-rule:evenodd"
         inkscape:connector-curvature="0" />
      <path
         id="path5140"
         d="m 372.798,951.0992 0.59256,-0.3971 c -2.98117,-4.3649 -4.73588,-9.5814 -4.99343,-14.887 -0.25792,-5.30566 0.98165,-10.69408 3.5504,-15.37327 0,0 0,0 0,0 1.46352,-2.66575 3.35042,-5.10362 5.5713,-7.1936 -2.25641,2.05119 -4.19134,4.46168 -5.7092,7.11633 0,0 0,0 0,0 -2.6641,4.65996 -4.01654,10.07613 -3.84832,15.46764 0.16877,5.3913 1.85788,10.739 4.83625,15.2668 z"
         style="color:#000000;fill:#006400;fill-rule:evenodd"
         inkscape:connector-curvature="0" />
      <path
         id="path5146"
         d="m 372.63439,951.1952 0.57316,-0.4246 c -3.65938,-4.864 -7.98535,-9.2131 -12.80018,-12.9148 0,0 0,0 0,0 -4.81468,-3.70169 -10.12046,-6.75735 -15.73784,-9.03415 -2.06258,-0.83606 -4.17328,-1.57125 -6.34552,-2.05553 -1.65184,-0.36823 -3.3352,-0.58992 -5.02382,-0.66207 1.68738,0.0972 3.36502,0.34376 5.00689,0.73538 2.15922,0.51498 4.25113,1.27909 6.29584,2.14318 5.5684,2.3536 10.80347,5.47467 15.53157,9.22319 l 0,0 c 4.72828,3.7482 8.95246,8.1255 12.49997,12.9898 z"
         style="color:#000000;fill:#008000;fill-rule:evenodd"
         inkscape:connector-curvature="0" />
      <path
         id="path5158"
         d="m 371.8607,950.6985 0.67434,-0.2325 c -0.26077,-0.7327 -0.63565,-1.4225 -1.10691,-2.0382 -0.78208,-1.0172 -1.80052,-1.8118 -2.89027,-2.4321 l 0,0 c -1.08866,-0.6209 -2.24537,-1.0821 -3.39846,-1.5091 l 0,0 c -7.83737,-2.9066 -16.12499,-4.5553 -24.45018,-4.8723 8.31677,0.4885 16.54114,2.3063 24.26538,5.3537 1.13599,0.4489 2.25713,0.9214 3.28409,1.538 l 0,0 c 1.02579,0.6171 1.96665,1.3783 2.655,2.3219 0.41714,0.569 0.74461,1.2032 0.96659,1.8703 z"
         style="color:#000000;fill:#006400;fill-opacity:1;fill-rule:evenodd"
         inkscape:connector-curvature="0" />
      <path
         id="path5170"
         d="m 372.22484,951.2211 0.69809,-0.1465 c -1.86663,-8.4746 -1.66776,-17.42299 0.59289,-25.84396 0.3633,-1.35236 0.78397,-2.69159 1.36244,-3.9647 l 0,0 c 0.57234,-1.25927 1.30669,-2.45552 2.26479,-3.45643 0.43498,-0.45449 0.91412,-0.86758 1.42873,-1.2315 -0.52165,0.35377 -1.0097,0.75808 -1.45518,1.20566 -0.98112,0.98588 -1.74492,2.17522 -2.34568,3.43221 -0.60719,1.27034 -1.05761,2.61015 -1.4485,3.9608 0,0 0,0 0,0 -2.43424,8.40683 -2.82108,17.42132 -1.0977,26.04472 z"
         style="color:#000000;fill:#008000;fill-rule:evenodd"
         inkscape:connector-curvature="0" />
      <path
         id="path5182"
         d="m 372.32599,950.5441 0.69415,-0.1642 c -1.26681,-5.1416 -3.849,-9.938 -7.4221,-13.8122 0,0 0,0 0,0 -3.57327,-3.87392 -8.12875,-6.81591 -13.10423,-8.47713 -2.17259,-0.72548 -4.42296,-1.2104 -6.69686,-1.44406 2.26912,0.27606 4.50539,0.80223 6.65525,1.56491 4.92271,1.74638 9.38133,4.75258 12.83372,8.63918 l 0,0 c 3.45259,3.8859 5.89639,8.6489 7.03968,13.694 z"
         style="color:#000000;fill:#006400;fill-rule:evenodd"
         inkscape:connector-curvature="0" />
      <path
         id="path5188"
         d="m 372.54433,951.0177 0.67041,-0.2436 c -0.43161,-1.1434 -0.70669,-2.3486 -0.81371,-3.5702 -0.183,-2.0794 0.15492,-4.2086 0.9338,-6.1633 0,0 0,0 0,0 0.77941,-1.9544 2.00317,-3.7431 3.58561,-5.1438 l 0,0 c 1.58199,-1.40128 3.5154,-2.40791 5.57248,-2.9508 2.0571,-0.54268 4.24683,-0.62407 6.33953,-0.18076 -2.08138,-0.49388 -4.28502,-0.46843 -6.37739,0.0299 -2.0924,0.49808 -4.08254,1.471 -5.73794,2.86626 l 0,0 c -1.65497,1.3958 -2.95999,3.2014 -3.81357,5.2011 l 0,0 c -0.85418,1.9995 -1.26049,4.2014 -1.12285,6.388 0.081,1.2808 0.33834,2.5519 0.7636,3.7671 z"
         style="color:#000000;fill:#006400;fill-opacity:1;fill-rule:evenodd"
         inkscape:connector-curvature="0" />
      <path
         id="path5194"
         d="m 372.43942,951.2454 0.61623,-0.3593 c -1.40122,-2.3233 -3.54623,-4.1681 -6.02587,-5.2029 0,0 0,0 0,0 -2.48001,-1.0343 -5.27602,-1.2509 -7.86222,-0.6243 l 0,0 c -2.53287,0.614 -4.85064,2.0323 -6.5389,3.9846 1.74686,-1.9004 4.08951,-3.2295 6.59084,-3.756 2.5539,-0.5377 5.26815,-0.2367 7.62149,0.8303 2.35351,1.0663 4.34551,2.898 5.59873,5.1277 z"
         style="color:#000000;fill:#008000;fill-rule:evenodd"
         inkscape:connector-curvature="0" />
      <path
         id="path5242"
         d="m 347.90286,926.86532 c -0.0289,0.17818 -0.54562,0.7273 -1.17297,0.3272 -0.78109,-0.4982 -1.94956,-0.95347 -1.95123,-0.94603 0,0 1.17611,-0.27311 2.03844,-0.10228 0.86228,0.17081 1.14463,0.35807 1.08577,0.72114 z"
         style="color:#000000;fill:#006400;fill-rule:evenodd"
         inkscape:connector-curvature="0" />
      <path
         id="path5254"
         style="color:#000000;fill:#008000;fill-opacity:1;fill-rule:evenodd"
         d="m 340.05498,932.65386 c 0.0722,0.16554 -0.19503,0.95301 -1.15296,1.0315 -1.19276,0.0978 -2.80494,0.48257 -2.80247,0.48977 0,0 1.18872,-0.98908 2.28043,-1.40897 1.09168,-0.41992 1.52713,-0.44931 1.67499,-0.11232 z"
         inkscape:connector-curvature="0" />
      <path
         id="path5290"
         d="m 375.99712,922.22828 c -0.165,-0.073 -0.62949,-0.58687 -0.18761,-0.8903 0.55017,-0.37783 1.09981,-1.03014 1.09299,-1.0335 0,0 0.13631,0.87624 -0.11358,1.4072 -0.24987,0.53098 -0.45553,0.6654 -0.79181,0.51663 z"
         style="color:#000000;fill:#008000;fill-rule:evenodd"
         inkscape:connector-curvature="0" />
      <path
         id="path5302"
         d="m 376.75257,918.55296 c -0.093,-0.043 -0.25246,-0.24803 -0.30796,-0.51359 -0.0555,-0.2656 -0.006,-0.59244 0.31717,-0.86832 0.2408,-0.20535 0.49245,-0.44613 0.72936,-0.68102 0.12246,-0.12365 0.24056,-0.24247 0.3324,-0.36409 0.0919,-0.12159 0.15683,-0.24635 0.19116,-0.36937 0.0429,-0.15243 0.0394,-0.29788 0.0266,-0.40167 -0.0128,-0.10375 -0.0325,-0.16619 -0.034,-0.16632 0,0 0.0476,0.0616 0.11147,0.17505 0.064,0.1134 0.14255,0.28084 0.18218,0.48202 0.0294,0.1601 0.033,0.33594 0.0101,0.51094 -0.0229,0.17498 -0.0717,0.34864 -0.12721,0.50836 -0.0832,0.25734 -0.18376,0.51535 -0.30728,0.74193 -0.23587,0.43267 -0.41905,0.71402 -0.5938,0.86421 -0.17472,0.15018 -0.34035,0.16978 -0.53014,0.0819 z"
         style="color:#000000;fill:#008000;fill-rule:evenodd"
         inkscape:connector-curvature="0" />
      <path
         id="path5314"
         d="m 353.07806,948.3635 c 0.13948,0.1146 0.40908,0.7783 -0.1633,1.0241 -0.71263,0.3059 -1.53414,0.9158 -1.52854,0.9209 0,0 0.2101,-0.9979 0.67705,-1.5348 0.46694,-0.5368 0.73063,-0.6437 1.01478,-0.4102 z"
         style="color:#000000;fill:#008000;fill-rule:evenodd"
         inkscape:connector-curvature="0" />
    </g>
    <g
       transform="scale(1.4657829,0.68222929)"
       style="font-style:normal;font-variant:normal;font-weight:bold;font-stretch:semi-condensed;font-size:39.6398201px;line-height:125%;font-family:'HW Andy';-inkscape-font-specification:'HW Andy, Bold Semi-Condensed';text-align:start;letter-spacing:0px;word-spacing:-1.9806577px;writing-mode:lr-tb;text-anchor:start;fill:#7e3ca0;fill-opacity:1;stroke:none;stroke-width:1px;stroke-linecap:butt;stroke-linejoin:miter;stroke-opacity:1"
       id="text3344">
      <path
         d="m 25.42878,1468.4213 q -1.800051,2.8646 -3.329126,6.368 -1.529075,3.4839 -1.703273,4.7033 -0.116133,0.8323 -0.658083,1.0839 -0.541951,0.2516 -2.071026,0.2516 -0.425818,0 -0.793571,-0.3484 -0.348396,-0.3484 -0.909702,-1.4903 -0.677439,-0.6194 -4.490449,-6.6196 -1.316166,-2.071 -1.7806949,-2.7678 0.038711,0.4645 0.096777,1.5484 0.367752,6.1938 0.909703,8.7874 0.619372,3.0001 0.619372,3.9291 0,0.6775 -0.677438,1.1033 -0.6580832,0.4064 -1.4516538,0.4064 -1.8387612,0 -2.1484473,-1.7226 -0.309686,-1.742 -0.6580829,-7.7615 -0.3290415,-6.0195 -0.3290415,-9.2132 0,-0.5419 -0.1935538,-1.2581 -0.096777,-0.4064 -0.096777,-0.5806 0,-0.097 0.019355,-0.1936 0.038711,-0.5419 0.5419507,-1.0258 0.9097029,-0.9097 1.1419674,-1.2581 0.3483969,-0.5226 0.9290583,-0.5226 0.3483969,0 0.6193722,0.077 0.2709753,0.077 0.4645291,0.2516 0.2129092,0.1549 1.1226121,1.7614 5.748548,10.297 7.742152,11.8648 0.348397,-1.2581 3.851721,-7.7808 2.01296,-3.755 2.361357,-4.5679 0.367752,-0.8323 1.200033,-1.3549 0.832282,-0.5419 1.819406,-0.5419 0.987125,0 1.567786,1.3161 0.580661,1.3162 0.580661,3.484 0,3.1743 1.161323,10.0842 0.774215,4.5485 0.774215,5.9421 0,0.6 -0.580661,0.9871 -0.561306,0.3871 -1.354877,0.3871 -0.580661,0 -1.180678,-0.3484 -0.580661,-0.3678 -0.851637,-0.8904 -0.367752,-0.6967 -0.948413,-6.0388 -0.735505,-6.4841 -1.316166,-8.0519 z"
         style="font-style:normal;font-variant:normal;font-weight:bold;font-stretch:semi-condensed;font-size:39.6398201px;line-height:125%;font-family:'HW Andy';-inkscape-font-specification:'HW Andy, Bold Semi-Condensed';text-align:start;word-spacing:-1.9806577px;writing-mode:lr-tb;text-anchor:start;fill:#7e3ca0;fill-opacity:1"
         id="path4877" />
      <path
         d="m 47.958832,1477.4216 q 0,1.2774 -4.161407,4.4324 -0.135487,0.097 -0.580661,0.4451 -3.542035,2.8453 -4.374316,2.8453 -1.683918,0 -2.80653,-2.013 -1.122612,-2.0129 -1.122612,-4.4904 l 0,-0.6775 q -0.290331,0.1162 -0.793571,0.1162 -0.25162,0 -0.50324,-0.3678 -0.25162,-0.3871 -0.25162,-0.7355 0,-0.7742 0.25162,-1.1226 0.270975,-0.3678 1.219389,-0.7742 0,-2.1098 0.464529,-3.9485 0.483885,-1.8581 1.316166,-3.1162 0.832282,-1.2581 1.471009,-1.2581 1.780695,0 3.425903,0.6387 1.645207,0.6387 2.767819,1.7226 1.141967,1.0839 1.141967,1.9549 0,1.0259 -0.212909,1.5097 -0.193554,0.4839 -0.677438,0.9097 -0.464529,0.4065 -2.942018,1.7614 -2.438778,1.3549 -2.787175,1.6452 l 0,0.9484 q 0,1.3549 0.406463,2.3614 0.406463,1.0064 0.890348,1.0064 0.832281,0 3.038795,-2.3033 1.780695,-1.8387 2.361356,-2.2645 0.580661,-0.4259 1.064546,-0.4259 1.393587,0 1.393587,1.2001 z m -8.16797,-7.2583 q -0.348397,0 -0.716149,1.3162 -0.367753,1.2968 -0.367753,2.2065 0.290331,-0.1548 1.219389,-0.5807 1.567786,-0.7161 1.916183,-0.9677 0,-0.6581 -0.619372,-1.3162 -0.619372,-0.6581 -1.432298,-0.6581 z"
         style="font-style:normal;font-variant:normal;font-weight:bold;font-stretch:semi-condensed;font-size:39.6398201px;line-height:125%;font-family:'HW Andy';-inkscape-font-specification:'HW Andy, Bold Semi-Condensed';text-align:start;word-spacing:-1.9806577px;writing-mode:lr-tb;text-anchor:start;fill:#7e3ca0;fill-opacity:1"
         id="path4879" />
      <path
         d="m 48.965312,1482.8411 q 0,-3.3872 4.219473,-6.755 0.522596,-0.4259 1.471009,-1.1807 0.967769,-0.7549 1.916183,-1.471 0.948414,-0.7355 1.432298,-0.813 -0.193554,-1.2193 -0.716149,-1.9355 -0.522595,-0.7161 -1.296811,-0.7161 -0.754859,0 -1.780695,0.4838 -1.006479,0.4646 -1.54843,1.0065 -0.75486,0.7549 -1.045191,0.7549 -0.600016,0 -1.200033,-0.5033 -0.580662,-0.5032 -0.580662,-1.1613 0,-0.9097 1.296811,-1.6258 1.29681,-0.7162 3.096861,-1.3356 1.80005,-0.6387 2.632332,-0.6387 1.877472,0 3.096861,1.4904 1.238744,1.471 2.012959,4.4517 0.75486,2.4194 0.75486,6.697 0,1.8968 -0.387108,3.6969 -0.232264,1.1032 -0.503239,1.3161 -0.25162,0.1936 -0.75486,0.3291 -0.483885,0.1355 -0.851637,0.1355 -0.890348,0 -1.451654,-0.3871 -0.54195,-0.4065 -0.54195,-1.1227 l 0.135487,-1.2387 q -1.083901,1.2581 -2.864596,2.0323 -1.780695,0.7549 -3.445258,0.7549 -3.096861,0 -3.096861,-2.2646 z m 9.406715,-7.4905 q -5.206597,3.3291 -5.206597,5.9033 0,0.9098 0.987124,0.9098 1.393588,0 2.903307,-1.4711 0.329042,-0.3096 0.851637,-0.6 0.522595,-0.2903 0.580662,-0.2903 0,0 0,0 0,0.019 0,0.019 0,-2.9614 -0.116133,-4.4711 z"
         style="font-style:normal;font-variant:normal;font-weight:bold;font-stretch:semi-condensed;font-size:39.6398201px;line-height:125%;font-family:'HW Andy';-inkscape-font-specification:'HW Andy, Bold Semi-Condensed';text-align:start;word-spacing:-1.9806577px;writing-mode:lr-tb;text-anchor:start;fill:#7e3ca0;fill-opacity:1"
         id="path4881" />
      <path
         d="m 79.779079,1459.1307 q 0,3.5808 0.174199,8.4003 0.135487,3.6194 0.425818,5.6711 0.290331,2.0323 1.141967,6.6583 0.71615,3.871 0.71615,4.3743 0,1.0065 -0.483885,1.3549 -0.464529,0.3484 -1.54843,0.3484 -0.890348,0 -1.335522,-0.271 -0.445174,-0.2516 -0.54195,-0.7549 -0.03871,-0.2129 -0.154843,-0.929 -0.116133,-0.7355 -0.367753,-2.1678 -0.154843,0.9871 -1.645207,1.5677 -1.471009,0.5613 -3.600101,0.5613 -3.174282,0 -5.129176,-1.6258 -1.954893,-1.6452 -1.954893,-3.8711 0,-4.413 3.85172,-7.6841 1.587142,-1.3355 3.619457,-2.2839 2.032315,-0.9678 2.864596,-0.9678 -0.03871,-0.4451 -0.348397,-2.8839 -0.561306,-4.6647 -0.561306,-5.0905 0,-0.8323 0.716149,-1.3742 0.735505,-0.5613 2.01296,-0.5613 2.148447,0 2.148447,1.529 z m -3.503324,13.5682 q -0.116132,-1.6065 -0.270975,-2.4969 -0.387108,0.6 -1.335521,0.7549 -0.135488,0.019 -0.193554,0.039 -2.26458,0.9678 -3.174283,2.5549 -0.909703,1.5871 -0.909703,4.1808 0,1.4323 0.851637,2.5549 0.851637,1.1226 2.187158,1.1226 1.045191,0 1.76134,-0.3871 0.716149,-0.4065 1.29681,-1.471 0.116133,-0.3871 0.522596,-0.5033 -0.580662,-4.3162 -0.735505,-6.3485 z"
         style="font-style:normal;font-variant:normal;font-weight:bold;font-stretch:semi-condensed;font-size:39.6398201px;line-height:125%;font-family:'HW Andy';-inkscape-font-specification:'HW Andy, Bold Semi-Condensed';text-align:start;word-spacing:-1.9806577px;writing-mode:lr-tb;text-anchor:start;fill:#7e3ca0;fill-opacity:1"
         id="path4883" />
      <path
         d="m 83.542071,1477.9635 q 0,-2.671 1.29681,-5.5162 1.316166,-2.8646 3.212994,-4.355 0.174198,-0.1161 0.367752,-0.4258 0.367752,-0.6 1.025835,-0.6 0.50324,0 1.122612,0.2129 0.600017,0.1935 1.045191,0.1935 1.412943,0 3.019439,1.1613 1.625852,1.142 2.496844,3.0001 0.870992,1.8388 0.870992,4.1614 0,2.5356 -1.141967,4.684 -1.141967,2.1485 -3.154927,3.5034 -1.993604,1.3548 -3.909787,1.3548 -2.922663,0 -4.587225,-1.9161 -1.664563,-1.9356 -1.664563,-5.4583 z m 6.774383,4.4131 q 1.200034,0 2.283935,-1.7614 1.083902,-1.7613 1.083902,-3.9872 0,-2.3033 -0.812926,-4.2969 -0.812926,-2.0129 -1.683919,-2.0129 -0.987124,0 -2.071025,2.4 -1.064546,2.3807 -1.064546,5.0131 0,2.1871 0.600016,3.4259 0.619373,1.2194 1.664563,1.2194 z"
         style="font-style:normal;font-variant:normal;font-weight:bold;font-stretch:semi-condensed;font-size:39.6398201px;line-height:125%;font-family:'HW Andy';-inkscape-font-specification:'HW Andy, Bold Semi-Condensed';text-align:start;word-spacing:-1.9806577px;writing-mode:lr-tb;text-anchor:start;fill:#7e3ca0;fill-opacity:1"
         id="path4885" />
      <path
         d="m 109.46292,1478.1184 q -0.44518,1.2581 -1.76134,5.4969 -0.29033,0.9484 -0.48389,1.142 -0.1742,0.1742 -0.44517,0.329 -0.58066,0.2903 -1.27746,0.2903 -0.54195,0 -1.12261,-0.8129 -0.58066,-0.8323 -0.67744,-1.5291 -0.0774,-0.5419 -1.47101,-3.9291 -3.154924,-7.7034 -3.154924,-9.7358 0,-0.658 0.75486,-1.1419 0.774214,-0.4839 1.664564,-0.4839 1.97425,0 2.41942,3.2517 0.15484,1.2 0.92906,4.0646 0.77421,2.8453 1.33552,4.2195 0.46453,-1.7807 0.75486,-5.6324 0.0774,-0.8904 0.63873,-1.6646 0.58066,-0.7935 1.33552,-0.7935 1.18068,0 1.58714,2.5742 0.11613,0.7355 1.85812,3.3291 0.48388,0.6968 0.63872,0.9485 0.15485,-0.7162 0.15485,-2.2066 0,-0.9484 -0.30969,-3.3484 -0.25162,-1.8969 -0.25162,-2.4775 0,-0.8517 0.61937,-1.3743 0.63873,-0.5419 1.49037,-0.5419 0.69679,0 1.2581,0.871 0.5613,0.8516 0.5613,2.0323 0,0.8129 -0.19355,3.5807 -0.19355,3.0001 -0.19355,3.9485 0,1.1227 0.0581,3.0582 0.0194,0.929 0.0194,1.1807 0,0.5032 -0.46453,0.8516 -0.44517,0.329 -1.0839,0.329 -0.89035,0 -1.66457,-0.7742 -0.46452,-0.7548 -1.87747,-2.671 -1.31616,-1.8001 -1.6452,-2.3807 z"
         style="font-style:normal;font-variant:normal;font-weight:bold;font-stretch:semi-condensed;font-size:39.6398201px;line-height:125%;font-family:'HW Andy';-inkscape-font-specification:'HW Andy, Bold Semi-Condensed';text-align:start;word-spacing:-1.9806577px;writing-mode:lr-tb;text-anchor:start;fill:#7e3ca0;fill-opacity:1"
         id="path4887" />
      <path
         d="m 153.93517,1472.0601 q 0,0.5613 -0.23226,2.6904 -0.32904,2.9808 -0.32904,5.4389 0,0.9291 0.30968,2.6517 0.1742,1.0258 0.1742,1.3549 0,0.5226 -0.46453,0.9097 -0.46453,0.3871 -0.96777,0.3871 -1.0839,0 -1.54843,-0.9291 -0.46453,-0.929 -0.46453,-3.1549 0,-1.3355 0.19356,-3.3291 -3.73559,3.4452 -7.50989,5.3421 -3.7743,1.8774 -6.90987,1.8774 -2.6904,0 -4.2969,-1.8774 -1.58714,-1.8775 -1.58714,-4.897 0,-2.7097 1.21939,-6.1743 1.21939,-3.484 3.38719,-7.1035 1.45166,-2.4 3.01944,-4.3356 1.58714,-1.9355 2.76782,-2.5936 1.20004,-0.6774 1.91619,-0.6774 0.63872,0 1.06454,0.3871 0.42582,0.3871 0.75486,2.071 0.0387,0.1355 0.0774,0.4065 0.15485,0.7355 0.15485,0.8903 0,0.3678 -0.1742,0.6581 -0.15485,0.2903 -0.42582,0.2903 -0.44518,0 -0.85164,-0.1354 -0.46453,-0.1355 -0.58066,-0.1355 -0.75486,0 -1.64521,0.9484 -0.87099,0.929 -1.72263,2.1097 -0.85163,1.1807 -1.56778,2.4775 -3.13557,5.5356 -3.13557,11.1874 0,1.742 0.71615,2.6904 0.7355,0.9291 2.05167,0.9291 2.12909,0 6.05823,-2.342 3.9485,-2.3614 6.23243,-5.1099 -0.30968,0 -1.06454,0.2904 -0.71615,0.271 -1.27746,0.4258 -0.50324,0.1742 -1.27745,0.5032 -1.0839,0.4452 -1.70328,0.4452 -0.65808,0 -1.16132,-0.5806 -0.50324,-0.5807 -0.50324,-1.1807 0,-0.5807 0.44517,-1.1613 0.44518,-0.5807 0.98713,-0.5807 0.9097,0 4.27754,-0.8904 4.54851,-1.2 4.80013,-1.2 0.27098,0 0.5226,0.329 0.27097,0.3097 0.27097,0.6968 z"
         style="font-style:normal;font-variant:normal;font-weight:bold;font-stretch:semi-condensed;font-size:39.6398201px;line-height:125%;font-family:'HW Andy';-inkscape-font-specification:'HW Andy, Bold Semi-Condensed';text-align:start;word-spacing:-1.9806577px;writing-mode:lr-tb;text-anchor:start;fill:#7e3ca0;fill-opacity:1"
         id="path4889" />
      <path
         d="m 168.07217,1471.9053 q 0,0.6387 -0.50324,1.2581 -0.50324,0.6 -1.02583,0.6 -1.85812,0 -1.99361,-0.9484 -0.13548,-0.9871 -0.40646,-1.3549 -0.27097,-0.3871 -0.81293,-0.3871 -0.96776,0 -3.32912,3.1356 0.0968,1.3549 0.46453,3.9098 0.36775,2.5549 0.81292,4.3162 0.3484,1.3355 0.3484,1.8001 0,0.5419 -0.7355,0.9484 -0.71615,0.3871 -1.37424,0.3871 -0.77421,0 -1.43229,-0.3097 -0.63873,-0.2903 -0.83228,-0.7161 -0.23227,-0.7743 -0.54196,-3.0195 -0.30968,-2.2646 -0.42581,-3.6775 -0.0387,-0.5419 -0.36776,-2.6517 -0.52259,-3.4452 -0.52259,-4.3162 0,-1.5098 0.50324,-2.1291 0.52259,-0.6388 1.70327,-0.6388 0.89035,0 1.45166,0.4065 0.58066,0.3871 0.58066,0.8904 0,0.3677 -0.0194,1.1032 -0.0194,0.6387 -0.0194,0.9097 1.27745,-1.9355 2.57426,-2.8065 1.31617,-0.871 2.94202,-0.871 2.96137,0 2.96137,4.1614 z"
         style="font-style:normal;font-variant:normal;font-weight:bold;font-stretch:semi-condensed;font-size:39.6398201px;line-height:125%;font-family:'HW Andy';-inkscape-font-specification:'HW Andy, Bold Semi-Condensed';text-align:start;word-spacing:-1.9806577px;writing-mode:lr-tb;text-anchor:start;fill:#7e3ca0;fill-opacity:1"
         id="path4891" />
      <path
         d="m 182.96404,1477.4216 q 0,1.2774 -4.1614,4.4324 -0.13549,0.097 -0.58067,0.4451 -3.54203,2.8453 -4.37431,2.8453 -1.68392,0 -2.80653,-2.013 -1.12261,-2.0129 -1.12261,-4.4904 l 0,-0.6775 q -0.29033,0.1162 -0.79357,0.1162 -0.25162,0 -0.50324,-0.3678 -0.25162,-0.3871 -0.25162,-0.7355 0,-0.7742 0.25162,-1.1226 0.27097,-0.3678 1.21939,-0.7742 0,-2.1098 0.46452,-3.9485 0.48389,-1.8581 1.31617,-3.1162 0.83228,-1.2581 1.47101,-1.2581 1.78069,0 3.4259,0.6387 1.64521,0.6387 2.76782,1.7226 1.14197,1.0839 1.14197,1.9549 0,1.0259 -0.21291,1.5097 -0.19355,0.4839 -0.67744,0.9097 -0.46453,0.4065 -2.94202,1.7614 -2.43878,1.3549 -2.78717,1.6452 l 0,0.9484 q 0,1.3549 0.40646,2.3614 0.40646,1.0064 0.89035,1.0064 0.83228,0 3.03879,-2.3033 1.7807,-1.8387 2.36136,-2.2645 0.58066,-0.4259 1.06455,-0.4259 1.39358,0 1.39358,1.2001 z m -8.16797,-7.2583 q -0.34839,0 -0.71615,1.3162 -0.36775,1.2968 -0.36775,2.2065 0.29033,-0.1548 1.21939,-0.5807 1.56779,-0.7161 1.91618,-0.9677 0,-0.6581 -0.61937,-1.3162 -0.61937,-0.6581 -1.4323,-0.6581 z"
         style="font-style:normal;font-variant:normal;font-weight:bold;font-stretch:semi-condensed;font-size:39.6398201px;line-height:125%;font-family:'HW Andy';-inkscape-font-specification:'HW Andy, Bold Semi-Condensed';text-align:start;word-spacing:-1.9806577px;writing-mode:lr-tb;text-anchor:start;fill:#7e3ca0;fill-opacity:1"
         id="path4893" />
      <path
         d="m 197.44541,1477.4216 q 0,1.2774 -4.1614,4.4324 -0.13549,0.097 -0.58067,0.4451 -3.54203,2.8453 -4.37431,2.8453 -1.68392,0 -2.80653,-2.013 -1.12261,-2.0129 -1.12261,-4.4904 l 0,-0.6775 q -0.29034,0.1162 -0.79358,0.1162 -0.25162,0 -0.50323,-0.3678 -0.25162,-0.3871 -0.25162,-0.7355 0,-0.7742 0.25162,-1.1226 0.27097,-0.3678 1.21938,-0.7742 0,-2.1098 0.46453,-3.9485 0.48389,-1.8581 1.31617,-3.1162 0.83228,-1.2581 1.47101,-1.2581 1.78069,0 3.4259,0.6387 1.64521,0.6387 2.76782,1.7226 1.14197,1.0839 1.14197,1.9549 0,1.0259 -0.21291,1.5097 -0.19356,0.4839 -0.67744,0.9097 -0.46453,0.4065 -2.94202,1.7614 -2.43878,1.3549 -2.78717,1.6452 l 0,0.9484 q 0,1.3549 0.40646,2.3614 0.40646,1.0064 0.89035,1.0064 0.83228,0 3.03879,-2.3033 1.7807,-1.8387 2.36136,-2.2645 0.58066,-0.4259 1.06454,-0.4259 1.39359,0 1.39359,1.2001 z m -8.16797,-7.2583 q -0.3484,0 -0.71615,1.3162 -0.36775,1.2968 -0.36775,2.2065 0.29033,-0.1548 1.21939,-0.5807 1.56779,-0.7161 1.91618,-0.9677 0,-0.6581 -0.61937,-1.3162 -0.61937,-0.6581 -1.4323,-0.6581 z"
         style="font-style:normal;font-variant:normal;font-weight:bold;font-stretch:semi-condensed;font-size:39.6398201px;line-height:125%;font-family:'HW Andy';-inkscape-font-specification:'HW Andy, Bold Semi-Condensed';text-align:start;word-spacing:-1.9806577px;writing-mode:lr-tb;text-anchor:start;fill:#7e3ca0;fill-opacity:1"
         id="path4895" />
      <path
         d="m 202.28866,1470.9569 q 1.23875,-1.7614 2.84524,-2.7098 1.6065,-0.9484 3.29042,-0.9484 1.31617,0 2.24522,0.871 0.92906,0.8516 1.39359,2.4775 0.48389,1.6065 0.63873,7.3163 0.0387,0.813 0.15484,2.5549 0.13549,1.684 0.13549,2.2453 0,0.8322 -0.77422,1.471 -0.75486,0.6387 -1.72262,0.6387 -0.98713,0 -1.64521,-0.4645 -0.65809,-0.4646 -0.65809,-1.2001 0,-0.4645 0.0581,-2.2065 0.0968,-2.3613 0.0968,-3.2323 0,-0.1355 0,-0.5226 0.0194,-0.6581 0.0194,-1.0646 0,-5.9421 -1.49036,-5.9421 -0.87099,0 -2.01296,1.0065 -1.12261,0.9871 -1.74198,2.5356 -0.60002,1.5484 -0.60002,3.4646 0,0.7161 0.36775,3.2323 0.42582,2.8259 0.42582,3.7163 0,0.5613 -0.54195,0.929 -0.5226,0.3678 -1.23875,0.3678 -1.66456,0 -2.26458,-1.142 -0.40646,-1.1032 -0.71614,-4.3743 -0.13549,-1.3936 -0.23227,-2.0904 -0.75486,-6.1744 -0.75486,-6.9679 0,-2.5356 2.45813,-2.5356 1.10326,0 1.6065,0.6 0.5226,0.6001 0.65808,1.9743 z"
         style="font-style:normal;font-variant:normal;font-weight:bold;font-stretch:semi-condensed;font-size:39.6398201px;line-height:125%;font-family:'HW Andy';-inkscape-font-specification:'HW Andy, Bold Semi-Condensed';text-align:start;word-spacing:-1.9806577px;writing-mode:lr-tb;text-anchor:start;fill:#7e3ca0;fill-opacity:1"
         id="path4897" />
      <path
         d="m 238.45105,1462.7889 q 0,-0.6774 0.61937,-1.1613 0.63873,-0.5032 1.35488,-0.5032 0.7355,0 1.33552,0.5806 0.60002,0.5613 0.60002,1.4323 0,0.4839 0.13548,2.7291 0.27098,4.626 0.27098,6.6002 0,2.8646 1.41294,9.097 0.32904,1.471 0.32904,1.6452 0,0.9872 -0.67743,1.6452 -0.67744,0.6388 -1.74199,0.6388 -0.79357,0 -1.39359,-0.5033 -0.58066,-0.5032 -0.58066,-1.2774 0,-0.5613 -0.46453,-4.1614 -0.58066,-4.684 -0.89034,-9.6777 -0.30969,-4.9937 -0.30969,-7.0841 z m 4.31625,9.31 q 0,-1.7807 1.14197,-1.7807 2.07102,-0.1742 5.43886,-0.8323 1.00648,-0.271 2.36136,-0.7549 1.06454,-0.3871 1.39358,-0.3871 0.48389,0 0.85164,0.3097 0.38711,0.3097 0.38711,0.6774 0,1.3936 -1.0839,1.9162 -1.06455,0.5033 -3.00009,1.0065 -1.64521,0.4452 -3.44526,0.7742 -1.80005,0.3097 -2.45813,0.3097 -1.58714,0 -1.58714,-1.2387 z m -0.9097,-10.7423 q 0,-1.3161 4.41302,-2.4001 4.43239,-1.0839 7.83893,-1.0839 1.81941,0 1.81941,1.142 0,1.0065 -1.18068,1.6259 -1.16132,0.6 -3.9485,0.871 -1.6452,0.1548 -4.95497,0.9097 -2.05168,0.4838 -2.43878,0.4838 -1.54843,0 -1.54843,-1.5484 z"
         style="font-style:normal;font-variant:normal;font-weight:bold;font-stretch:semi-condensed;font-size:39.6398201px;line-height:125%;font-family:'HW Andy';-inkscape-font-specification:'HW Andy, Bold Semi-Condensed';text-align:start;word-spacing:-1.9806577px;writing-mode:lr-tb;text-anchor:start;fill:#7e3ca0;fill-opacity:1"
         id="path4899" />
      <path
         d="m 255.00473,1482.8411 q 0,-3.3872 4.21947,-6.755 0.52259,-0.4259 1.47101,-1.1807 0.96777,-0.7549 1.91618,-1.471 0.94841,-0.7355 1.4323,-0.813 -0.19356,-1.2193 -0.71615,-1.9355 -0.5226,-0.7161 -1.29681,-0.7161 -0.75486,0 -1.7807,0.4838 -1.00648,0.4646 -1.54843,1.0065 -0.75486,0.7549 -1.04519,0.7549 -0.60001,0 -1.20003,-0.5033 -0.58066,-0.5032 -0.58066,-1.1613 0,-0.9097 1.29681,-1.6258 1.29681,-0.7162 3.09686,-1.3356 1.80005,-0.6387 2.63233,-0.6387 1.87747,0 3.09686,1.4904 1.23875,1.471 2.01296,4.4517 0.75486,2.4194 0.75486,6.697 0,1.8968 -0.38711,3.6969 -0.23226,1.1032 -0.50324,1.3161 -0.25162,0.1936 -0.75486,0.3291 -0.48388,0.1355 -0.85163,0.1355 -0.89035,0 -1.45166,-0.3871 -0.54195,-0.4065 -0.54195,-1.1227 l 0.13549,-1.2387 q -1.0839,1.2581 -2.8646,2.0323 -1.78069,0.7549 -3.44525,0.7549 -3.09686,0 -3.09686,-2.2646 z m 9.40671,-7.4905 q -5.2066,3.3291 -5.2066,5.9033 0,0.9098 0.98713,0.9098 1.39359,0 2.9033,-1.4711 0.32905,-0.3096 0.85164,-0.6 0.5226,-0.2903 0.58066,-0.2903 0,0 0,0 0,0.019 0,0.019 0,-2.9614 -0.11613,-4.4711 z"
         style="font-style:normal;font-variant:normal;font-weight:bold;font-stretch:semi-condensed;font-size:39.6398201px;line-height:125%;font-family:'HW Andy';-inkscape-font-specification:'HW Andy, Bold Semi-Condensed';text-align:start;word-spacing:-1.9806577px;writing-mode:lr-tb;text-anchor:start;fill:#7e3ca0;fill-opacity:1"
         id="path4901" />
      <path
         d="m 284.54105,1471.9053 q 0,0.6387 -0.50324,1.2581 -0.50324,0.6 -1.02584,0.6 -1.85812,0 -1.9936,-0.9484 -0.13549,-0.9871 -0.40647,-1.3549 -0.27097,-0.3871 -0.81292,-0.3871 -0.96777,0 -3.32913,3.1356 0.0968,1.3549 0.46453,3.9098 0.36775,2.5549 0.81293,4.3162 0.34839,1.3355 0.34839,1.8001 0,0.5419 -0.7355,0.9484 -0.71615,0.3871 -1.37423,0.3871 -0.77422,0 -1.4323,-0.3097 -0.63873,-0.2903 -0.83228,-0.7161 -0.23227,-0.7743 -0.54195,-3.0195 -0.30969,-2.2646 -0.42582,-3.6775 -0.0387,-0.5419 -0.36775,-2.6517 -0.5226,-3.4452 -0.5226,-4.3162 0,-1.5098 0.50324,-2.1291 0.5226,-0.6388 1.70327,-0.6388 0.89035,0 1.45166,0.4065 0.58066,0.3871 0.58066,0.8904 0,0.3677 -0.0194,1.1032 -0.0193,0.6387 -0.0193,0.9097 1.27745,-1.9355 2.57426,-2.8065 1.31617,-0.871 2.94202,-0.871 2.96138,0 2.96138,4.1614 z"
         style="font-style:normal;font-variant:normal;font-weight:bold;font-stretch:semi-condensed;font-size:39.6398201px;line-height:125%;font-family:'HW Andy';-inkscape-font-specification:'HW Andy, Bold Semi-Condensed';text-align:start;word-spacing:-1.9806577px;writing-mode:lr-tb;text-anchor:start;fill:#7e3ca0;fill-opacity:1"
         id="path4903" />
      <path
         d="m 300.08339,1469.6407 q 0.85164,-1.1419 2.63233,-1.9355 1.80005,-0.7936 3.4259,-0.7936 1.04519,0 1.89683,1.0065 0.85164,0.9871 1.23874,2.613 0.38711,1.6065 0.5226,7.0453 0.0194,0.8517 0.1742,2.6517 0.13549,1.6065 0.13549,2.1485 0,1.0258 -0.65809,1.6452 -0.65808,0.6 -1.83876,0.6 -2.18716,0 -2.18716,-2.0904 0,-1.2581 0.0774,-4.8001 0.0774,-2.9614 0.0774,-3.8518 0,-3.9097 -1.33552,-3.9097 -0.871,0 -1.58715,0.4064 -0.69679,0.3871 -1.85811,1.6065 0,0.019 0,0.058 0,0.2323 0.11613,2.1097 0.21291,2.9808 0.23226,3.813 0.0194,0.7162 0.0774,2.284 0.0774,1.9355 0.0774,2.5549 0,2.2452 -2.36136,2.2452 -1.12261,0 -1.62585,-0.3677 -0.48389,-0.3678 -0.48389,-1.2388 0,-0.1548 0.0387,-1.471 0.11613,-4.9163 0.11613,-6.8518 0,-2.4001 -0.46453,-3.5808 -0.46453,-1.1806 -1.20004,-1.1806 -0.98712,0 -2.26457,1.7032 -1.2581,1.684 -1.2581,3.4453 0,2.0517 0.7355,5.4969 0.48388,2.2259 0.48388,3.0775 0,0.542 -0.75486,0.9678 -0.75486,0.4065 -1.37423,0.4065 -0.79357,0 -1.41294,-0.2517 -0.60002,-0.2709 -0.77422,-0.6967 -0.52259,-1.7227 -0.89034,-6.6196 -0.15485,-2.2452 -0.71615,-5.3034 -0.32904,-1.8581 -0.32904,-2.4968 0,-0.7549 0.75486,-1.3936 0.75486,-0.6387 1.37423,-0.6387 1.39359,0 1.91618,0.6968 0.54195,0.6774 0.69679,2.3226 0.90971,-1.6065 2.36136,-2.6904 1.45165,-1.0839 2.80653,-1.0839 1.16132,0 2.09038,0.6387 0.94842,0.6388 1.31617,1.7033 z"
         style="font-style:normal;font-variant:normal;font-weight:bold;font-stretch:semi-condensed;font-size:39.6398201px;line-height:125%;font-family:'HW Andy';-inkscape-font-specification:'HW Andy, Bold Semi-Condensed';text-align:start;word-spacing:-1.9806577px;writing-mode:lr-tb;text-anchor:start;fill:#7e3ca0;fill-opacity:1"
         id="path4905" />
    </g>
  </g>
</svg>
