<?xml version="1.0" encoding="UTF-8" standalone="no"?>
<!-- Created with Inkscape (http://www.inkscape.org/) -->
<svg xmlns:rdf="http://www.w3.org/1999/02/22-rdf-syntax-ns#" xmlns="http://www.w3.org/2000/svg" height="60" width="468" version="1.1" xmlns:cc="http://creativecommons.org/ns#" xmlns:dc="http://purl.org/dc/elements/1.1/" viewBox="0 0 468 60">
 <defs>
  <radialGradient id="radialGradient3539" gradientUnits="userSpaceOnUse" cy="588" cx="394" gradientTransform="matrix(.724 -.608 3.47 4.25 -1.9e3 -1.69e3)" r="54.5">
   <stop stop-color="#ac00ff" offset="0"/>
   <stop stop-color="#d782ff" offset="1"/>
  </radialGradient>
 </defs>
 <g transform="translate(0 -992)">
  <g>
   <flowRoot style="word-spacing:0px;letter-spacing:0px" xml:space="preserve" font-size="30px" transform="translate(0 857)" line-height="125%" font-family="&apos;Bradley Hand ITC&apos;" fill="#000000"><flowRegion><rect height="32.8" width="241" y="26.7" x="25.8"/></flowRegion><flowPara>Mmmmmm</flowPara></flowRoot>
   <text style="word-spacing:0px;letter-spacing:0px" xml:space="preserve" font-size="30px" y="925.08301" x="164.65486" font-family="sans-serif" line-height="125%" fill="#000000"><tspan x="164.65486" y="925.08301"/></text>
   <g fill="#71348f" transform="scale(1.36 .736)">
    <path d="m163 1.4e3h-1.73v-6.36h-6.48v6.36h-1.73v-13h1.73v5.09h6.48v-5.09h1.73v13z"/>
    <path d="m176 1.38e3q0.794 0.872 1.21 2.14 0.427 1.26 0.427 2.87 0 1.6-0.436 2.88-0.427 1.26-1.2 2.11-0.802 0.881-1.9 1.33-1.09 0.445-2.49 0.445-1.37 0-2.49-0.454t-1.9-1.32q-0.785-0.864-1.21-2.12-0.419-1.26-0.419-2.87 0-1.59 0.419-2.84 0.419-1.26 1.22-2.16 0.768-0.855 1.9-1.31 1.14-0.454 2.49-0.454 1.4 0 2.5 0.462 1.12 0.454 1.89 1.3zm-0.157 5.01q0-2.53-1.13-3.9-1.13-1.38-3.1-1.38-1.98 0-3.11 1.38-1.13 1.37-1.13 3.9 0 2.56 1.15 3.92 1.15 1.35 3.09 1.35t3.08-1.35q1.15-1.36 1.15-3.92z"/>
    <path d="m189 1.4e3h-8.22v-13h1.73v11.5h6.49v1.54z"/>
    <path d="m195 1.4e3h-5.13v-1.33h1.7v-10.3h-1.7v-1.33h5.13v1.33h-1.7v10.3h1.7v1.33z"/>
    <path d="m209 1.39e3q0 1.77-0.776 3.21-0.768 1.44-2.05 2.23-0.89 0.55-1.99 0.794-1.09 0.244-2.88 0.244h-3.28v-13h3.24q1.9 0 3.02 0.279 1.13 0.27 1.9 0.75 1.33 0.829 2.07 2.21 0.741 1.38 0.741 3.27zm-1.81-0.026q0-1.53-0.532-2.57-0.532-1.05-1.59-1.65-0.768-0.436-1.63-0.602-0.863-0.174-2.07-0.174h-1.62v10h1.62q1.25 0 2.17-0.183 0.933-0.183 1.71-0.68 0.968-0.619 1.45-1.63 0.488-1.01 0.488-2.53z"/>
    <path d="m222 1.4e3h-1.84l-1.27-3.62h-5.62l-1.27 3.62h-1.75l4.73-13h2.3l4.73 13zm-3.65-5.1-2.28-6.38-2.29 6.38h4.56z"/>
    <path d="m232 1.38e3 -4.57 7.29v5.7h-1.73v-5.51l-4.59-7.47h1.91l3.55 5.81 3.58-5.81h1.84z"/>
    <path d="m251 1.39e3q-0.48 0.209-0.872 0.392-0.384 0.183-1.01 0.384-0.532 0.166-1.16 0.279-0.619 0.122-1.37 0.122-1.41 0-2.57-0.392-1.15-0.401-2.01-1.25-0.837-0.829-1.31-2.1-0.471-1.28-0.471-2.97 0-1.6 0.454-2.87 0.454-1.26 1.31-2.14 0.829-0.846 2-1.29 1.18-0.445 2.61-0.445 1.05 0 2.08 0.253 1.05 0.253 2.32 0.89v2.05h-0.131q-1.07-0.898-2.13-1.31-1.06-0.41-2.26-0.41-0.986 0-1.78 0.323-0.785 0.314-1.4 0.986-0.602 0.654-0.942 1.66-0.331 0.994-0.331 2.3 0 1.37 0.366 2.35 0.375 0.986 0.959 1.6 0.611 0.645 1.42 0.959 0.82 0.305 1.73 0.305 1.25 0 2.34-0.427t2.04-1.28h0.122v2.02z"/>
    <path d="m263 1.38e3q0.794 0.872 1.21 2.14 0.427 1.26 0.427 2.87 0 1.6-0.436 2.88-0.427 1.26-1.2 2.11-0.802 0.881-1.9 1.33-1.09 0.445-2.49 0.445-1.37 0-2.49-0.454t-1.9-1.32q-0.785-0.864-1.21-2.12-0.419-1.26-0.419-2.87 0-1.59 0.419-2.84 0.419-1.26 1.22-2.16 0.768-0.855 1.9-1.31 1.14-0.454 2.49-0.454 1.4 0 2.5 0.462 1.12 0.454 1.89 1.3zm-0.157 5.01q0-2.53-1.13-3.9-1.13-1.38-3.1-1.38-1.98 0-3.11 1.38-1.13 1.37-1.13 3.9 0 2.56 1.15 3.92 1.15 1.35 3.09 1.35t3.08-1.35q1.15-1.36 1.15-3.92z"/>
    <path d="m277 1.38e3h-4.64v11.5h-1.73v-11.5h-4.64v-1.54h11v1.54z"/>
    <path d="m287 1.38e3h-4.64v11.5h-1.73v-11.5h-4.64v-1.54h11v1.54z"/>
    <path d="m298 1.4e3h-1.84l-1.27-3.62h-5.62l-1.27 3.62h-1.75l4.73-13h2.3l4.73 13zm-3.65-5.1-2.28-6.38-2.29 6.38h4.56z"/>
    <path d="m311 1.39e3q-1.06 0.488-2.33 0.855-1.26 0.358-2.43 0.358-1.52 0-2.78-0.419t-2.15-1.26q-0.898-0.846-1.39-2.11-0.488-1.27-0.488-2.97 0-3.11 1.81-4.91 1.82-1.81 5-1.81 1.11 0 2.26 0.27 1.16 0.262 2.49 0.898v2.05h-0.157q-0.27-0.209-0.785-0.55-0.515-0.34-1.01-0.567-0.602-0.27-1.37-0.445-0.759-0.183-1.73-0.183-2.18 0-3.45 1.4-1.26 1.4-1.26 3.79 0 2.52 1.33 3.92t3.61 1.4q0.837 0 1.67-0.166 0.837-0.166 1.47-0.427v-3.18h-3.48v-1.52h5.19v5.57z"/>
    <path d="m322 1.4e3h-8.56v-13h8.56v1.54h-6.83v3.56h6.83v1.54h-6.83v4.82h6.83v1.54z"/>
    <path d="m335 1.39e3q0 0.759-0.358 1.5-0.349 0.741-0.986 1.26-0.698 0.558-1.63 0.872-0.924 0.314-2.23 0.314-1.4 0-2.53-0.262-1.12-0.262-2.28-0.776v-2.16h0.122q0.986 0.82 2.28 1.26 1.29 0.445 2.42 0.445 1.6 0 2.49-0.602 0.898-0.602 0.898-1.6 0-0.864-0.427-1.27-0.419-0.41-1.28-0.637-0.654-0.174-1.42-0.288-0.759-0.113-1.61-0.288-1.73-0.366-2.56-1.25-0.829-0.89-0.829-2.31 0-1.63 1.38-2.67 1.38-1.05 3.5-1.05 1.37 0 2.51 0.262t2.02 0.645v2.04h-0.122q-0.741-0.628-1.95-1.04-1.2-0.419-2.47-0.419-1.39 0-2.23 0.576-0.837 0.576-0.837 1.48 0 0.811 0.419 1.27 0.419 0.462 1.47 0.706 0.558 0.122 1.59 0.296t1.74 0.358q1.45 0.384 2.18 1.16 0.733 0.776 0.733 2.17z"/>
   </g>
  </g>
  <g fill-rule="evenodd" transform="matrix(1.8 0 0 .475 -33.6 563)">
   <path d="m18.9 953c0.0192 4.14-0.0068 78.1-0.0068 78.1l189 0.929c-43-48-189-81-189-77z" fill="#84c475"/>
   <path d="m279 981c0.494 4.4-0.199 51.6-0.199 51.6-118-1.07-135-0.508-135-0.508 31.1-32.7 134-55.5 135-51.1z" fill="#a6c475"/>
  </g>
  <g fill="#dfb435" transform="matrix(.489 .0631 -.0631 .489 279 549)">
   <ellipse rx="5.63" transform="rotate(16.7)" ry="12.1" cy="796" cx="466"/>
   <path d="m192 987c-5.65 14.6-17.7 3.42 30-108l2.31-7.67c-0.004-0.003 9.29-33.6-32.3 115z" fill-rule="evenodd"/>
  </g>
  <g transform="matrix(.0288 0 0 .0288 171 1.02e3)">
   <g transform="matrix(1.15 0 0 .877 -3.2 2.28)">
    <g stroke="#000" fill-rule="evenodd">
     <path d="m318 427c61-83-191-367-72-407 93-18.1 324 213 349 295 19 72-145 177 20 80 66-35 165 303 69 355-75 45-157-103-231-121" stroke-width=".946px" fill="#f175ff"/>
     <path d="m339 451c57-67-148-398-90-413 69.1-13 321 213 331 274-4.55 101-152 205 17.4 118 79.9-42.4 143 254 72 292-56.1 33.8-159-107-214-120" stroke-width=".705px" fill="#90a"/>
     <path d="m354 468c57-59-142-402-89-413 48-16.8 314 223 298 266-25 103-147 200 24 137 64-18 130 228 74 246-40 22-152-119-209-109" stroke-width=".537px" fill="#6a00ff"/>
    </g>
    <ellipse rx="29.3" transform="matrix(.724 -.608 .599 .734 242 431)" ry="31.3" cy="417" cx="181" fill="#00b7ff"/>
    <ellipse rx="29.3" transform="matrix(.724 -.608 .599 .734 -48.7 -62.6)" ry="31.3" cy="417" cx="181" fill="#00b7ff"/>
    <path d="m-336 176c-46.6-55.1-9.8-147 25.4-196" transform="matrix(-.0694 1.3 -1.02 -.474 186 748)" stroke="#000" stroke-width="1px" fill="none"/>
    <path d="m-336 176c-46.6-55.1-9.8-147 25.4-196" transform="matrix(-.312 1.26 -.907 -.661 119 742)" stroke="#000" stroke-width="1px" fill="none"/>
    <ellipse rx="10.6" transform="matrix(.724 -.608 .599 .734 -350 34.6)" ry="8.74" cy="417" cx="181" fill="#00b7ff"/>
    <ellipse rx="10.6" transform="matrix(.724 -.608 .599 .734 -318 6.05)" ry="8.74" cy="417" cx="181" fill="#00b7ff"/>
    <path d="m326 411c-76-130-188-40-75 61 286 328 333 272 75-61z" fill-rule="evenodd" fill="url(#radialGradient3539)"/>
   </g>
  </g>
  <g transform="matrix(-.102 0 0 .102 399 957)">
   <g fill="#71c837" transform="matrix(1.73 -.397 .397 1.73 858 -930)">
    <path d="m-226 1e3c5.16-17.4 8.58-35.4 8.64-53.7 0.222-7.55 0.266-15.1-0.0134-22.6 2.32 15.9 2.32 32 0.97 48-1.14 10-4.82 19.5-9.6 28.3z"/>
    <path d="m-226 1e3c-4.36-27.3-12-28.2-10.3-138-2.4 18.1-3.41 74.2-1.53 90.6 2.53 22.1 4.83 32.7 11.8 47.2z"/>
    <path style="color:#000000;block-progression:tb;text-transform:none;text-indent:0" d="m-223 870a0.5 0.5 0 0 0 -0.375 0.406c-1.41 6.68-2.29 18.8-2.81 33.4-0.522 14.6-0.688 31.5-0.688 47.6 0.00052 16.1 0.169 31.3 0.344 42.6 0.0872 5.62 0.185 10.3 0.25 13.5 0.0327 1.61 0.0746 2.83 0.0937 3.69 0.01 0.426-0.005 0.749 0 0.969s0 0.344 0 0.344a0.5 0.5 0 1 0 0.875 -0.344c0.0325-0.014 0.126 0.034 0.125 0-0.005-0.219 0.01-0.543 0-0.969-0.0191-0.852-0.0611-2.11-0.0937-3.72-0.0654-3.21-0.163-7.82-0.25-13.4-0.174-11.2-0.343-26.5-0.344-42.6-0.00052-16.1 0.167-33 0.688-47.6 0.521-14.5 1.41-26.7 2.78-33.2a0.5 0.5 0 0 0 -0.594 -0.594z"/>
    <path d="m-225 912s-2.55-18.6-9.23-28.2c-6.68-9.55-10.4-10.8-10.4-10.8s6.48 5.14 12.2 16.9c5.7 11.8 7.46 22 7.46 22z"/>
    <path style="color:#000000;block-progression:tb;text-transform:none;text-indent:0" d="m-216 905a0.5 0.5 0 0 0 -0.137 0.142l-1.55 2.43c-0.29 0.453-0.516 1.22-0.865 2.39s-0.77 2.71-1.22 4.48c-0.896 3.54-1.93 7.99-2.93 12.4-2 8.81-3.81 17.3-3.81 17.3a0.5 0.5 0 0 0 0.982 0.192s1.8-8.49 3.79-17.3c0.997-4.4 2.04-8.88 2.93-12.4 0.446-1.76 0.863-3.29 1.2-4.44 0.342-1.15 0.66-1.97 0.758-2.12l1.55-2.43a0.5 0.5 0 0 0 -0.711 -0.686z"/>
    <path d="m-225 943s0.266-13.8 12.8-27.4 20.7-18.8 20.7-18.8-13.4 10.8-23 24.4c-9.58 13.6-10.5 21.7-10.5 21.7z"/>
    <g transform="matrix(-.623 -.0665 -.0665 .623 -300 315)">
     <path transform="translate(2.68 853)" d="m-218 10.2a0.982 2.59 0 1 1 -1.96 0 0.982 2.59 0 1 1 1.96 0z"/>
     <path transform="matrix(.994 -.107 .107 .994 -2.67 818)" d="m-218 10.2a0.982 2.59 0 1 1 -1.96 0 0.982 2.59 0 1 1 1.96 0z"/>
     <path transform="translate(-2.86 851)" d="m-218 10.2a0.982 2.59 0 1 1 -1.96 0 0.982 2.59 0 1 1 1.96 0z"/>
     <path transform="translate(-1.64 836)" d="m-218 10.2a0.982 2.59 0 1 1 -1.96 0 0.982 2.59 0 1 1 1.96 0z"/>
     <path transform="matrix(.983 -.182 .182 .983 -10.9 789)" d="m-218 10.2a0.982 2.59 0 1 1 -1.96 0 0.982 2.59 0 1 1 1.96 0z"/>
     <path d="m-218 841c0.0357 0.77 0.008 1.59-0.355 2.28-0.131 0.322-0.569 0.501-0.828 0.212-0.398-0.414-0.556-0.993-0.674-1.54-0.158-0.913-0.19-1.88 0.1-2.77 0.105-0.296 0.275-0.68 0.634-0.706 0.415 0.0425 0.612 0.48 0.762 0.816 0.222 0.541 0.319 1.13 0.36 1.71z"/>
     <path transform="translate(-.446 855)" d="m-218 10.2a0.982 2.59 0 1 1 -1.96 0 0.982 2.59 0 1 1 1.96 0z"/>
     <path transform="matrix(.994 -.107 .107 .994 -4.05 822)" d="m-218 10.2a0.982 2.59 0 1 1 -1.96 0 0.982 2.59 0 1 1 1.96 0z"/>
     <path transform="translate(-4.41 835)" d="m-218 10.2a0.982 2.59 0 1 1 -1.96 0 0.982 2.59 0 1 1 1.96 0z"/>
     <path transform="matrix(.998 -.0636 .0636 .998 -2.92 816)" d="m-218 10.2a0.982 2.59 0 1 1 -1.96 0 0.982 2.59 0 1 1 1.96 0z"/>
     <path transform="matrix(.994 -.107 .107 .994 -.0223 821)" d="m-218 10.2a0.982 2.59 0 1 1 -1.96 0 0.982 2.59 0 1 1 1.96 0z"/>
     <path transform="matrix(.994 -.107 .107 .994 -5.79 817)" d="m-218 10.2a0.982 2.59 0 1 1 -1.96 0 0.982 2.59 0 1 1 1.96 0z"/>
     <path transform="translate(1.79 837)" d="m-218 10.2a0.982 2.59 0 1 1 -1.96 0 0.982 2.59 0 1 1 1.96 0z"/>
     <path transform="translate(3.89e-8 849)" d="m-218 10.2a0.982 2.59 0 1 1 -1.96 0 0.982 2.59 0 1 1 1.96 0z"/>
     <path d="m-219 833c0.182 0.749 0.311 1.55 0.0884 2.31-0.0669 0.341-0.462 0.6-0.772 0.366-0.47-0.33-0.736-0.869-0.956-1.38-0.33-0.866-0.546-1.81-0.432-2.74 0.0469-0.31 0.14-0.72 0.487-0.815 0.415-0.0377 0.692 0.354 0.904 0.655 0.322 0.489 0.528 1.04 0.68 1.61z"/>
     <path d="m-222 835c0.167 0.753 0.28 1.56 0.0419 2.31-0.0737 0.339-0.474 0.591-0.779 0.35-0.463-0.34-0.718-0.883-0.928-1.4-0.312-0.873-0.51-1.82-0.376-2.74 0.0531-0.309 0.154-0.717 0.504-0.805 0.416-0.0293 0.685 0.368 0.891 0.673 0.312 0.495 0.507 1.05 0.648 1.62z"/>
     <path d="m-223 830c0.167 0.753 0.28 1.56 0.0419 2.31-0.0737 0.339-0.474 0.591-0.779 0.35-0.463-0.34-0.718-0.883-0.928-1.4-0.312-0.873-0.51-1.82-0.376-2.74 0.0531-0.309 0.154-0.717 0.504-0.805 0.416-0.0293 0.685 0.368 0.891 0.673 0.312 0.495 0.507 1.05 0.648 1.62z"/>
    </g>
    <g transform="matrix(-.393 -.223 -.223 .393 -108 514)">
     <path transform="translate(2.68 853)" d="m-218 10.2a0.982 2.59 0 1 1 -1.96 0 0.982 2.59 0 1 1 1.96 0z"/>
     <path transform="matrix(.994 -.107 .107 .994 -2.67 818)" d="m-218 10.2a0.982 2.59 0 1 1 -1.96 0 0.982 2.59 0 1 1 1.96 0z"/>
     <path transform="translate(-2.86 851)" d="m-218 10.2a0.982 2.59 0 1 1 -1.96 0 0.982 2.59 0 1 1 1.96 0z"/>
     <path transform="translate(-1.64 836)" d="m-218 10.2a0.982 2.59 0 1 1 -1.96 0 0.982 2.59 0 1 1 1.96 0z"/>
     <path transform="matrix(.983 -.182 .182 .983 -10.9 789)" d="m-218 10.2a0.982 2.59 0 1 1 -1.96 0 0.982 2.59 0 1 1 1.96 0z"/>
     <path d="m-218 841c0.0357 0.77 0.008 1.59-0.355 2.28-0.131 0.322-0.569 0.501-0.828 0.212-0.398-0.414-0.556-0.993-0.674-1.54-0.158-0.913-0.19-1.88 0.1-2.77 0.105-0.296 0.275-0.68 0.634-0.706 0.415 0.0425 0.612 0.48 0.762 0.816 0.222 0.541 0.319 1.13 0.36 1.71z"/>
     <path transform="translate(-.446 855)" d="m-218 10.2a0.982 2.59 0 1 1 -1.96 0 0.982 2.59 0 1 1 1.96 0z"/>
     <path transform="matrix(.994 -.107 .107 .994 -4.05 822)" d="m-218 10.2a0.982 2.59 0 1 1 -1.96 0 0.982 2.59 0 1 1 1.96 0z"/>
     <path transform="translate(-4.41 835)" d="m-218 10.2a0.982 2.59 0 1 1 -1.96 0 0.982 2.59 0 1 1 1.96 0z"/>
     <path transform="matrix(.998 -.0636 .0636 .998 -2.92 816)" d="m-218 10.2a0.982 2.59 0 1 1 -1.96 0 0.982 2.59 0 1 1 1.96 0z"/>
     <path transform="matrix(.994 -.107 .107 .994 -.0223 821)" d="m-218 10.2a0.982 2.59 0 1 1 -1.96 0 0.982 2.59 0 1 1 1.96 0z"/>
     <path transform="matrix(.994 -.107 .107 .994 -5.79 817)" d="m-218 10.2a0.982 2.59 0 1 1 -1.96 0 0.982 2.59 0 1 1 1.96 0z"/>
     <path transform="translate(1.79 837)" d="m-218 10.2a0.982 2.59 0 1 1 -1.96 0 0.982 2.59 0 1 1 1.96 0z"/>
     <path transform="translate(3.89e-8 849)" d="m-218 10.2a0.982 2.59 0 1 1 -1.96 0 0.982 2.59 0 1 1 1.96 0z"/>
     <path d="m-219 833c0.182 0.749 0.311 1.55 0.0884 2.31-0.0669 0.341-0.462 0.6-0.772 0.366-0.47-0.33-0.736-0.869-0.956-1.38-0.33-0.866-0.546-1.81-0.432-2.74 0.0469-0.31 0.14-0.72 0.487-0.815 0.415-0.0377 0.692 0.354 0.904 0.655 0.322 0.489 0.528 1.04 0.68 1.61z"/>
     <path d="m-222 835c0.167 0.753 0.28 1.56 0.0419 2.31-0.0737 0.339-0.474 0.591-0.779 0.35-0.463-0.34-0.718-0.883-0.928-1.4-0.312-0.873-0.51-1.82-0.376-2.74 0.0531-0.309 0.154-0.717 0.504-0.805 0.416-0.0293 0.685 0.368 0.891 0.673 0.312 0.495 0.507 1.05 0.648 1.62z"/>
     <path d="m-223 830c0.167 0.753 0.28 1.56 0.0419 2.31-0.0737 0.339-0.474 0.591-0.779 0.35-0.463-0.34-0.718-0.883-0.928-1.4-0.312-0.873-0.51-1.82-0.376-2.74 0.0531-0.309 0.154-0.717 0.504-0.805 0.416-0.0293 0.685 0.368 0.891 0.673 0.312 0.495 0.507 1.05 0.648 1.62z"/>
    </g>
    <path d="m-195 882c0.003 0.199-0.125 0.39-0.308 0.465-0.18 0.0786-0.404 0.0379-0.545-0.0998-0.143-0.132-0.195-0.351-0.128-0.533 0.0643-0.189 0.25-0.329 0.451-0.337 0.195-0.0126 0.389 0.1 0.476 0.274 0.0364 0.0708 0.0554 0.15 0.0553 0.23z"/>
    <path d="m-193 886c0.004 0.256-0.161 0.502-0.397 0.599-0.232 0.101-0.521 0.0488-0.702-0.128-0.184-0.171-0.25-0.451-0.165-0.687 0.0828-0.244 0.322-0.424 0.58-0.433 0.25-0.0162 0.501 0.129 0.612 0.353 0.0469 0.0911 0.0713 0.194 0.0712 0.296z"/>
    <path d="m-204 847c0.003 0.199-0.125 0.39-0.308 0.465-0.18 0.0786-0.404 0.0379-0.545-0.0998-0.143-0.132-0.195-0.351-0.128-0.533 0.0643-0.189 0.25-0.329 0.451-0.337 0.195-0.0126 0.389 0.1 0.476 0.274 0.0364 0.0708 0.0554 0.15 0.0553 0.23z"/>
    <path d="m-228 860c0.004 0.256-0.161 0.502-0.397 0.599-0.232 0.101-0.521 0.0488-0.702-0.128-0.184-0.171-0.25-0.451-0.165-0.687 0.0828-0.244 0.322-0.424 0.58-0.433 0.25-0.0162 0.501 0.129 0.612 0.353 0.0469 0.0911 0.0713 0.194 0.0712 0.296z"/>
   </g>
  </g>
  <g fill-rule="evenodd" transform="matrix(.568 0 0 .568 97.5 506)">
   <path style="color:#000000" fill="#008000" d="m373 951 0.585-0.408c-1.68-2.35-2.89-5.04-3.53-7.87-0.894-3.91-0.696-8.08 0.579-11.9 1.28-3.83 3.63-7.31 6.72-9.94-3.15 2.56-5.6 6-6.97 9.85s-1.67 8.08-0.844 12.1c0.6 2.91 1.78 5.7 3.46 8.17z"/>
   <path style="color:#000000" d="m373 951 0.668-0.249c-1.82-4.76-4.91-9.02-8.85-12.2-3.6-2.91-7.92-4.89-12.4-5.81-4.51-0.923-9.24-0.802-13.7 0.455 4.43-1.18 9.15-1.22 13.6-0.23 0.00001 0.00001 0.00002 0 0.00002 0 4.46 0.991 8.7 3.01 12.2 5.94 3.83 3.21 6.78 7.43 8.47 12.1z" fill="#008000"/>
   <path style="color:#000000" fill="#006400" d="m373 951 0.593-0.397c-2.98-4.36-4.74-9.58-4.99-14.9-0.258-5.31 0.982-10.7 3.55-15.4 1.46-2.67 3.35-5.1 5.57-7.19-2.26 2.05-4.19 4.46-5.71 7.12-2.66 4.66-4.02 10.1-3.85 15.5 0.169 5.39 1.86 10.7 4.84 15.3z"/>
   <path style="color:#000000" fill="#008000" d="m373 951 0.573-0.425c-3.66-4.86-7.99-9.21-12.8-12.9-4.81-3.7-10.1-6.76-15.7-9.03-2.06-0.836-4.17-1.57-6.35-2.06-1.65-0.368-3.34-0.59-5.02-0.662 1.69 0.0972 3.37 0.344 5.01 0.735 2.16 0.515 4.25 1.28 6.3 2.14 5.57 2.35 10.8 5.47 15.5 9.22 4.73 3.75 8.95 8.13 12.5 13z"/>
   <path style="color:#000000" d="m372 951 0.674-0.232c-0.261-0.733-0.636-1.42-1.11-2.04-0.782-1.02-1.8-1.81-2.89-2.43-1.09-0.621-2.25-1.08-3.4-1.51-7.84-2.91-16.1-4.56-24.5-4.87 8.32 0.488 16.5 2.31 24.3 5.35 1.14 0.449 2.26 0.921 3.28 1.54 1.03 0.617 1.97 1.38 2.66 2.32 0.417 0.569 0.745 1.2 0.967 1.87z" fill="#006400"/>
   <path style="color:#000000" fill="#008000" d="m372 951 0.698-0.146c-1.87-8.47-1.67-17.4 0.593-25.8 0.363-1.35 0.784-2.69 1.36-3.96 0.572-1.26 1.31-2.46 2.26-3.46 0.435-0.454 0.914-0.868 1.43-1.23-0.522 0.354-1.01 0.758-1.46 1.21-0.981 0.986-1.74 2.18-2.35 3.43-0.607 1.27-1.06 2.61-1.45 3.96-2.43 8.41-2.82 17.4-1.1 26z"/>
   <path style="color:#000000" fill="#006400" d="m372 951 0.694-0.164c-1.27-5.14-3.85-9.94-7.42-13.8-3.57-3.87-8.13-6.82-13.1-8.48-2.17-0.725-4.42-1.21-6.7-1.44 2.27 0.276 4.51 0.802 6.66 1.56 4.92 1.75 9.38 4.75 12.8 8.64 3.45 3.89 5.9 8.65 7.04 13.7z"/>
   <path style="color:#000000" d="m373 951 0.67-0.244c-0.432-1.14-0.707-2.35-0.814-3.57-0.183-2.08 0.155-4.21 0.934-6.16s2-3.74 3.59-5.14c1.58-1.4 3.52-2.41 5.57-2.95 2.06-0.543 4.25-0.624 6.34-0.181-2.08-0.494-4.29-0.468-6.38 0.0299s-4.08 1.47-5.74 2.87c-1.65 1.4-2.96 3.2-3.81 5.2-0.854 2-1.26 4.2-1.12 6.39 0.081 1.28 0.338 2.55 0.764 3.77z" fill="#006400"/>
   <path style="color:#000000" fill="#008000" d="m372 951 0.616-0.359c-1.4-2.32-3.55-4.17-6.03-5.2s-5.28-1.25-7.86-0.624c-2.53 0.614-4.85 2.03-6.54 3.98 1.75-1.9 4.09-3.23 6.59-3.76 2.55-0.538 5.27-0.237 7.62 0.83s4.35 2.9 5.6 5.13z"/>
   <path style="color:#000000" fill="#006400" d="m348 927c-0.0289 0.178-0.546 0.727-1.17 0.327-0.781-0.498-1.95-0.953-1.95-0.946 0 0 1.18-0.273 2.04-0.102 0.862 0.171 1.14 0.358 1.09 0.721z"/>
   <g fill="#008000">
    <path style="color:#000000" d="m340 933c0.0722 0.166-0.195 0.953-1.15 1.03-1.19 0.0978-2.8 0.483-2.8 0.49 0 0 1.19-0.989 2.28-1.41 1.09-0.42 1.53-0.449 1.67-0.112z"/>
    <path style="color:#000000" d="m376 922c-0.165-0.073-0.629-0.587-0.188-0.89 0.55-0.378 1.1-1.03 1.09-1.03 0 0 0.136 0.876-0.114 1.41-0.25 0.531-0.456 0.665-0.792 0.517z"/>
    <path style="color:#000000" d="m377 919c-0.093-0.043-0.252-0.248-0.308-0.514-0.0555-0.266-0.006-0.592 0.317-0.868 0.241-0.205 0.492-0.446 0.729-0.681 0.122-0.124 0.241-0.242 0.332-0.364 0.0919-0.122 0.157-0.246 0.191-0.369 0.0429-0.152 0.0394-0.298 0.0266-0.402s-0.0325-0.166-0.034-0.166c0 0 0.0476 0.0616 0.111 0.175 0.064 0.113 0.143 0.281 0.182 0.482 0.0294 0.16 0.033 0.336 0.0101 0.511s-0.0717 0.349-0.127 0.508c-0.0832 0.257-0.184 0.515-0.307 0.742-0.236 0.433-0.419 0.714-0.594 0.864s-0.34 0.17-0.53 0.0819z"/>
    <path style="color:#000000" d="m353 948c0.139 0.115 0.409 0.778-0.163 1.02-0.713 0.306-1.53 0.916-1.53 0.921 0 0 0.21-0.998 0.677-1.53 0.467-0.537 0.731-0.644 1.01-0.41z"/>
   </g>
  </g>
  <g fill="#7e3ca0" transform="scale(1.47 .682)">
   <path d="m25.4 1.47e3q-1.8 2.86-3.33 6.37-1.53 3.48-1.7 4.7-0.116 0.832-0.658 1.08-0.542 0.252-2.07 0.252-0.426 0-0.794-0.348-0.348-0.348-0.91-1.49-0.677-0.619-4.49-6.62-1.32-2.07-1.78-2.77 0.0387 0.464 0.0968 1.55 0.368 6.19 0.91 8.79 0.619 3 0.619 3.93 0 0.678-0.677 1.1-0.658 0.406-1.45 0.406-1.84 0-2.15-1.72-0.31-1.74-0.658-7.76-0.329-6.02-0.329-9.21 0-0.542-0.194-1.26-0.0968-0.406-0.0968-0.581 0-0.097 0.0194-0.194 0.0387-0.542 0.542-1.03 0.91-0.91 1.14-1.26 0.348-0.523 0.929-0.523 0.348 0 0.619 0.077t0.465 0.252q0.213 0.155 1.12 1.76 5.75 10.3 7.74 11.9 0.348-1.26 3.85-7.78 2.01-3.76 2.36-4.57 0.368-0.832 1.2-1.35 0.832-0.542 1.82-0.542 0.987 0 1.57 1.32 0.581 1.32 0.581 3.48 0 3.17 1.16 10.1 0.774 4.55 0.774 5.94 0 0.6-0.581 0.987-0.561 0.387-1.35 0.387-0.581 0-1.18-0.348-0.581-0.368-0.852-0.89-0.368-0.697-0.948-6.04-0.736-6.48-1.32-8.05z"/>
   <path d="m48 1.48e3q0 1.28-4.16 4.43-0.135 0.097-0.581 0.445-3.54 2.85-4.37 2.85-1.68 0-2.81-2.01-1.12-2.01-1.12-4.49v-0.678q-0.29 0.116-0.794 0.116-0.252 0-0.503-0.368-0.252-0.387-0.252-0.736 0-0.774 0.252-1.12 0.271-0.368 1.22-0.774 0-2.11 0.465-3.95 0.484-1.86 1.32-3.12 0.832-1.26 1.47-1.26 1.78 0 3.43 0.639t2.77 1.72q1.14 1.08 1.14 1.95 0 1.03-0.213 1.51-0.194 0.484-0.677 0.91-0.465 0.406-2.94 1.76-2.44 1.35-2.79 1.65v0.948q0 1.35 0.406 2.36t0.89 1.01q0.832 0 3.04-2.3 1.78-1.84 2.36-2.26 0.581-0.426 1.06-0.426 1.39 0 1.39 1.2zm-8.17-7.26q-0.348 0-0.716 1.32-0.368 1.3-0.368 2.21 0.29-0.155 1.22-0.581 1.57-0.716 1.92-0.968 0-0.658-0.619-1.32-0.619-0.658-1.43-0.658z"/>
   <path d="m49 1.48e3q0-3.39 4.22-6.76 0.523-0.426 1.47-1.18 0.968-0.755 1.92-1.47 0.948-0.736 1.43-0.813-0.194-1.22-0.716-1.94-0.523-0.716-1.3-0.716-0.755 0-1.78 0.484-1.01 0.465-1.55 1.01-0.755 0.755-1.05 0.755-0.6 0-1.2-0.503-0.581-0.503-0.581-1.16 0-0.91 1.3-1.63 1.3-0.716 3.1-1.34 1.8-0.639 2.63-0.639 1.88 0 3.1 1.49 1.24 1.47 2.01 4.45 0.755 2.42 0.755 6.7 0 1.9-0.387 3.7-0.232 1.1-0.503 1.32-0.252 0.194-0.755 0.329-0.484 0.136-0.852 0.136-0.89 0-1.45-0.387-0.542-0.406-0.542-1.12l0.135-1.24q-1.08 1.26-2.86 2.03-1.78 0.755-3.45 0.755-3.1 0-3.1-2.26zm9.41-7.49q-5.21 3.33-5.21 5.9 0 0.91 0.987 0.91 1.39 0 2.9-1.47 0.329-0.31 0.852-0.6t0.581-0.29q0 0.019 0 0.019 0-2.96-0.116-4.47z"/>
   <path d="m79.8 1.46e3q0 3.58 0.174 8.4 0.135 3.62 0.426 5.67 0.29 2.03 1.14 6.66 0.716 3.87 0.716 4.37 0 1.01-0.484 1.35-0.465 0.348-1.55 0.348-0.89 0-1.34-0.271-0.445-0.252-0.542-0.755-0.0387-0.213-0.155-0.929-0.116-0.736-0.368-2.17-0.155 0.987-1.65 1.57-1.47 0.561-3.6 0.561-3.17 0-5.13-1.63-1.95-1.65-1.95-3.87 0-4.41 3.85-7.68 1.59-1.34 3.62-2.28 2.03-0.968 2.86-0.968-0.0387-0.445-0.348-2.88-0.561-4.66-0.561-5.09 0-0.832 0.716-1.37 0.736-0.561 2.01-0.561 2.15 0 2.15 1.53zm-3.5 13.6q-0.116-1.61-0.271-2.5-0.387 0.6-1.34 0.755-0.135 0.019-0.194 0.039-2.26 0.968-3.17 2.55-0.91 1.59-0.91 4.18 0 1.43 0.852 2.55t2.19 1.12q1.05 0 1.76-0.387 0.716-0.406 1.3-1.47 0.116-0.387 0.523-0.503-0.581-4.32-0.736-6.35z"/>
   <path d="m83.5 1.48e3q0-2.67 1.3-5.52 1.32-2.86 3.21-4.36 0.174-0.116 0.368-0.426 0.368-0.6 1.03-0.6 0.503 0 1.12 0.213 0.6 0.194 1.05 0.194 1.41 0 3.02 1.16 1.63 1.14 2.5 3 0.871 1.84 0.871 4.16 0 2.54-1.14 4.68-1.14 2.15-3.15 3.5-1.99 1.35-3.91 1.35-2.92 0-4.59-1.92-1.66-1.94-1.66-5.46zm6.77 4.41q1.2 0 2.28-1.76t1.08-3.99q0-2.3-0.813-4.3-0.813-2.01-1.68-2.01-0.987 0-2.07 2.4-1.06 2.38-1.06 5.01 0 2.19 0.6 3.43 0.619 1.22 1.66 1.22z"/>
   <path d="m109 1.48e3q-0.445 1.26-1.76 5.5-0.29 0.948-0.484 1.14-0.174 0.174-0.445 0.329-0.581 0.29-1.28 0.29-0.542 0-1.12-0.813-0.581-0.832-0.677-1.53-0.0774-0.542-1.47-3.93-3.15-7.7-3.15-9.74 0-0.658 0.755-1.14 0.774-0.484 1.66-0.484 1.97 0 2.42 3.25 0.155 1.2 0.929 4.06 0.774 2.85 1.34 4.22 0.465-1.78 0.755-5.63 0.0774-0.89 0.639-1.66 0.581-0.794 1.34-0.794 1.18 0 1.59 2.57 0.116 0.736 1.86 3.33 0.484 0.697 0.639 0.948 0.155-0.716 0.155-2.21 0-0.948-0.31-3.35-0.252-1.9-0.252-2.48 0-0.852 0.619-1.37 0.639-0.542 1.49-0.542 0.697 0 1.26 0.871 0.561 0.852 0.561 2.03 0 0.813-0.194 3.58-0.194 3-0.194 3.95 0 1.12 0.0581 3.06 0.0194 0.929 0.0194 1.18 0 0.503-0.465 0.852-0.445 0.329-1.08 0.329-0.89 0-1.66-0.774-0.465-0.755-1.88-2.67-1.32-1.8-1.65-2.38z"/>
   <path d="m154 1.47e3q0 0.561-0.232 2.69-0.329 2.98-0.329 5.44 0 0.929 0.31 2.65 0.174 1.03 0.174 1.35 0 0.523-0.465 0.91t-0.968 0.387q-1.08 0-1.55-0.929-0.465-0.929-0.465-3.15 0-1.34 0.194-3.33-3.74 3.45-7.51 5.34-3.77 1.88-6.91 1.88-2.69 0-4.3-1.88-1.59-1.88-1.59-4.9 0-2.71 1.22-6.17 1.22-3.48 3.39-7.1 1.45-2.4 3.02-4.34 1.59-1.94 2.77-2.59 1.2-0.677 1.92-0.677 0.639 0 1.06 0.387 0.426 0.387 0.755 2.07 0.0387 0.136 0.0774 0.406 0.155 0.736 0.155 0.89 0 0.368-0.174 0.658-0.155 0.29-0.426 0.29-0.445 0-0.852-0.135-0.465-0.136-0.581-0.136-0.755 0-1.65 0.948-0.871 0.929-1.72 2.11-0.852 1.18-1.57 2.48-3.14 5.54-3.14 11.2 0 1.74 0.716 2.69 0.736 0.929 2.05 0.929 2.13 0 6.06-2.34 3.95-2.36 6.23-5.11-0.31 0-1.06 0.29-0.716 0.271-1.28 0.426-0.503 0.174-1.28 0.503-1.08 0.445-1.7 0.445-0.658 0-1.16-0.581-0.503-0.581-0.503-1.18 0-0.581 0.445-1.16 0.445-0.581 0.987-0.581 0.91 0 4.28-0.89 4.55-1.2 4.8-1.2 0.271 0 0.523 0.329 0.271 0.31 0.271 0.697z"/>
   <path d="m168 1.47e3q0 0.639-0.503 1.26-0.503 0.6-1.03 0.6-1.86 0-1.99-0.948-0.135-0.987-0.406-1.35-0.271-0.387-0.813-0.387-0.968 0-3.33 3.14 0.0968 1.35 0.465 3.91 0.368 2.55 0.813 4.32 0.348 1.34 0.348 1.8 0 0.542-0.736 0.948-0.716 0.387-1.37 0.387-0.774 0-1.43-0.31-0.639-0.29-0.832-0.716-0.232-0.774-0.542-3.02-0.31-2.26-0.426-3.68-0.0387-0.542-0.368-2.65-0.523-3.45-0.523-4.32 0-1.51 0.503-2.13 0.523-0.639 1.7-0.639 0.89 0 1.45 0.406 0.581 0.387 0.581 0.89 0 0.368-0.0194 1.1-0.0194 0.639-0.0194 0.91 1.28-1.94 2.57-2.81 1.32-0.871 2.94-0.871 2.96 0 2.96 4.16z"/>
   <path d="m183 1.48e3q0 1.28-4.16 4.43-0.135 0.097-0.581 0.445-3.54 2.85-4.37 2.85-1.68 0-2.81-2.01-1.12-2.01-1.12-4.49v-0.678q-0.29 0.116-0.794 0.116-0.252 0-0.503-0.368-0.252-0.387-0.252-0.736 0-0.774 0.252-1.12 0.271-0.368 1.22-0.774 0-2.11 0.465-3.95 0.484-1.86 1.32-3.12 0.832-1.26 1.47-1.26 1.78 0 3.43 0.639t2.77 1.72q1.14 1.08 1.14 1.95 0 1.03-0.213 1.51-0.194 0.484-0.677 0.91-0.465 0.406-2.94 1.76-2.44 1.35-2.79 1.65v0.948q0 1.35 0.406 2.36t0.89 1.01q0.832 0 3.04-2.3 1.78-1.84 2.36-2.26 0.581-0.426 1.06-0.426 1.39 0 1.39 1.2zm-8.17-7.26q-0.348 0-0.716 1.32-0.368 1.3-0.368 2.21 0.29-0.155 1.22-0.581 1.57-0.716 1.92-0.968 0-0.658-0.619-1.32-0.619-0.658-1.43-0.658z"/>
   <path d="m197 1.48e3q0 1.28-4.16 4.43-0.135 0.097-0.581 0.445-3.54 2.85-4.37 2.85-1.68 0-2.81-2.01-1.12-2.01-1.12-4.49v-0.678q-0.29 0.116-0.794 0.116-0.252 0-0.503-0.368-0.252-0.387-0.252-0.736 0-0.774 0.252-1.12 0.271-0.368 1.22-0.774 0-2.11 0.465-3.95 0.484-1.86 1.32-3.12 0.832-1.26 1.47-1.26 1.78 0 3.43 0.639t2.77 1.72q1.14 1.08 1.14 1.95 0 1.03-0.213 1.51-0.194 0.484-0.677 0.91-0.465 0.406-2.94 1.76-2.44 1.35-2.79 1.65v0.948q0 1.35 0.406 2.36t0.89 1.01q0.832 0 3.04-2.3 1.78-1.84 2.36-2.26 0.581-0.426 1.06-0.426 1.39 0 1.39 1.2zm-8.17-7.26q-0.348 0-0.716 1.32-0.368 1.3-0.368 2.21 0.29-0.155 1.22-0.581 1.57-0.716 1.92-0.968 0-0.658-0.619-1.32-0.619-0.658-1.43-0.658z"/>
   <path d="m202 1.47e3q1.24-1.76 2.85-2.71 1.61-0.948 3.29-0.948 1.32 0 2.25 0.871 0.929 0.852 1.39 2.48 0.484 1.61 0.639 7.32 0.0387 0.813 0.155 2.55 0.135 1.68 0.135 2.25 0 0.832-0.774 1.47-0.755 0.639-1.72 0.639-0.987 0-1.65-0.464-0.658-0.465-0.658-1.2 0-0.464 0.0581-2.21 0.0968-2.36 0.0968-3.23 0-0.136 0-0.523 0.0194-0.658 0.0194-1.06 0-5.94-1.49-5.94-0.871 0-2.01 1.01-1.12 0.987-1.74 2.54-0.6 1.55-0.6 3.46 0 0.716 0.368 3.23 0.426 2.83 0.426 3.72 0 0.561-0.542 0.929-0.523 0.368-1.24 0.368-1.66 0-2.26-1.14-0.406-1.1-0.716-4.37-0.135-1.39-0.232-2.09-0.755-6.17-0.755-6.97 0-2.54 2.46-2.54 1.1 0 1.61 0.6 0.523 0.6 0.658 1.97z"/>
   <path d="m238 1.46e3q0-0.677 0.619-1.16 0.639-0.503 1.35-0.503 0.736 0 1.34 0.581 0.6 0.561 0.6 1.43 0 0.484 0.135 2.73 0.271 4.63 0.271 6.6 0 2.86 1.41 9.1 0.329 1.47 0.329 1.65 0 0.987-0.677 1.65-0.677 0.639-1.74 0.639-0.794 0-1.39-0.503-0.581-0.503-0.581-1.28 0-0.561-0.465-4.16-0.581-4.68-0.89-9.68-0.31-4.99-0.31-7.08zm4.32 9.31q0-1.78 1.14-1.78 2.07-0.174 5.44-0.832 1.01-0.271 2.36-0.755 1.06-0.387 1.39-0.387 0.484 0 0.852 0.31 0.387 0.31 0.387 0.677 0 1.39-1.08 1.92-1.06 0.503-3 1.01-1.65 0.445-3.45 0.774-1.8 0.31-2.46 0.31-1.59 0-1.59-1.24zm-0.91-10.7q0-1.32 4.41-2.4 4.43-1.08 7.84-1.08 1.82 0 1.82 1.14 0 1.01-1.18 1.63-1.16 0.6-3.95 0.871-1.65 0.155-4.95 0.91-2.05 0.484-2.44 0.484-1.55 0-1.55-1.55z"/>
   <path d="m255 1.48e3q0-3.39 4.22-6.76 0.523-0.426 1.47-1.18 0.968-0.755 1.92-1.47 0.948-0.736 1.43-0.813-0.194-1.22-0.716-1.94-0.523-0.716-1.3-0.716-0.755 0-1.78 0.484-1.01 0.465-1.55 1.01-0.755 0.755-1.05 0.755-0.6 0-1.2-0.503-0.581-0.503-0.581-1.16 0-0.91 1.3-1.63 1.3-0.716 3.1-1.34 1.8-0.639 2.63-0.639 1.88 0 3.1 1.49 1.24 1.47 2.01 4.45 0.755 2.42 0.755 6.7 0 1.9-0.387 3.7-0.232 1.1-0.503 1.32-0.252 0.194-0.755 0.329-0.484 0.136-0.852 0.136-0.89 0-1.45-0.387-0.542-0.406-0.542-1.12l0.135-1.24q-1.08 1.26-2.86 2.03-1.78 0.755-3.45 0.755-3.1 0-3.1-2.26zm9.41-7.49q-5.21 3.33-5.21 5.9 0 0.91 0.987 0.91 1.39 0 2.9-1.47 0.329-0.31 0.852-0.6t0.581-0.29q0 0.019 0 0.019 0-2.96-0.116-4.47z"/>
   <path d="m285 1.47e3q0 0.639-0.503 1.26-0.503 0.6-1.03 0.6-1.86 0-1.99-0.948-0.135-0.987-0.406-1.35-0.271-0.387-0.813-0.387-0.968 0-3.33 3.14 0.0968 1.35 0.465 3.91 0.368 2.55 0.813 4.32 0.348 1.34 0.348 1.8 0 0.542-0.736 0.948-0.716 0.387-1.37 0.387-0.774 0-1.43-0.31-0.639-0.29-0.832-0.716-0.232-0.774-0.542-3.02-0.31-2.26-0.426-3.68-0.0387-0.542-0.368-2.65-0.523-3.45-0.523-4.32 0-1.51 0.503-2.13 0.523-0.639 1.7-0.639 0.89 0 1.45 0.406 0.581 0.387 0.581 0.89 0 0.368-0.0194 1.1-0.0193 0.639-0.0193 0.91 1.28-1.94 2.57-2.81 1.32-0.871 2.94-0.871 2.96 0 2.96 4.16z"/>
   <path d="m300 1.47e3q0.852-1.14 2.63-1.94 1.8-0.794 3.43-0.794 1.05 0 1.9 1.01 0.852 0.987 1.24 2.61 0.387 1.61 0.523 7.05 0.0194 0.852 0.174 2.65 0.135 1.61 0.135 2.15 0 1.03-0.658 1.65-0.658 0.6-1.84 0.6-2.19 0-2.19-2.09 0-1.26 0.0774-4.8 0.0774-2.96 0.0774-3.85 0-3.91-1.34-3.91-0.871 0-1.59 0.406-0.697 0.387-1.86 1.61 0 0.019 0 0.058 0 0.232 0.116 2.11 0.213 2.98 0.232 3.81 0.0194 0.716 0.0774 2.28 0.0774 1.94 0.0774 2.55 0 2.25-2.36 2.25-1.12 0-1.63-0.368-0.484-0.368-0.484-1.24 0-0.155 0.0387-1.47 0.116-4.92 0.116-6.85 0-2.4-0.465-3.58t-1.2-1.18q-0.987 0-2.26 1.7-1.26 1.68-1.26 3.45 0 2.05 0.736 5.5 0.484 2.23 0.484 3.08 0 0.542-0.755 0.968-0.755 0.406-1.37 0.406-0.794 0-1.41-0.252-0.6-0.271-0.774-0.697-0.523-1.72-0.89-6.62-0.155-2.25-0.716-5.3-0.329-1.86-0.329-2.5 0-0.755 0.755-1.39 0.755-0.639 1.37-0.639 1.39 0 1.92 0.697 0.542 0.677 0.697 2.32 0.91-1.61 2.36-2.69t2.81-1.08q1.16 0 2.09 0.639 0.948 0.639 1.32 1.7z"/>
  </g>
 </g>
</svg>
