<?xml version="1.0" encoding="UTF-8" standalone="no"?>
<svg
   xmlns:dc="http://purl.org/dc/elements/1.1/"
   xmlns:cc="http://creativecommons.org/ns#"
   xmlns:rdf="http://www.w3.org/1999/02/22-rdf-syntax-ns#"
   xmlns:svg="http://www.w3.org/2000/svg"
   xmlns="http://www.w3.org/2000/svg"
   xmlns:sodipodi="http://sodipodi.sourceforge.net/DTD/sodipodi-0.dtd"
   xmlns:inkscape="http://www.inkscape.org/namespaces/inkscape"
   width="463.6062"
   height="32.971867"
   viewBox="0 0 463.6062 32.971867"
   version="1.1"
   id="svg69"
   sodipodi:docname="Banner_v3.svg"
   inkscape:version="0.92.2 (5c3e80d, 2017-08-06)">
  <title
     id="title75">Meadow Green Farm</title>
  <metadata
     id="metadata73">
    <rdf:RDF>
      <cc:Work
         rdf:about="">
        <dc:format>image/svg+xml</dc:format>
        <dc:type
           rdf:resource="http://purl.org/dc/dcmitype/StillImage" />
        <dc:title>Meadow Green Farm</dc:title>
      </cc:Work>
    </rdf:RDF>
  </metadata>
  <sodipodi:namedview
     pagecolor="#ffffff"
     bordercolor="#666666"
     borderopacity="1"
     objecttolerance="10"
     gridtolerance="10"
     guidetolerance="10"
     inkscape:pageopacity="0"
     inkscape:pageshadow="2"
     inkscape:window-width="1920"
     inkscape:window-height="1017"
     id="namedview71"
     showgrid="false"
     inkscape:zoom="3.4327919"
     inkscape:cx="232.41707"
     inkscape:cy="39.64011"
     inkscape:window-x="-8"
     inkscape:window-y="-8"
     inkscape:window-maximized="1"
     inkscape:current-layer="svg69" />
  <defs
     id="defs7">
    <radialGradient
       id="a"
       gradientUnits="userSpaceOnUse"
       cy="588.48999"
       cx="394.14001"
       gradientTransform="matrix(0.724,-0.6078,3.467,4.249,-1901.5,-1689)"
       r="54.528999">
      <stop
         offset="0"
         stop-color="#ac00ff"
         id="stop2" />
      <stop
         offset="1"
         stop-color="#d782ff"
         id="stop4" />
    </radialGradient>
  </defs>
  <g
     id="g13"
     transform="matrix(0.99023727,0,0,0.86941715,-0.26736406,-19.899128)"
     style="fill-rule:evenodd">
    <path
       d="M 0.282,23.052 C 0.317,25.017 0.27,60.155 0.27,60.155 l 339.774,0.44 C 262.75,36.845 0.248,21.088 0.282,23.053 Z"
       id="path9"
       inkscape:connector-curvature="0"
       style="fill:#84c475" />
    <path
       d="m 468.128,36.278 c 0.887,2.09 -0.358,24.534 -0.358,24.534 C 256.263,60.302 225.777,60.57 225.777,60.57 281.57,45.042 467.241,34.187 468.127,36.278 Z"
       id="path11"
       inkscape:connector-curvature="0"
       style="fill:#a6c475" />
  </g>
  <path
     d="m 21.619773,10.56543 0.342,-0.539638 q 4.033,-6.3831546 5.845,-8.299222 0.29,-0.2635119 0.495,-0.4064811 0.205,-0.1562849 0.462,-0.2761267 0.273,-0.11914109 0.7,-0.23968369 1.23,-0.3714395 3.18,-0.3714395 1.008,0 1.264,0.119141 0.273,0.1205426 0.273,0.53963859 0,0.3237831 -0.034,0.693821 -0.137,2.1564519 -0.137,3.0668294 0,2.3001215 0.445,4.3591586 0.29,1.1507614 0.856,2.3365654 0.598,1.053346 1.145,1.616813 0.65,0.622336 1.095,0.909677 0.547,0.383354 0.547,0.587295 0,0.371439 -0.905,1.00569 -1.52,1.030219 -3.042,1.030219 -2.136,0 -3.88,-1.281116 -0.888,-0.623738 -1.418,-1.377831 -0.512,-0.766707 -0.77,-1.880325 -0.255,-1.12413 -0.34,-2.8488715 -0.12,-1.8684111 -0.137,-2.108095 h -0.07 l -1.793,2.419263 q -0.718,0.9692475 -1.18,1.6048995 -0.444,0.634251 -1.06,1.5208 -1.947,2.826445 -2.545,3.413039 -0.034,0.02383 -0.137,0.107928 -0.102,0.0841 -0.188,0.131755 -0.29,0.192028 -0.666,0.299956 -0.36,0.09601 -0.616,0.09601 -0.717,0 -1.59,-0.623738 -0.854,-0.634248 -1.503,-1.628024 -0.665,-1.054047 -1.093,-2.144538 -0.41,-1.100301 -0.735,-2.5986755 -0.306,-1.5088852 -0.545,-3.6765501 h -0.07 q -0.51,0.7905355 -0.768,1.185803 -0.257,0.395268 -0.787,1.2215458 l -0.614,0.9580333 q -0.7,1.0897905 -1.47,2.2041095 -0.7700004,1.114318 -1.2520004,1.712126 -0.463,0.599209 -1.027,1.185803 -0.256,0.275426 -0.906,0.777921 -1.01,0.671394 -2.205,1.054748 -1.197,0.371439 -2.273,0.371439 -0.41,0 -0.718,-0.14367 -0.308,-0.14367 -0.308,-0.371439 0,-0.203241 0.462,-0.539639 0.256,-0.215155 1.11,-1.100302 l 0.992,-1.079277 q 0.923,-0.958034 2.786,-3.436867 l 0.82,-1.0778764 q 2.8700004,-3.8566638 3.8800004,-5.2702367 1.008,-1.424786 1.008,-1.6525555 0,-0.2522986 -0.513,-0.562766 -0.393,-0.2284704 -0.393,-0.3959686 0,-0.26351179 0.99,-0.49058049 0.992,-0.2403845 2.154,-0.2403845 2.343,0 3.334,0.73096499 0.615,0.4555391 1.145,1.7962256 0.53,1.3294733 1.06,3.8685782 0.033,0.1436696 0.05,0.2277693 l 0.034,0.1331577 q 0.017,0.05887 0.017,0.1541825 0.104,0.3363982 0.104,0.4436249 0.358,1.5453285 0.546,2.0001665 0.187,0.4436255 0.546,0.7779215 z m 23.754,2.527191 q 0.787,-0.37144 1.197,-0.74288 0.906,-0.77792 1.402,-1.784311 0.39,-0.6587805 0.613,-1.4731438 0.222,-0.8143636 0.222,-1.5207995 0,-0.6587795 -0.393,-0.6587795 -0.547,0 -1.675,1.6889984 -0.666,1.0176049 -1.093,2.0359104 -0.41,1.007091 -0.41,1.738056 0,0.252299 0.136,0.71835 z m 0.035,0.383354 q 0.188,0.719751 1.333,0.719751 1.282,0 3.333,-1.054047 1.198,-0.609722 1.608,-0.609722 0.513,0 0.957,0.190626 0.445,0.192027 0.445,0.395268 0,0.215154 -0.497,0.562766 -0.906,0.63425 -2.085,1.245373 -1.18,0.597808 -2.273,1.00499 -1.094,0.395267 -2.187,0.634951 -1.094,0.227769 -1.95,0.227769 -2.135,0 -3.417,-0.850806 -1.28,-0.86202 -1.28,-2.286105 0,-1.08979 0.667,-2.455006 0.684,-1.3771295 1.83,-2.5748476 1.35,-1.4016581 3.314,-2.3351632 2.428,-1.125532 4.65,-1.125532 1.606,0 2.51,0.719051 0.925,0.7064358 0.925,1.9525104 0,0.9699478 -0.735,2.0239949 -0.72,1.0540485 -2.137,2.0239965 -1.162,0.814364 -2.29,1.269903 -1.11,0.455539 -1.95,0.455539 -0.375,0 -0.768,-0.133158 z m 21.773,-2.886016 -0.325,0.07219 q -1.23,0.239683 -1.777,0.239683 -0.667,0 -0.667,-0.239683 0,-0.0841 0.272,-0.442925 0.957,-1.0183053 0.957,-1.9167682 0,-0.5151099 -0.258,-0.9342056 -0.256,-0.4310103 -0.564,-0.4310103 -0.274,0 -0.838,0.406481 -1.59,1.2103323 -2.53,2.4809366 -0.922,1.2685015 -0.922,2.2636785 0,0.65878 0.376,1.089089 0.393,0.43101 0.974,0.43101 0.496,0 1.846,-0.742879 1.367,-0.742879 3.06,-1.965126 l 0.46,-0.263511 -0.068,-0.04696 z m -1.026,2.743046 v 0.04766 l -0.068,-0.04766 q -1.59,1.305646 -2.922,2.144538 -1.316,0.825577 -2.444,1.244673 -1.11,0.419096 -2.05,0.419096 -1.915,0 -3.163,-0.897062 -1.247,-0.899164 -1.247,-2.276294 0,-0.850806 0.615,-2.01138 0.615,-1.163376 1.692,-2.2762935 1.794,-1.820755 4.512,-3.0906577 2.802,-1.3049444 5.4,-1.3049444 2.188,0 3.59,0.6342508 1.417,0.6237378 1.417,1.581071 0,0.7064359 -0.7,1.4969714 0.923,0 1.162,0.1422684 0.24,0.1317565 0.24,0.6349515 0,-0.04906 -0.086,0.4905815 -0.103,1.185803 -0.103,2.216022 0,0.539639 0.017,0.814364 0.017,0.275425 0.07,0.63425 0.05,0.358824 0.1,0.57468 0.138,0.562766 0.445,1.114319 -1.027,0.705735 -1.967,1.041432 -0.94,0.322382 -1.914,0.322382 -2.633,0 -2.633,-3.089256 0,-0.360226 0.034,-0.563467 z m 18.508,-1.785012 V 10.85277 q -0.87,0.539639 -1.298,0.539639 -0.24,0 -0.24,-0.168199 0,-0.07148 0.103,-0.299254 0.36,-0.71765 0.36,-1.3876435 0,-0.9706481 -0.6,-2.0113798 -0.255,-0.5396387 -0.63,-0.5396387 -0.19,0 -0.31,0.1191413 -0.563,0.455539 -1.076,1.2937309 -0.514,0.8269783 -0.856,1.8081398 -0.325,0.970649 -0.325,1.72404 0,1.426188 1.23,1.426188 0.615,0 1.64,-0.502494 1.043,-0.51511 2,-1.304945 z m 0.53,-5.6893333 0.17,-0.4905807 q 0.53,-1.6413421 0.958,-2.647733 0.428,-1.0176043 0.872,-1.712827 0.46,-0.70643599 0.906,-1.01760419 0.718,-0.53963857 2.58,-0.53963857 0.82,0 1.214,0.0609722 0.41,0.0595705 0.65,0.21515461 -0.82,1.78501225 -1.146,2.68277465 -0.307,0.8865492 -0.683,2.4437919 -0.581,2.5391048 -0.581,4.5869279 0,1.3526015 0.307,2.8145315 0.325,1.449315 1.043,3.234328 -0.906,0.442923 -1.744,0.754092 -0.82,0.310467 -1.572,0.49058 -0.735,0.178712 -1.3,0.178712 -0.99,0 -1.4,-0.682608 -0.342,-0.562065 -0.444,-0.897062 -0.103,-0.347611 -0.36,-1.904854 -2.29,1.677085 -4.39,2.647033 -2.086,0.957332 -3.334,0.957332 -1.435,0 -2.358,-0.814363 -0.906,-0.826979 -0.906,-2.120009 0,-1.163377 0.7,-2.575548 0.718,-1.425487 1.966,-2.7542599 0.82,-0.8746346 1.675,-1.4738437 0.87,-0.6097215 1.965,-1.1255321 1.983,-0.911078 3.316,-0.911078 0.65,0 1.897,0.5992091 z M 104.60877,4.7688701 q 2.546,0 2.546,0.419096 0,0.4786666 -1.143,0.5151094 -1.384,0.05957 -2.58,0.5508522 -1.197,0.4905801 -2.137,1.3413872 -0.924,0.8501059 -1.452997,1.9160676 -0.513,1.0652605 -0.513,2.2517655 0,1.305645 0.869997,2.108094 0.873,0.790536 2.274,0.790536 1.3,0 2.273,-0.934206 0.976,-0.934206 0.976,-2.179579 0,-1.018305 -0.615,-1.9048545 -0.597,-0.8984634 -1.76,-1.508886 -0.495,-0.2768273 -0.495,-0.3966692 0,-0.1681988 0.7,-0.5151094 0.787,-0.3714399 1.76,-0.6237384 0.975,-0.2508968 1.642,-0.2508968 0.77,0 1.453,0.2873402 0.7,0.2754255 1.23,0.8024496 0.53,0.5151094 0.802,1.1984182 0.29,0.6699928 0.29,1.4367003 0,1.268501 -0.683,2.514576 -0.685,1.233459 -1.796,2.000167 -1.436,0.969948 -3.47,1.592284 -2.016,0.611123 -3.845,0.611123 -1.777997,0 -3.537997,-0.43101 -1.744,-0.432412 -2.77,-1.138848 -1.366,-0.958033 -1.366,-2.719217 0,-1.389044 0.974,-2.7780885 0.975,-1.3890439 2.633,-2.5159771 1.675,-1.1367455 3.673997,-1.7829098 2.017,-0.6587798 4.068,-0.6587798 z m 17.277,7.0902909 -0.734,1.077875 q -1.01,1.449316 -1.846,2.359693 -0.838,0.908275 -1.555,1.291629 -0.718,0.371439 -1.52,0.371439 -0.822,0 -1.437,-0.49058 -1.196,-0.982563 -2,-3.724909 -0.632,-2.216723 -0.632,-3.8216223 0,-1.2579886 0.41,-2.0001672 0.41,-0.7540922 1.282,-1.1003016 0.872,-0.3595258 2.273,-0.3595258 0.735,0 1.06,0.1794123 0.34,0.1801135 0.46,0.719051 0.12,0.5396387 0.12,1.6280268 0,1.9882523 0.274,3.7494368 0.034,0.09531 0.17,0.957333 h 0.086 q 0.12,-0.180113 0.188,-0.28734 l 0.14,-0.217257 q 0.07,-0.106526 0.12,-0.190625 0.067,-0.09671 0.17,-0.264213 0.905,-1.4367 1.897,-3.3051115 1.145,-2.1445379 1.572,-2.6105893 0.12,-0.1079279 0.324,-0.2382822 0.82,-0.4204973 2.34,-0.4204973 0.804,0 1.197,0.2151545 0.394,0.2032405 0.53,0.6938207 0.155,0.4919823 0.19,1.6189161 0,0.8970616 0.29,2.513875 0.307,1.6049 0.666,2.862888 0.12,0.430309 0.513,1.639941 h 0.084 q 0.376,-0.790536 0.513,-1.23346 0.495,-1.5208 0.495,-4.3836881 V 8.5498447 q 0,-0.8494053 0.224,-1.3526007 0.222,-0.5151099 0.786,-0.9342056 0.598,-0.4190962 1.384,-0.6826077 0.786,-0.2761272 1.384,-0.2761272 0.7,0 0.992,0.3952681 0.307,0.3833534 0.307,1.257288 0,1.9644244 -1.163,4.8987974 -1.008,2.503362 -2.65,4.611457 -0.53,0.658779 -1.024,1.077876 -0.495,0.419095 -1.025,0.586594 -0.53,0.178711 -1.213,0.178711 -2.427,0 -3.982,-2.179579 -0.46,-0.670694 -0.82,-1.5208 -0.36,-0.850806 -0.616,-1.964424 -0.085,-0.192728 -0.136,-0.791937 h -0.085 z m 35.376,2.754259 q -1.71,1.138147 -3.195,1.665171 -1.47,0.515109 -2.974,0.515109 -1.796,0 -3.078,-0.599209 -1.282,-0.598508 -1.966,-1.72404 -0.666,-1.126232 -0.666,-2.659647 0,-1.9041545 1.42,-3.9281489 1.435,-2.0359095 3.845,-3.7606505 2.41,-1.7240402 5.246,-2.7542593 2.84,-1.03021909 5.52,-1.03021909 4.31,0 4.31,2.64633159 0,1.0302191 -0.804,2.0001667 -0.787,0.9706489 -2.102,1.5572428 -1.316,0.5865945 -2.786,0.5865945 -0.598,0 -0.598,-0.2992543 0,-0.0841 0.204,-0.406481 0.46,-0.6356524 0.7,-1.3778305 0.274,-1.0540473 0.274,-1.6168132 0,-1.006391 -0.342,-1.006391 -0.803,0 -2.256,0.8024496 -1.435,0.8024496 -2.358,1.748569 -0.837,0.8269789 -1.555,1.964425 -0.7,1.1374461 -1.11,2.2987204 -0.394,1.1633772 -0.394,2.1326242 0,0.922291 0.564,1.5208 0.564,0.587295 1.47,0.587295 1.555,0 3.503,-2.765473 0.615,-0.7667085 0.82,-0.9699485 0.222,-0.217257 0.616,-0.384055 1.06,-0.4667516 2.666,-0.826978 1.623,-0.3714399 2.512,-0.3714399 1.042,0 1.042,0.7316663 0,0.060271 -0.102,0.5270236 -1.214,3.5090535 -2.94,6.4195975 -1.726,2.910544 -3.35,4.144004 -0.75,0.564167 -2.22,0.935607 -1.47,0.371439 -3.01,0.371439 -1.264,0 -2.58,-0.299955 -1.298,-0.299254 -2.136,-0.766006 -0.837,-0.467453 -0.837,-0.922291 0,-0.299956 0.48,-0.682609 0.48,-0.383353 1.3,-0.766707 1.3,-0.611824 1.725,-0.611824 0.445,0 1.248,0.682608 0.974,0.791937 2.068,1.307047 0.6,-0.981161 1.146,-2.407349 0.564,-1.426188 0.683,-2.204108 z m 15.638,-1.448614 -0.07,0.238282 q 0,0.204642 -0.067,0.588697 -0.07,0.585893 -0.19,0.957333 -0.12,0.371439 -0.36,0.623738 -0.24,0.238282 -0.65,0.514408 -1.246,0.80245 -2.51,0.80245 -1.026,0 -1.52,-0.527023 -0.48,-0.527024 -0.48,-1.700913 0,-0.934206 0.29,-2.298721 0.31,-1.378531 0.735,-2.4683215 l 0.137,-0.309766 q 0,-0.07218 0.102,-0.299254 0.633,-1.6287274 1.163,-2.4073488 0.53,-0.789835 1.28,-1.2685016 0.668,-0.3714393 1.505,-0.3714393 1.214,0 1.47,1.0302194 0.24,-0.1443712 0.46,-0.3363982 0.497,-0.4190962 0.77,-0.5508522 0.274,-0.1443707 0.633,-0.1443707 1.47,0 1.47,2.0359095 0,1.1143185 -0.342,2.1557509 -0.342,1.0414325 -0.872,1.7002125 -0.512,0.658779 -1.024,0.658779 -0.564,0 -0.564,-1.49627 0,-0.7905355 -0.137,-1.2334603 -0.12,-0.455539 -0.393,-0.7064358 -0.513,0.669993 -0.667,3.0654281 -0.12,1.389044 -0.17,1.748569 z m 11.45,-0.07219 q 0.786,-0.37144 1.196,-0.74288 0.906,-0.77792 1.4,-1.784311 0.395,-0.6587805 0.617,-1.4731438 0.22,-0.8143636 0.22,-1.5207995 0,-0.6587795 -0.393,-0.6587795 -0.547,0 -1.675,1.6889984 -0.667,1.0176049 -1.094,2.0359104 -0.41,1.007091 -0.41,1.738056 0,0.252299 0.136,0.71835 z m 0.034,0.383354 q 0.188,0.719751 1.333,0.719751 1.282,0 3.333,-1.054047 1.196,-0.609722 1.606,-0.609722 0.513,0 0.957,0.190626 0.442,0.192027 0.442,0.395268 0,0.215154 -0.495,0.562766 -0.906,0.63425 -2.085,1.245373 -1.18,0.597808 -2.273,1.00499 -1.095,0.395267 -2.19,0.634951 -1.092,0.227769 -1.947,0.227769 -2.136,0 -3.418,-0.850806 -1.282,-0.86202 -1.282,-2.286105 0,-1.08979 0.667,-2.455006 0.684,-1.3771295 1.83,-2.5748476 1.35,-1.4016581 3.315,-2.3351632 2.427,-1.125532 4.648,-1.125532 1.607,0 2.513,0.719051 0.922,0.7064358 0.922,1.9525104 0,0.9699478 -0.734,2.0239949 -0.718,1.0540485 -2.137,2.0239965 -1.162,0.814364 -2.29,1.269903 -1.11,0.455539 -1.948,0.455539 -0.378,0 -0.77,-0.133158 z m 14.936,-0.382653 q 0.787,-0.37144 1.197,-0.742879 0.906,-0.777921 1.4,-1.784312 0.394,-0.6587795 0.616,-1.4731436 0.22,-0.8143637 0.22,-1.5208001 0,-0.6587795 -0.393,-0.6587795 -0.546,0 -1.674,1.6889989 -0.667,1.0176038 -1.094,2.0359103 -0.41,1.007091 -0.41,1.738056 0,0.252299 0.135,0.71835 z m 0.035,0.383353 q 0.19,0.719752 1.335,0.719752 1.28,0 3.332,-1.054047 1.197,-0.609722 1.607,-0.609722 0.512,0 0.957,0.190626 0.445,0.192027 0.445,0.395268 0,0.215154 -0.496,0.562765 -0.906,0.634251 -2.086,1.245374 -1.18,0.597808 -2.272,1.004989 -1.093,0.395268 -2.187,0.634952 -1.094,0.227769 -1.948,0.227769 -2.136,0 -3.418,-0.850807 -1.283,-0.86202 -1.283,-2.286105 0,-1.08979 0.667,-2.455005 0.683,-1.3771305 1.828,-2.5748475 1.35,-1.4016587 3.316,-2.3351632 2.426,-1.125532 4.648,-1.125532 1.606,0 2.512,0.719051 0.923,0.7064359 0.923,1.9525104 0,0.9699479 -0.735,2.0239948 -0.718,1.0540485 -2.136,2.0239955 -1.163,0.814364 -2.29,1.269903 -1.11,0.455539 -1.95,0.455539 -0.375,0 -0.77,-0.133157 z m 16.373,-2.981328 1.025,-0.8388925 q 1.555,-1.2110337 2.46,-1.7976276 0.924,-0.5992091 1.642,-0.8620205 0.735,-0.2642126 1.487,-0.2642126 1.213,0 1.708,0.455539 0.496,0.4541378 0.496,1.5803704 0,0.4667526 -0.135,1.3771298 -0.205,1.209632 -0.205,2.275594 0,1.198418 0.17,1.941296 0.12,0.454138 0.36,0.908976 0.17,0.431711 0.17,0.587295 0,0.191327 -0.205,0.299254 -0.53,0.322382 -1.4,0.562066 -0.873,0.238281 -1.47,0.238281 -0.975,0 -1.78,-0.466051 -0.785,-0.467453 -1.23,-1.293731 -0.426,-0.826979 -0.426,-1.869112 0,-0.693821 0.203,-1.639941 l -0.07,-0.04906 q -0.733,0.57468 -1.195,0.911078 -0.445,0.334996 -0.838,0.634251 -1.914,1.534816 -3.247,2.768275 -0.513,0.477966 -0.94,0.837492 -0.633,0.442924 -1.436,0.442924 -1.095,0 -1.778,-0.57468 -0.685,-0.57468 -0.685,-1.485759 0,-0.562064 0.188,-1.376428 0.188,-0.814364 0.496,-1.735955 0.324,-0.934205 0.75,-1.916768 0.445,-0.9811616 0.958,-1.8684115 0.787,-1.4731432 1.915,-2.2987204 0.77,-0.5396381 1.863,-0.5396381 1.777,0 1.777,1.6168133 0,1.185803 -0.7,3.3899117 l 0.068,0.04766 z m 24.865,-5.5225355 0.394,-0.6938211 q -1.915,-0.035042 -2.684,-0.2635118 -0.752,-0.2396837 -0.752,-0.8143637 0,-0.4674532 0.53,-0.9222914 0.598,-0.5746801 1.282,-1.0421333 0.684,-0.47866639 1.265,-0.68260779 0.495,-0.1422683 1.367,-0.1422683 2.12,0 4.802,0.168199 0.615,0.023128 1.025,0.035042 0.41,0.011914 0.89,0.035042 1.127,0 1.435,0.036443 0.307,0.023128 0.735,0.1429691 0.29,0.072186 0.495,0.21585549 0.427,0.3118691 0.427,0.9825627 0,1.2460746 -1.23,1.5929851 -0.72,0.2158554 -1.3,0.28734 -0.58,0.059571 -2.103,0.156285 l -1.846,4.2876737 q 1.317,0 2.138,-0.047655 0.51,-0.02383 1.57,-0.02383 1.248,0 1.76,0.1913264 0.514,0.1794123 0.514,0.6461649 0,0.359525 -0.496,1.0421335 -0.495,0.681907 -1.076,1.089089 -0.274,0.192027 -0.77,0.263512 -0.495,0.06027 -1.69,0.06027 h -0.667 q -1.145,0 -2.615,0.07219 -0.77,1.819353 -1.42,2.7893 -0.65,0.960136 -1.588,1.629429 -0.65,0.466752 -1.385,0.71835 -0.718,0.252298 -1.35,0.252298 -1.042,0 -1.81,-0.420498 -0.753,-0.418395 -0.753,-0.969246 0,-0.670694 1.623,-4.192361 1.624,-3.5209677 3.28,-6.4798692 z m 23.807,5.6178485 -0.325,0.07219 q -1.23,0.239684 -1.777,0.239684 -0.667,0 -0.667,-0.239684 0,-0.0841 0.273,-0.442924 0.956,-1.0183052 0.956,-1.9167686 0,-0.5151094 -0.257,-0.9342056 -0.257,-0.4310097 -0.565,-0.4310097 -0.273,0 -0.837,0.406481 -1.59,1.2103323 -2.53,2.4809354 -0.923,1.2685025 -0.923,2.2636795 0,0.65878 0.376,1.089089 0.394,0.43101 0.975,0.43101 0.495,0 1.845,-0.742879 1.368,-0.742879 3.06,-1.965125 l 0.46,-0.263512 -0.067,-0.04695 z m -1.026,2.743046 v 0.04766 l -0.07,-0.04766 q -1.59,1.305645 -2.923,2.144538 -1.315,0.825577 -2.443,1.244673 -1.11,0.419096 -2.05,0.419096 -1.915,0 -3.163,-0.897062 -1.246,-0.899164 -1.246,-2.276293 0,-0.850807 0.615,-2.011381 0.614,-1.163377 1.69,-2.2762945 1.795,-1.8207539 4.51,-3.0906571 2.805,-1.3049439 5.403,-1.3049439 2.187,0 3.59,0.6342503 1.417,0.6237384 1.417,1.581071 0,0.7064358 -0.7,1.4969714 0.923,0 1.163,0.1422684 0.24,0.1317559 0.24,0.6349509 0,-0.04906 -0.087,0.4905815 -0.102,1.185804 -0.102,2.216022 0,0.539639 0.017,0.814364 0.02,0.275426 0.07,0.634251 0.05,0.358825 0.103,0.57468 0.137,0.562766 0.444,1.114319 -1.025,0.705735 -1.965,1.041432 -0.94,0.322381 -1.913,0.322381 -2.633,0 -2.633,-3.089255 0,-0.360227 0.034,-0.563467 z m 13.432,-0.168199 -0.07,0.238282 q 0,0.205343 -0.067,0.588697 -0.068,0.586594 -0.188,0.958033 -0.12,0.37144 -0.36,0.623738 -0.238,0.238283 -0.648,0.514409 -1.25,0.80245 -2.514,0.80245 -1.026,0 -1.52,-0.527024 -0.48,-0.527024 -0.48,-1.700913 0,-0.934205 0.29,-2.29872 0.308,-1.378531 0.735,-2.4683215 l 0.138,-0.309767 q 0,-0.07218 0.102,-0.299253 0.632,-1.6287277 1.162,-2.4073491 0.53,-0.789835 1.282,-1.2685016 0.666,-0.3714393 1.503,-0.3714393 1.213,0 1.47,1.0302194 0.238,-0.1443713 0.46,-0.3363982 0.496,-0.4190962 0.77,-0.5508522 0.273,-0.1443707 0.632,-0.1443707 1.47,0 1.47,2.0359095 0,1.1143185 -0.343,2.1557512 -0.342,1.0414325 -0.872,1.7002115 -0.512,0.65878 -1.025,0.65878 -0.564,0 -0.564,-1.49627 0,-0.7905365 -0.138,-1.2334606 -0.12,-0.455539 -0.393,-0.7064359 -0.514,0.6699925 -0.667,3.0654275 -0.12,1.389044 -0.17,1.74857 z m 24.198,-0.681907 -4.664,3.353468 q -0.906,0.634251 -1.47,0.873935 -0.547,0.227769 -1.214,0.227769 -1.042,0 -1.76,-0.539639 -0.7,-0.550151 -0.7,-1.340686 0,-0.49058 0.205,-1.065261 0.222,-0.588696 0.854,-1.738056 0.12,-0.238282 0.224,-0.406481 0.12,-0.180114 0.188,-0.299254 l -0.067,-0.04766 q -1.658,1.221546 -3.247,2.574848 -1.333,1.114318 -2.12,1.664469 -0.786,0.552253 -1.418,0.826978 -0.632,0.276828 -1.128,0.276828 -1.11,0 -1.76,-0.611123 -0.65,-0.611123 -0.65,-1.66447 0,-1.329473 1.64,-4.300288 1.47,-2.6337177 2.274,-3.5321811 1.18,-1.2460745 2.7,-1.2460745 0.923,0 1.52,0.3118689 0.617,0.2985537 0.617,0.789835 0,0.8970616 -0.974,2.7423452 -0.377,0.6826085 -0.77,1.5453295 l 0.07,0.04766 q 0.63,-0.490581 2.032,-1.6889993 2.41,-2.0828647 3.64,-2.8383591 1.59,-1.0302188 2.905,-1.0302188 0.58,0 1.11,0.2761267 0.53,0.2754261 0.838,0.7428792 0.325,0.455539 0.325,0.9580337 0,0.51581 -1.06,2.6351181 -0.222,0.4436255 -0.342,0.6952235 -0.12,0.252298 -0.222,0.43101 l 0.086,0.04906 0.427,-0.299955 q 0.187,-0.131755 0.41,-0.275425 l 0.443,-0.287341 q 0.463,-0.3125705 2.326,-1.6420433 1.23,-0.9580337 1.93,-1.3049443 0.7,-0.3588247 1.35,-0.3588247 1.06,0 1.606,0.51511 0.564,0.5031953 0.564,1.4969713 0,0.6097215 -0.273,1.927281 -0.24,1.485758 -0.342,2.335864 -0.085,0.838192 -0.085,1.173889 0,0.252299 0.034,0.646866 0.052,0.384054 0.155,0.826979 0.1,0.442924 0.272,0.98116 0.205,0.65878 0.274,1.03022 -0.137,0.431711 -0.906,0.730965 -0.752,0.299955 -1.64,0.299955 -1.402,0 -2.633,-0.885848 -0.547,-0.406481 -0.854,-0.826979 -0.292,-0.406481 -0.428,-0.969247 -0.12,-0.57468 -0.12,-1.510287 0,-0.611123 0.205,-2.527892 l -0.068,-0.04765 -0.31,0.299955 z"
     style="font-size:35px;line-height:125%;font-family:Forte;-inkscape-font-specification:'Forte, Normal';text-align:start;letter-spacing:0;word-spacing:0;fill:#7e3ca0;stroke-width:0.83715552"
     font-size="35"
     word-spacing="0"
     letter-spacing="0"
     id="path61"
     inkscape:connector-curvature="0" />
  <g
     style="font-size:17.86199951px;line-height:125%;font-family:sans-serif;-inkscape-font-specification:'sans-serif, Normal';text-align:start;letter-spacing:0;word-spacing:0.79500002;fill:#71348f"
     font-size="17.862"
     letter-spacing="0"
     word-spacing=".795"
     id="g67"
     transform="translate(19.438419,-24.344435)">
    <path
       d="m 210.038,54.722 h -2.346 v -4.68 h -8.804 v 4.68 h -2.346 v -9.56 h 2.346 v 3.75 h 8.804 v -3.75 h 2.346 z m 17.905,-8.462 q 1.078,0.643 1.647,1.574 0.58,0.93 0.58,2.112 0,1.18 -0.592,2.118 -0.58,0.93 -1.635,1.554 -1.09,0.648 -2.583,0.976 -1.48,0.327 -3.39,0.327 -1.86,0 -3.388,-0.332 -1.517,-0.334 -2.583,-0.97 -1.07,-0.635 -1.65,-1.56 -0.57,-0.923 -0.57,-2.11 0,-1.17 0.57,-2.094 0.57,-0.93 1.66,-1.592 1.04,-0.628 2.583,-0.962 1.552,-0.334 3.377,-0.334 1.897,0 3.402,0.34 1.516,0.335 2.57,0.957 z m -0.213,3.686 q 0,-1.862 -1.54,-2.87 -1.54,-1.014 -4.207,-1.014 -2.69,0 -4.23,1.014 -1.53,1.008 -1.53,2.87 0,1.88 1.565,2.882 1.564,0.995 4.195,0.995 2.63,0 4.183,-0.995 1.564,-1 1.564,-2.882 z m 17.324,4.776 H 233.89 v -9.56 h 2.348 v 8.43 h 8.816 z m 8.566,0 h -6.967 v -0.976 h 2.31 V 46.14 h -2.31 v -0.977 h 6.968 v 0.976 h -2.31 v 7.605 h 2.31 v 0.976 z m 18.924,-4.77 q 0,1.304 -1.054,2.363 -1.043,1.06 -2.785,1.643 -1.21,0.405 -2.702,0.584 -1.48,0.18 -3.91,0.18 h -4.455 v -9.56 h 4.408 q 2.583,0 4.1,0.207 1.528,0.197 2.583,0.55 1.8,0.61 2.806,1.624 1.007,1.014 1.007,2.407 z m -2.453,-0.02 q 0,-1.122 -0.72,-1.892 -0.723,-0.77 -2.157,-1.214 -1.043,-0.32 -2.216,-0.443 -1.173,-0.128 -2.808,-0.128 h -2.205 v 7.376 h 2.204 q 1.693,0 2.95,-0.133 1.267,-0.135 2.322,-0.5 1.316,-0.456 1.968,-1.2 0.663,-0.746 0.663,-1.863 z m 20.18,4.79 h -2.5 l -1.73,-2.664 h -7.63 l -1.73,2.664 h -2.382 l 6.422,-9.56 h 3.13 z m -4.952,-3.755 -3.093,-4.693 -3.104,4.693 h 6.2 z m 19.172,-5.804 -6.21,5.367 v 4.192 h -2.345 v -4.057 l -6.233,-5.502 h 2.595 l 4.823,4.276 4.87,-4.278 h 2.5 z m 25.68,8.867 q -0.65,0.153 -1.185,0.288 -0.52,0.134 -1.374,0.282 -0.72,0.122 -1.574,0.205 -0.842,0.09 -1.86,0.09 -1.92,0 -3.496,-0.29 -1.565,-0.294 -2.727,-0.917 -1.137,-0.61 -1.777,-1.547 -0.64,-0.94 -0.64,-2.187 0,-1.18 0.616,-2.112 0.617,-0.93 1.778,-1.57 1.125,-0.624 2.713,-0.95 1.6,-0.33 3.543,-0.33 1.422,0 2.832,0.187 1.422,0.186 3.152,0.655 v 1.51 h -0.178 q -1.457,-0.662 -2.89,-0.963 -1.435,-0.303 -3.07,-0.303 -1.34,0 -2.417,0.238 -1.067,0.23 -1.908,0.725 -0.817,0.48 -1.28,1.22 -0.45,0.73 -0.45,1.694 0,1.008 0.498,1.734 0.51,0.725 1.303,1.18 0.83,0.476 1.932,0.707 1.114,0.225 2.346,0.225 1.694,0 3.176,-0.315 1.48,-0.315 2.772,-0.944 h 0.166 v 1.49 z m 16.656,-7.77 q 1.08,0.643 1.648,1.574 0.58,0.93 0.58,2.112 0,1.18 -0.592,2.118 -0.58,0.93 -1.636,1.554 -1.09,0.648 -2.583,0.976 -1.48,0.327 -3.39,0.327 -1.86,0 -3.388,-0.332 -1.516,-0.334 -2.583,-0.97 -1.066,-0.635 -1.647,-1.56 -0.57,-0.923 -0.57,-2.11 0,-1.17 0.57,-2.094 0.57,-0.93 1.66,-1.592 1.042,-0.628 2.582,-0.962 1.553,-0.334 3.377,-0.334 1.896,0 3.4,0.34 1.518,0.335 2.572,0.957 z m -0.213,3.686 q 0,-1.862 -1.54,-2.87 -1.54,-1.014 -4.207,-1.014 -2.69,0 -4.23,1.014 -1.53,1.008 -1.53,2.87 0,1.88 1.565,2.882 1.567,0.995 4.197,0.995 2.63,0 4.183,-0.995 1.563,-1 1.563,-2.882 z m 18.177,-3.653 h -6.304 v 8.43 h -2.346 v -8.43 h -6.304 v -1.13 h 14.954 z"
       style="line-height:125%;-inkscape-font-specification:'sans-serif, Normal';text-align:start"
       id="path63"
       inkscape:connector-curvature="0" />
    <path
       d="m 378.962,46.293 h -6.304 v 8.43 h -2.346 v -8.43 h -6.304 v -1.13 h 14.954 z m 14.883,8.43 h -2.5 l -1.73,-2.665 h -7.63 l -1.73,2.664 h -2.383 l 6.422,-9.56 h 3.13 l 6.42,9.56 z m -4.953,-3.756 -3.093,-4.693 -3.106,4.693 h 6.197 z m 22.348,3.05 q -1.446,0.36 -3.164,0.63 -1.706,0.26 -3.306,0.26 -2.062,0 -3.78,-0.307 -1.718,-0.307 -2.927,-0.924 -1.22,-0.623 -1.884,-1.554 -0.665,-0.937 -0.665,-2.19 0,-2.29 2.464,-3.613 2.476,-1.33 6.79,-1.33 1.504,0 3.07,0.2 1.574,0.19 3.387,0.66 v 1.51 h -0.213 q -0.367,-0.156 -1.067,-0.407 -0.7,-0.25 -1.374,-0.417 -0.818,-0.2 -1.86,-0.327 -1.03,-0.136 -2.347,-0.136 -2.962,0 -4.692,1.034 -1.718,1.026 -1.718,2.785 0,1.855 1.8,2.888 1.802,1.028 4.907,1.028 1.137,0 2.263,-0.122 1.137,-0.12 1.99,-0.314 V 51.03 h -4.727 v -1.116 h 7.05 v 4.102 z m 15.724,0.705 H 415.34 v -9.56 h 11.624 v 1.13 h -9.278 v 2.62 h 9.278 v 1.13 h -9.278 v 3.55 h 9.278 z m 16.554,-2.728 q 0,0.558 -0.486,1.104 -0.474,0.546 -1.34,0.924 -0.947,0.41 -2.215,0.642 -1.256,0.23 -3.033,0.23 -1.908,0 -3.437,-0.19 -1.516,-0.194 -3.092,-0.573 v -1.59 h 0.166 q 1.34,0.604 3.094,0.93 1.754,0.33 3.294,0.33 2.18,0 3.39,-0.444 1.22,-0.443 1.22,-1.18 0,-0.637 -0.58,-0.94 -0.57,-0.3 -1.743,-0.467 -0.888,-0.13 -1.93,-0.213 -1.032,-0.084 -2.193,-0.212 -2.345,-0.27 -3.483,-0.918 -1.127,-0.655 -1.127,-1.7 0,-1.202 1.874,-1.966 1.872,-0.77 4.75,-0.77 1.862,0 3.414,0.194 1.553,0.192 2.75,0.475 v 1.5 h -0.166 q -1.006,-0.46 -2.653,-0.763 -1.634,-0.308 -3.353,-0.308 -1.884,0 -3.033,0.423 -1.138,0.423 -1.138,1.09 0,0.598 0.57,0.938 0.568,0.34 2.002,0.52 0.758,0.09 2.156,0.22 1.4,0.13 2.37,0.263 1.967,0.282 2.963,0.853 0.995,0.572 0.995,1.6 z"
       style="line-height:125%;-inkscape-font-specification:'sans-serif, Normal';text-align:start"
       id="path65"
       inkscape:connector-curvature="0" />
  </g>
</svg>
