<svg xmlns="http://www.w3.org/2000/svg" width="468" height="60" viewBox="0 0 468 60">
  
<defs>
    <radialGradient id="a" gradientUnits="userSpaceOnUse" cy="588.49" cx="394.14" gradientTransform="matrix(.724 -.6078 3.467 4.249 -1901.5 -1689)" r="54.529">
      <stop offset="0" stop-color="#ac00ff"/>
      <stop offset="1" stop-color="#d782ff"/>
    </radialGradient>
  </defs>
  <g fill-rule="evenodd">
    <path d="M.282 23.052C.317 25.017.27 60.155.27 60.155l339.774.44C262.75 36.845.248 21.088.282 23.053z" fill="#84c475"/>
    <path d="M468.128 36.278c.887 2.09-.358 24.534-.358 24.534-211.507-.51-241.993-.242-241.993-.242 55.793-15.528 241.464-26.383 242.35-24.292z" fill="#a6c475"/>
  </g>
  <g transform="matrix(.0482 0 0 .0352 408.533 8.523)">
    <path d="M317.79 426.82c61.07-82.47-191.12-367.04-71.48-407.27 92.85-17.684 323.81 213.67 348.68 294.99 18.92 72.49-144.55 177.46 20.43 80.64 65.56-35.34 164.38 302.76 68.61 354.67-75.5 45.52-156.91-102.47-230.66-120.62" fill="#f175ff" fill-rule="evenodd" stroke="#000" stroke-width=".947"/>
    <path d="M338.58 450.52c57.04-66.83-147.38-397.89-89.81-412.87 69.06-12.997 321 212.66 330.78 274.5C575 412.73 427.08 517.02 596.9 430.58c79.9-42.37 143.23 253.8 72.05 292.29-56.1 33.77-158.68-106.62-213.61-120.28" fill="#90a" fill-rule="evenodd" stroke="#000" stroke-width=".705"/>
    <path d="M353.7 468.1c57.58-58.92-141.54-402.61-89.09-412.86 48.78-17.043 314.05 222.85 298.48 266.04-25.46 102.59-147.1 200.2 23.69 136.43 64.33-18.13 130.11 228.65 73.85 246.61-39.74 22.17-151.61-119.03-208.28-109.12" fill="#6a00ff" fill-rule="evenodd" stroke="#000" stroke-width=".537"/>
    <ellipse transform="matrix(.724 -.6078 .5992 .7343 241.86 430.97)" cx="180.817" cy="416.976" rx="29.294" ry="31.315" fill="#00b7ff"/>
    <ellipse transform="matrix(.724 -.6078 .5992 .7343 -48.704 -62.566)" cx="180.817" cy="416.976" rx="29.294" ry="31.315" fill="#00b7ff"/>
    <path d="M-336.48 176.445c-46.596-55.088-9.8-146.576 25.396-196" transform="matrix(-.0694 1.2956 -1.015 -.4737 186.35 747.77)" fill="none" stroke="#000"/>
    <path d="M-336.48 176.445c-46.596-55.088-9.8-146.576 25.396-196" transform="matrix(-.3115 1.2585 -.9074 -.661 118.63 742.13)" fill="none" stroke="#000"/>
    <ellipse transform="matrix(.724 -.6078 .5992 .7343 -350.06 34.617)" cx="180.817" cy="416.976" rx="10.633" ry="8.738" fill="#00b7ff"/>
    <ellipse transform="matrix(.724 -.6078 .5992 .7343 -317.92 6.046)" cx="180.817" cy="416.976" rx="10.633" ry="8.738" fill="#00b7ff"/>
    <path d="M325.88 411.17c-75.45-130-187.88-40.06-75.32 60.99 286.38 328.24 333.22 272.01 75.32-60.99z" fill="url(#a)" fill-rule="evenodd"/>
  </g>
  <g color="#000" fill-rule="evenodd">
    <path d="M307.624 55.526l-.61-.556c1.752-3.208 3.017-6.883 3.692-10.74.935-5.338.727-11.03-.605-16.257-1.33-5.226-3.786-9.976-7.022-13.56 3.295 3.492 5.848 8.194 7.283 13.444 1.436 5.25 1.75 11.03.88 16.524-.624 3.97-1.86 7.784-3.615 11.148z" fill="green"/>
    <path d="M307.897 55.705l-.7-.34c1.9-6.498 5.128-12.306 9.248-16.666 3.758-3.977 8.272-6.668 12.987-7.927 4.716-1.26 9.657-1.095 14.27.62-4.634-1.614-9.556-1.665-14.22-.313-4.662 1.354-9.088 4.115-12.73 8.105-3.997 4.377-7.084 10.144-8.854 16.52z" fill="green"/>
    <path d="M307.585 55.638l-.62-.542c3.116-5.957 4.95-13.075 5.22-20.316.268-7.24-1.027-14.593-3.71-20.98-1.53-3.637-3.502-6.963-5.822-9.816 2.358 2.8 4.38 6.09 5.965 9.712 2.784 6.36 4.197 13.75 4.02 21.108-.175 7.357-1.94 14.655-5.052 20.834z" fill="#006400"/>
    <path d="M307.756 55.77l-.598-.58c3.823-6.638 8.343-12.573 13.374-17.625 5.03-5.05 10.574-9.22 16.443-12.328 2.155-1.14 4.36-2.144 6.63-2.805 1.726-.503 3.485-.805 5.25-.904-1.764.133-3.517.47-5.232 1.004-2.256.703-4.442 1.745-6.578 2.924-5.82 3.212-11.288 7.472-16.228 12.587-4.94 5.115-9.354 11.088-13.06 17.727z" fill="green"/>
    <path d="M308.565 55.09l-.705-.316c.273-1 .664-1.94 1.157-2.782.817-1.388 1.88-2.472 3.02-3.32 1.137-.846 2.346-1.475 3.55-2.058 8.19-3.966 16.848-6.216 25.547-6.65-8.69.668-17.283 3.148-25.354 7.307-1.186.615-2.358 1.26-3.43 2.1-1.073.843-2.056 1.88-2.775 3.17-.436.776-.778 1.64-1.01 2.552z" fill="#006400"/>
    <path d="M308.184 55.804l-.73-.2c1.95-11.565 1.743-23.776-.62-35.268-.378-1.845-.818-3.673-1.422-5.41-.598-1.72-1.365-3.35-2.366-4.717-.455-.62-.955-1.186-1.493-1.683.545.483 1.055 1.035 1.52 1.646 1.025 1.345 1.823 2.968 2.45 4.684.636 1.733 1.106 3.562 1.515 5.405 2.543 11.472 2.947 23.774 1.146 35.542z" fill="green"/>
    <path d="M308.08 54.88l-.727-.224c1.324-7.016 4.022-13.562 7.755-18.85 3.734-5.285 8.493-9.3 13.692-11.567 2.27-.99 4.62-1.654 6.997-1.97-2.37.374-4.707 1.092-6.954 2.133-5.143 2.383-9.802 6.486-13.41 11.79-3.606 5.302-6.16 11.802-7.354 18.687z" fill="#006400"/>
    <path d="M307.85 55.527l-.7-.333c.45-1.56.738-3.205.85-4.872.19-2.837-.162-5.743-.975-8.41-.815-2.668-2.093-5.11-3.747-7.02-1.653-1.912-3.673-3.286-5.822-4.027-2.15-.74-4.437-.852-6.624-.247 2.175-.674 4.477-.64 6.664.04 2.186.68 4.265 2.01 5.995 3.913 1.73 1.906 3.094 4.37 3.986 7.1.893 2.73 1.317 5.733 1.173 8.717-.085 1.748-.354 3.482-.798 5.14z" fill="#006400"/>
    <path d="M307.96 55.837l-.644-.49c1.464-3.17 3.705-5.688 6.296-7.1 2.59-1.41 5.513-1.707 8.215-.852 2.646.838 5.068 2.773 6.832 5.438-1.827-2.594-4.275-4.408-6.888-5.126-2.67-.734-5.505-.323-7.963 1.133-2.46 1.455-4.54 3.955-5.85 6.998z" fill="green"/>
    <path d="M333.597 22.567c.03.243.57.993 1.225.447.816-.68 2.037-1.302 2.04-1.29 0 0-1.23-.374-2.13-.14-.902.232-1.197.488-1.135.983z" fill="#006400"/>
    <path d="M341.796 30.466c-.075.226.204 1.3 1.205 1.408 1.248.134 2.933.66 2.93.668 0 0-1.242-1.35-2.383-1.922-1.14-.573-1.595-.613-1.75-.154zM304.243 16.24c.172-.1.658-.802.196-1.216-.577-.515-1.15-1.406-1.144-1.41 0 0-.142 1.196.12 1.92.26.725.475.908.826.705zm-.79-5.016c.098-.06.264-.34.32-.7.06-.364.01-.81-.33-1.186-.25-.28-.514-.61-.76-.93-.13-.168-.25-.33-.348-.496-.096-.166-.164-.337-.2-.504-.045-.21-.04-.407-.028-.55.014-.14.034-.225.036-.226 0 0-.05.084-.117.24-.067.154-.15.383-.19.657-.03.217-.035.457-.01.695.023.24.074.476.132.694.087.35.192.702.32 1.012.248.59.44.974.622 1.18.182.204.355.23.554.11zm24.737 40.68c-.146.157-.428 1.063.17 1.398.745.418 1.603 1.25 1.597 1.257 0 0-.22-1.364-.707-2.097-.488-.732-.764-.878-1.06-.56z" fill="green"/>
  </g>
  <path d="M25.486 24.798l.342-.77q4.033-9.108 5.845-11.842.29-.376.495-.58.205-.223.462-.394.273-.17.7-.342 1.23-.53 3.18-.53 1.008 0 1.264.17.273.172.273.77 0 .462-.034.99-.137 3.077-.137 4.376 0 3.282.445 6.22.29 1.642.856 3.334.598 1.503 1.145 2.307.65.888 1.095 1.298.547.547.547.838 0 .53-.905 1.435-1.52 1.47-3.042 1.47-2.136 0-3.88-1.828-.888-.89-1.418-1.966-.512-1.094-.77-2.683-.255-1.604-.34-4.065-.12-2.666-.137-3.008h-.07l-1.793 3.452q-.718 1.383-1.18 2.29-.444.905-1.06 2.17-1.947 4.033-2.545 4.87-.034.034-.137.154-.102.12-.188.188-.29.274-.666.428-.36.137-.616.137-.717 0-1.59-.89-.854-.905-1.503-2.323-.665-1.504-1.093-3.06-.41-1.57-.735-3.708-.306-2.153-.545-5.246h-.07q-.51 1.128-.768 1.692-.257.564-.787 1.743l-.614 1.367q-.7 1.555-1.47 3.145T12.79 28.85q-.463.855-1.027 1.692-.256.393-.906 1.11-1.01.958-2.205 1.505-1.197.53-2.273.53-.41 0-.718-.205t-.308-.53q0-.29.462-.77.256-.307 1.11-1.57l.992-1.54q.923-1.367 2.786-4.904l.82-1.538q2.87-5.503 3.88-7.52 1.008-2.033 1.008-2.358 0-.36-.513-.803-.393-.326-.393-.565 0-.376.99-.7.992-.343 2.154-.343 2.343 0 3.334 1.043.615.65 1.145 2.563.53 1.897 1.06 5.52.033.205.05.325l.034.19q.017.084.017.22.104.48.104.633.358 2.205.546 2.854.187.633.546 1.11zm23.754 3.606q.787-.53 1.197-1.06.906-1.11 1.402-2.546.39-.94.613-2.102.222-1.162.222-2.17 0-.94-.393-.94-.547 0-1.675 2.41-.666 1.452-1.093 2.905-.41 1.437-.41 2.48 0 .36.136 1.025zm.035.547q.188 1.027 1.333 1.027 1.282 0 3.333-1.504 1.198-.87 1.608-.87.513 0 .957.272.445.274.445.564 0 .307-.497.803-.906.905-2.085 1.777-1.18.853-2.273 1.434-1.094.564-2.187.906-1.094.325-1.95.325-2.135 0-3.417-1.214-1.28-1.23-1.28-3.262 0-1.555.667-3.503.684-1.965 1.83-3.674 1.35-2 3.314-3.332 2.428-1.606 4.65-1.606 1.606 0 2.51 1.026.925 1.008.925 2.786 0 1.384-.735 2.888-.72 1.504-2.137 2.888-1.162 1.162-2.29 1.812-1.11.65-1.95.65-.375 0-.768-.19zm21.773-4.118l-.325.103q-1.23.342-1.777.342-.667 0-.667-.342 0-.12.272-.632.957-1.453.957-2.735 0-.735-.258-1.333-.256-.615-.564-.615-.274 0-.838.58-1.59 1.727-2.53 3.54-.922 1.81-.922 3.23 0 .94.376 1.554.393.615.974.615.496 0 1.846-1.06 1.367-1.06 3.06-2.804l.46-.376-.068-.067zm-1.026 3.914v.068l-.068-.068q-1.59 1.863-2.922 3.06-1.316 1.178-2.444 1.776-1.11.598-2.05.598-1.915 0-3.163-1.28-1.247-1.283-1.247-3.248 0-1.214.615-2.87.615-1.66 1.692-3.248 1.794-2.598 4.512-4.41 2.802-1.862 5.4-1.862 2.188 0 3.59.905 1.417.89 1.417 2.256 0 1.008-.7 2.136.923 0 1.162.203.24.188.24.906 0-.07-.086.7-.103 1.692-.103 3.162 0 .77.017 1.162.017.393.07.905.05.512.1.82.138.803.445 1.59-1.027 1.007-1.967 1.486-.94.46-1.914.46-2.633 0-2.633-4.408 0-.514.034-.804zM88.53 26.2v-.992q-.87.77-1.298.77-.24 0-.24-.24 0-.102.103-.427.36-1.024.36-1.98 0-1.385-.6-2.87-.255-.77-.63-.77-.19 0-.31.17-.563.65-1.076 1.846-.514 1.18-.856 2.58-.325 1.385-.325 2.46 0 2.035 1.23 2.035.615 0 1.64-.717 1.043-.735 2-1.862zm.53-8.118l.17-.7q.53-2.342.958-3.778.428-1.452.872-2.444.46-1.008.906-1.452.718-.77 2.58-.77.82 0 1.214.087.41.085.65.307-.82 2.547-1.146 3.828-.307 1.265-.683 3.487Q94 20.27 94 23.192q0 1.93.307 4.016.325 2.068 1.043 4.615-.906.632-1.744 1.076-.82.443-1.572.7-.735.255-1.3.255-.99 0-1.4-.974-.342-.802-.444-1.28-.103-.496-.36-2.718-2.29 2.393-4.39 3.777-2.086 1.366-3.334 1.366-1.435 0-2.358-1.162-.906-1.18-.906-3.025 0-1.66.7-3.675.718-2.034 1.966-3.93.82-1.248 1.675-2.103.87-.87 1.965-1.606 1.983-1.3 3.316-1.3.65 0 1.897.855zm19.415-1.555q2.546 0 2.546.598 0 .683-1.143.735-1.384.085-2.58.786-1.197.7-2.137 1.914-.924 1.213-1.453 2.734-.513 1.52-.513 3.213 0 1.863.87 3.008.873 1.128 2.274 1.128 1.3 0 2.273-1.333.976-1.333.976-3.11 0-1.453-.615-2.718-.597-1.282-1.76-2.153-.495-.395-.495-.566 0-.24.7-.735.787-.53 1.76-.89.975-.358 1.642-.358.77 0 1.453.41.7.393 1.23 1.145.53.735.802 1.71.29.956.29 2.05 0 1.81-.683 3.588-.685 1.76-1.796 2.854-1.436 1.384-3.47 2.272-2.016.872-3.845.872-1.778 0-3.538-.615-1.744-.617-2.77-1.625-1.366-1.367-1.366-3.88 0-1.982.974-3.964.975-1.982 2.633-3.59 1.675-1.622 3.674-2.544 2.017-.94 4.068-.94zm17.277 10.117l-.734 1.538q-1.01 2.068-1.846 3.367-.838 1.296-1.555 1.843-.718.53-1.52.53-.822 0-1.437-.7-1.196-1.402-2-5.315-.632-3.163-.632-5.453 0-1.795.41-2.854.41-1.076 1.282-1.57.872-.513 2.273-.513.735 0 1.06.256.34.257.46 1.026.12.77.12 2.323 0 2.837.274 5.35.034.136.17 1.366h.086q.12-.257.188-.41l.14-.31q.07-.152.12-.272.067-.138.17-.377.905-2.05 1.897-4.716 1.145-3.06 1.572-3.725.12-.154.324-.34.82-.6 2.34-.6.804 0 1.197.307.394.29.53.99.155.702.19 2.31 0 1.28.29 3.587.307 2.29.666 4.085.12.614.513 2.34h.084q.376-1.128.513-1.76.495-2.17.495-6.255v-.77q0-1.212.224-1.93.222-.735.786-1.333.598-.598 1.384-.974.786-.394 1.384-.394.7 0 .992.564.307.547.307 1.794 0 2.803-1.163 6.99-1.008 3.572-2.65 6.58-.53.94-1.024 1.538-.495.598-1.025.837-.53.255-1.213.255-2.427 0-3.982-3.11-.46-.957-.82-2.17-.36-1.214-.616-2.803-.085-.275-.136-1.13h-.085zm35.376 3.93q-1.71 1.624-3.195 2.376-1.47.735-2.974.735-1.796 0-3.078-.855-1.282-.854-1.966-2.46-.666-1.607-.666-3.795 0-2.717 1.42-5.605 1.435-2.905 3.845-5.366 2.41-2.46 5.246-3.93 2.84-1.47 5.52-1.47 4.31 0 4.31 3.776 0 1.47-.804 2.854-.787 1.385-2.102 2.222-1.316.837-2.786.837-.598 0-.598-.427 0-.12.204-.58.46-.907.7-1.966.274-1.504.274-2.307 0-1.436-.342-1.436-.803 0-2.256 1.145-1.435 1.145-2.358 2.495-.837 1.18-1.555 2.803-.7 1.623-1.11 3.28-.394 1.66-.394 3.043 0 1.316.564 2.17.564.838 1.47.838 1.555 0 3.503-3.946.615-1.094.82-1.384.222-.31.616-.548 1.06-.666 2.666-1.18 1.623-.53 2.512-.53 1.042 0 1.042 1.044 0 .086-.102.752-1.214 5.007-2.94 9.16-1.726 4.153-3.35 5.913-.75.805-2.22 1.335-1.47.53-3.01.53-1.264 0-2.58-.428-1.298-.427-2.136-1.093-.837-.667-.837-1.316 0-.428.48-.974.48-.547 1.3-1.094 1.3-.873 1.725-.873.445 0 1.248.974.974 1.13 2.068 1.865.6-1.4 1.146-3.435.564-2.035.683-3.145zm15.638-2.067l-.07.34q0 .292-.067.84-.07.836-.19 1.366-.12.53-.36.89-.24.34-.65.734-1.246 1.145-2.51 1.145-1.026 0-1.52-.752-.48-.752-.48-2.427 0-1.333.29-3.28.31-1.967.735-3.522l.137-.442q0-.103.102-.427.633-2.324 1.163-3.435.53-1.127 1.28-1.81.668-.53 1.505-.53 1.214 0 1.47 1.47.24-.206.46-.48.497-.598.77-.786.274-.206.633-.206 1.47 0 1.47 2.905 0 1.59-.342 3.076t-.872 2.426q-.512.94-1.024.94-.564 0-.564-2.135 0-1.128-.137-1.76-.12-.65-.393-1.008-.513.956-.667 4.374-.12 1.982-.17 2.495zm11.45-.103q.786-.53 1.196-1.06.906-1.11 1.4-2.546.395-.94.617-2.102.22-1.162.22-2.17 0-.94-.393-.94-.547 0-1.675 2.41-.667 1.452-1.094 2.905-.41 1.437-.41 2.48 0 .36.136 1.025zm.034.547q.188 1.027 1.333 1.027 1.282 0 3.333-1.504 1.196-.87 1.606-.87.513 0 .957.272.442.274.442.564 0 .307-.495.803-.906.905-2.085 1.777-1.18.853-2.273 1.434-1.095.564-2.19.906-1.092.325-1.947.325-2.136 0-3.418-1.214-1.282-1.23-1.282-3.262 0-1.555.667-3.503.684-1.965 1.83-3.674 1.35-2 3.315-3.332 2.427-1.606 4.648-1.606 1.607 0 2.513 1.026.922 1.008.922 2.786 0 1.384-.734 2.888-.718 1.504-2.137 2.888-1.162 1.162-2.29 1.812-1.11.65-1.948.65-.378 0-.77-.19zm14.936-.546q.787-.53 1.197-1.06.906-1.11 1.4-2.546.394-.94.616-2.102.22-1.162.22-2.17 0-.94-.393-.94-.546 0-1.674 2.41-.667 1.452-1.094 2.905-.41 1.437-.41 2.48 0 .36.135 1.025zm.035.547q.19 1.027 1.335 1.027 1.28 0 3.332-1.504 1.197-.87 1.607-.87.512 0 .957.272.445.274.445.564 0 .307-.496.803-.906.905-2.086 1.777-1.18.853-2.272 1.434-1.093.564-2.187.906-1.094.325-1.948.325-2.136 0-3.418-1.214-1.283-1.23-1.283-3.262 0-1.555.667-3.503.683-1.965 1.828-3.674 1.35-2 3.316-3.332 2.426-1.606 4.648-1.606 1.606 0 2.512 1.026.923 1.008.923 2.786 0 1.384-.735 2.888-.718 1.504-2.136 2.888-1.163 1.162-2.29 1.812-1.11.65-1.95.65-.375 0-.77-.19zm16.373-4.254l1.025-1.197q1.555-1.728 2.46-2.565.924-.855 1.642-1.23.735-.377 1.487-.377 1.213 0 1.708.65.496.648.496 2.255 0 .666-.135 1.965-.205 1.726-.205 3.247 0 1.71.17 2.77.12.648.36 1.297.17.616.17.838 0 .273-.205.427-.53.46-1.4.802-.873.34-1.47.34-.975 0-1.78-.665-.785-.667-1.23-1.846-.426-1.18-.426-2.667 0-.99.203-2.34l-.07-.07q-.733.82-1.195 1.3-.445.478-.838.905-1.914 2.19-3.247 3.95-.513.682-.94 1.195-.633.632-1.436.632-1.095 0-1.778-.82-.685-.82-.685-2.12 0-.802.188-1.964t.496-2.477q.324-1.333.75-2.735.445-1.4.958-2.666.787-2.102 1.915-3.28.77-.77 1.863-.77 1.777 0 1.777 2.307 0 1.692-.7 4.837l.068.068zm24.865-7.88l.394-.99q-1.915-.05-2.684-.376-.752-.342-.752-1.162 0-.667.53-1.316.598-.82 1.282-1.487.684-.683 1.265-.974.495-.203 1.367-.203 2.12 0 4.802.24.615.033 1.025.05.41.017.89.05 1.127 0 1.435.052.307.033.735.204.29.103.495.308.427.445.427 1.402 0 1.778-1.23 2.273-.72.308-1.3.41-.58.085-2.103.223l-1.846 6.118q1.317 0 2.138-.068.51-.034 1.57-.034 1.248 0 1.76.273.514.256.514.922 0 .513-.496 1.487-.495.973-1.076 1.554-.274.274-.77.376-.495.086-1.69.086h-.667q-1.145 0-2.615.103-.77 2.596-1.42 3.98-.65 1.37-1.588 2.325-.65.666-1.385 1.025-.718.36-1.35.36-1.042 0-1.81-.6-.753-.597-.753-1.383 0-.957 1.623-5.982 1.624-5.024 3.28-9.246zm23.807 8.016l-.325.103q-1.23.342-1.777.342-.667 0-.667-.342 0-.12.273-.632.956-1.453.956-2.735 0-.735-.257-1.333-.257-.615-.565-.615-.273 0-.837.58-1.59 1.727-2.53 3.54-.923 1.81-.923 3.23 0 .94.376 1.554.394.615.975.615.495 0 1.845-1.06 1.368-1.06 3.06-2.804l.46-.376-.067-.067zm-1.026 3.914v.068l-.07-.068q-1.59 1.863-2.923 3.06-1.315 1.178-2.443 1.776-1.11.598-2.05.598-1.915 0-3.163-1.28-1.246-1.283-1.246-3.248 0-1.214.615-2.87.614-1.66 1.69-3.248 1.795-2.598 4.51-4.41 2.805-1.862 5.403-1.862 2.187 0 3.59.905 1.417.89 1.417 2.256 0 1.008-.7 2.136.923 0 1.163.203.24.188.24.906 0-.07-.087.7-.102 1.692-.102 3.162 0 .77.017 1.162.02.393.07.905t.103.82q.137.803.444 1.59-1.025 1.007-1.965 1.486-.94.46-1.913.46-2.633 0-2.633-4.408 0-.514.034-.804zm13.432-.24l-.07.34q0 .293-.067.84-.068.837-.188 1.367t-.36.89q-.238.34-.648.734-1.25 1.145-2.514 1.145-1.026 0-1.52-.752-.48-.752-.48-2.427 0-1.333.29-3.28.308-1.967.735-3.522l.138-.442q0-.103.102-.427.632-2.324 1.162-3.435.53-1.127 1.282-1.81.666-.53 1.503-.53 1.213 0 1.47 1.47.238-.206.46-.48.496-.598.77-.786.273-.206.632-.206 1.47 0 1.47 2.905 0 1.59-.343 3.076-.342 1.486-.872 2.426-.512.94-1.025.94-.564 0-.564-2.135 0-1.128-.138-1.76-.12-.65-.393-1.008-.514.956-.667 4.374-.12 1.982-.17 2.495zm24.198-.973l-4.664 4.785q-.906.905-1.47 1.247-.547.325-1.214.325-1.042 0-1.76-.77-.7-.785-.7-1.913 0-.7.205-1.52.222-.84.854-2.48.12-.34.224-.58.12-.257.188-.427l-.067-.068q-1.658 1.743-3.247 3.674-1.333 1.59-2.12 2.375-.786.788-1.418 1.18-.632.395-1.128.395-1.11 0-1.76-.872-.65-.872-.65-2.375 0-1.897 1.64-6.136 1.47-3.758 2.274-5.04 1.18-1.778 2.7-1.778.923 0 1.52.445.617.426.617 1.127 0 1.28-.974 3.913-.377.974-.77 2.205l.07.068q.63-.7 2.032-2.41 2.41-2.972 3.64-4.05 1.59-1.47 2.905-1.47.58 0 1.11.394.53.393.838 1.06.325.65.325 1.367 0 .736-1.06 3.76-.222.633-.342.992-.12.36-.222.615l.086.07.427-.428q.187-.188.41-.393l.443-.41q.463-.446 2.326-2.343 1.23-1.367 1.93-1.862.7-.512 1.35-.512 1.06 0 1.606.735.564.718.564 2.136 0 .87-.273 2.75-.24 2.12-.342 3.333-.085 1.196-.085 1.675 0 .36.034.923.052.548.155 1.18.1.632.272 1.4.205.94.274 1.47-.137.616-.906 1.043-.752.428-1.64.428-1.402 0-2.633-1.264-.547-.58-.854-1.18-.292-.58-.428-1.383-.12-.82-.12-2.155 0-.872.205-3.607l-.068-.068-.31.428z" style="line-height:125%;-inkscape-font-specification:'Forte, Normal';text-align:start" font-size="35" font-family="Forte" word-spacing="0" letter-spacing="0" fill="#7e3ca0"/>
  <g style="line-height:125%;-inkscape-font-specification:'sans-serif, Normal';text-align:start" font-size="17.862" font-family="sans-serif" letter-spacing="0" word-spacing=".795" fill="#71348f">
    <path d="M210.038 54.722h-2.346v-4.68h-8.804v4.68h-2.346v-9.56h2.346v3.75h8.804v-3.75h2.346v9.56zm17.905-8.462q1.078.643 1.647 1.574.58.93.58 2.112 0 1.18-.592 2.118-.58.93-1.635 1.554-1.09.648-2.583.976-1.48.327-3.39.327-1.86 0-3.388-.332-1.517-.334-2.583-.97-1.07-.635-1.65-1.56-.57-.923-.57-2.11 0-1.17.57-2.094.57-.93 1.66-1.592 1.04-.628 2.583-.962 1.552-.334 3.377-.334 1.897 0 3.402.34 1.516.335 2.57.957zm-.213 3.686q0-1.862-1.54-2.87-1.54-1.014-4.207-1.014-2.69 0-4.23 1.014-1.53 1.008-1.53 2.87 0 1.88 1.565 2.882 1.564.995 4.195.995 2.63 0 4.183-.995 1.564-1 1.564-2.882zm17.324 4.776H233.89v-9.56h2.348v8.43h8.816v1.13zm8.566 0h-6.967v-.976h2.31V46.14h-2.31v-.977h6.968v.976h-2.31v7.605h2.31v.976zm18.924-4.77q0 1.304-1.054 2.363-1.043 1.06-2.785 1.643-1.21.405-2.702.584-1.48.18-3.91.18h-4.455v-9.56h4.408q2.583 0 4.1.207 1.528.197 2.583.55 1.8.61 2.806 1.624 1.007 1.014 1.007 2.407zm-2.453-.02q0-1.122-.72-1.892-.723-.77-2.157-1.214-1.043-.32-2.216-.443-1.173-.128-2.808-.128h-2.205v7.376h2.204q1.693 0 2.95-.133 1.267-.135 2.322-.5 1.316-.456 1.968-1.2.663-.746.663-1.863zm20.18 4.79h-2.5l-1.73-2.664h-7.63l-1.73 2.664h-2.382l6.422-9.56h3.13l6.42 9.56zm-4.952-3.755l-3.093-4.693-3.104 4.693h6.2zm19.172-5.804l-6.21 5.367v4.192h-2.345v-4.057l-6.233-5.502h2.595l4.823 4.276 4.87-4.278h2.5zm25.68 8.867q-.65.153-1.185.288-.52.134-1.374.282-.72.122-1.574.205-.842.09-1.86.09-1.92 0-3.496-.29-1.565-.294-2.727-.917-1.137-.61-1.777-1.547-.64-.94-.64-2.187 0-1.18.616-2.112.617-.93 1.778-1.57 1.125-.624 2.713-.95 1.6-.33 3.543-.33 1.422 0 2.832.187 1.422.186 3.152.655v1.51h-.178q-1.457-.662-2.89-.963-1.435-.303-3.07-.303-1.34 0-2.417.238-1.067.23-1.908.725-.817.48-1.28 1.22-.45.73-.45 1.694 0 1.008.498 1.734.51.725 1.303 1.18.83.476 1.932.707 1.114.225 2.346.225 1.694 0 3.176-.315 1.48-.315 2.772-.944h.166v1.49zm16.656-7.77q1.08.643 1.648 1.574.58.93.58 2.112 0 1.18-.592 2.118-.58.93-1.636 1.554-1.09.648-2.583.976-1.48.327-3.39.327-1.86 0-3.388-.332-1.516-.334-2.583-.97-1.066-.635-1.647-1.56-.57-.923-.57-2.11 0-1.17.57-2.094.57-.93 1.66-1.592 1.042-.628 2.582-.962 1.553-.334 3.377-.334 1.896 0 3.4.34 1.518.335 2.572.957zm-.213 3.686q0-1.862-1.54-2.87-1.54-1.014-4.207-1.014-2.69 0-4.23 1.014-1.53 1.008-1.53 2.87 0 1.88 1.565 2.882 1.567.995 4.197.995t4.183-.995q1.563-1 1.563-2.882zm18.177-3.653h-6.304v8.43h-2.346v-8.43h-6.304v-1.13h14.954v1.13z" style="line-height:125%;-inkscape-font-specification:'sans-serif, Normal';text-align:start"/>
    <path d="M378.962 46.293h-6.304v8.43h-2.346v-8.43h-6.304v-1.13h14.954v1.13zm14.883 8.43h-2.5l-1.73-2.665h-7.63l-1.73 2.664h-2.383l6.422-9.56h3.13l6.42 9.56zm-4.953-3.756l-3.093-4.693-3.106 4.693h6.197zm22.348 3.05q-1.446.36-3.164.63-1.706.26-3.306.26-2.062 0-3.78-.307t-2.927-.924q-1.22-.623-1.884-1.554-.665-.937-.665-2.19 0-2.29 2.464-3.613 2.476-1.33 6.79-1.33 1.504 0 3.07.2 1.574.19 3.387.66v1.51h-.213q-.367-.156-1.067-.407-.7-.25-1.374-.417-.818-.2-1.86-.327-1.03-.136-2.347-.136-2.962 0-4.692 1.034-1.718 1.026-1.718 2.785 0 1.855 1.8 2.888 1.802 1.028 4.907 1.028 1.137 0 2.263-.122 1.137-.12 1.99-.314V51.03h-4.727v-1.116h7.05v4.102zm15.724.705H415.34v-9.56h11.624v1.13h-9.278v2.62h9.278v1.13h-9.278v3.55h9.278v1.13zm16.554-2.728q0 .558-.486 1.104-.474.546-1.34.924-.947.41-2.215.642-1.256.23-3.033.23-1.908 0-3.437-.19-1.516-.194-3.092-.573v-1.59h.166q1.34.604 3.094.93 1.754.33 3.294.33 2.18 0 3.39-.444 1.22-.443 1.22-1.18 0-.637-.58-.94-.57-.3-1.743-.467-.888-.13-1.93-.213-1.032-.084-2.193-.212-2.345-.27-3.483-.918-1.127-.655-1.127-1.7 0-1.202 1.874-1.966 1.872-.77 4.75-.77 1.862 0 3.414.194 1.553.192 2.75.475v1.5h-.166q-1.006-.46-2.653-.763-1.634-.308-3.353-.308-1.884 0-3.033.423-1.138.423-1.138 1.09 0 .598.57.938.568.34 2.002.52.758.09 2.156.22 1.4.13 2.37.263 1.967.282 2.963.853.995.572.995 1.6z" style="line-height:125%;-inkscape-font-specification:'sans-serif, Normal';text-align:start"/>
  </g>
</svg>
