<?xml version="1.0" encoding="UTF-8" standalone="no"?>
<!-- Created with Inkscape (http://www.inkscape.org/) -->
<svg id="svg2" xmlns:rdf="http://www.w3.org/1999/02/22-rdf-syntax-ns#" xmlns="http://www.w3.org/2000/svg" height="55mm" width="85mm" version="1.1" xmlns:cc="http://creativecommons.org/ns#" xmlns:dc="http://purl.org/dc/elements/1.1/" viewBox="0 0 301.1811 194.88189">
 <defs id="defs4">
  <radialGradient id="radialGradient3539" gradientUnits="userSpaceOnUse" cy="588.49" cx="394.14" gradientTransform="matrix(.72403 -.60775 3.4671 4.2491 -1901.5 -1689)" r="54.529">
   <stop id="stop3535" stop-color="#ac00ff" offset="0"/>
   <stop id="stop3537" stop-color="#d782ff" offset="1"/>
  </radialGradient>
 </defs>
 <metadata id="metadata7">
  <rdf:RDF>
   <cc:Work rdf:about="">
    <dc:format>image/svg+xml</dc:format>
    <dc:type rdf:resource="http://purl.org/dc/dcmitype/StillImage"/>
    <dc:title/>
   </cc:Work>
  </rdf:RDF>
 </metadata>
 <g id="layer1" transform="translate(0 -857.48)">
  <flowRoot id="flowRoot3336" style="word-spacing:0px;letter-spacing:0px" xml:space="preserve" transform="translate(0 857.48)" line-height="125%" font-size="30px" font-family="&apos;Bradley Hand ITC&apos;" fill="#000000"><flowRegion id="flowRegion3338"><rect id="rect3340" height="32.83" width="241.43" y="26.691" x="25.759"/></flowRegion><flowPara id="flowPara3342">Mmmmmm</flowPara></flowRoot>
  <text id="text3344" style="word-spacing:-1.76px;letter-spacing:0px" font-weight="bold" xml:space="preserve" transform="scale(.96548 1.0358)" font-stretch="semi-condensed" line-height="125%" font-size="35.224px" y="889.15948" x="17.585924" font-family="&apos;HW Andy&apos;" fill="#71348f"><tspan id="tspan3346" style="word-spacing:-1.76px" font-weight="bold" font-size="35.224px" font-stretch="semi-condensed" line-height="125%" dx="0 -0.98000008 0 0 -0.87000006 -1.08 0 0 -1.1800001 -1.1800001 -0.9600001 -1.6300001 0 0 0 -2.1800001" y="889.15948" x="17.585924" font-family="&apos;HW Andy&apos;" fill="#71348f">Meadow Green  Farm</tspan></text>
  <text id="text3347" style="word-spacing:0px;letter-spacing:0px" xml:space="preserve" font-size="30px" y="925.08301" x="164.65486" font-family="sans-serif" line-height="125%" fill="#000000"><tspan id="tspan3349" x="164.65486" y="925.08301"/></text>
  <text id="text3351" style="word-spacing:0.66px;letter-spacing:0px" xml:space="preserve" transform="scale(.98834 1.0118)" line-height="125%" font-size="14.825px" y="930.30029" x="130.93922" font-family="sans-serif" fill="#71348f"><tspan id="tspan3353" style="word-spacing:0.66px" font-size="14.825px" line-height="125%" dx="0 0 0 0 0 0 0 0 0 0.098834172" y="930.30029" x="130.93922" font-family="sans-serif" fill="#71348f">HOLIDAY COTTAGES</tspan></text>
  <path id="path4154" d="m19.242 954.03c-.757 6.67.758 78.37.758 78.37h188.03c-43.03-50.04-188.03-85.04-188.79-78.37z" fill-rule="evenodd" fill="#84c475"/>
  <path id="path4154-1" d="m279.34 981.17c.49376 4.4012-1.0919 51.644-1.0919 51.644-117.75-1.0728-134.19-1.2225-134.19-1.2225 31.062-32.688 134.79-54.822 135.28-50.421z" fill-rule="evenodd" fill="#a6c475"/>
  <ellipse id="path4171" rx="5.6313" ry="12.147" transform="rotate(25.057)" cy="713.5" cx="572.9" fill="#dfb435"/>
  <path id="path4173" d="m175.48 1011.8c16.806-48.653 25.262-87.199 46.586-132.2l2.3143-7.6696c-.004-.003-7.3162-9.107-48.9 139.87z" fill-rule="evenodd" fill="#dfb435"/>
  <g id="g5277" transform="matrix(.058668 0 0 .058668 124.79 948.98)">
   <g id="g5343" transform="translate(-894.87 -322.64)">
    <g id="g5355" transform="matrix(1.1474 0 0 .87663 -3.2023 2.2767)">
     <path id="path3513" d="m317.79 426.82c61.07-82.47-191.12-367.04-71.48-407.27 92.85-17.684 323.81 213.67 348.68 294.99 18.92 72.49-144.55 177.46 20.43 80.64 65.56-35.34 164.38 302.76 68.61 354.67-75.5 45.52-156.91-102.47-230.66-120.62" fill-rule="evenodd" stroke="#000" stroke-width=".9465px" fill="#f175ff"/>
     <path id="path3515" d="m338.58 450.52c57.04-66.83-147.38-397.89-89.81-412.87 69.06-12.997 321 212.66 330.78 274.5-4.55 100.58-152.47 204.87 17.35 118.43 79.9-42.37 143.23 253.8 72.05 292.29-56.1 33.77-158.68-106.62-213.61-120.28" fill-rule="evenodd" stroke="#000" stroke-width=".70480px" fill="#90a"/>
     <path id="path3517" d="m353.7 468.1c57.58-58.92-141.54-402.61-89.09-412.86 48.78-17.043 314.05 222.85 298.48 266.04-25.46 102.59-147.1 200.2 23.69 136.43 64.33-18.13 130.11 228.65 73.85 246.61-39.74 22.17-151.61-119.03-208.28-109.12" fill-rule="evenodd" stroke="#000" stroke-width=".53684px" fill="#6a00ff"/>
     <ellipse id="path3525" rx="29.294" ry="31.315" transform="matrix(.72403 -.60775 .59921 .73435 241.86 430.97)" cy="416.98" cx="180.82" fill="#00b7ff"/>
     <ellipse id="path3527" rx="29.294" ry="31.315" transform="matrix(.72403 -.60775 .59921 .73435 -48.704 -62.566)" cy="416.98" cx="180.82" fill="#00b7ff"/>
     <path id="path3529" d="m-336.48 176.45c-46.597-55.088-9.8021-146.58 25.395-196" transform="matrix(-.069429 1.2956 -1.015 -.47367 186.35 747.77)" stroke="#000" stroke-width="1px" fill="none"/>
     <path id="path3559" d="m-336.48 176.45c-46.597-55.088-9.8021-146.58 25.395-196" transform="matrix(-.31151 1.2585 -.90745 -.66112 118.63 742.13)" stroke="#000" stroke-width="1px" fill="none"/>
     <ellipse id="path3563" rx="10.633" ry="8.7377" transform="matrix(.72403 -.60775 .59921 .73435 -350.06 34.617)" cy="416.98" cx="180.82" fill="#00b7ff"/>
     <ellipse id="path3565" rx="10.633" ry="8.7377" transform="matrix(.72403 -.60775 .59921 .73435 -317.92 6.0458)" cy="416.98" cx="180.82" fill="#00b7ff"/>
     <path id="path3445" d="m325.88 411.17c-75.45-130-187.88-40.06-75.32 60.99 286.38 328.24 333.22 272.01 75.32-60.99z" fill-rule="evenodd" fill="url(#radialGradient3539)"/>
    </g>
   </g>
   <g id="layer1-2" transform="matrix(-4.0373 0 0 4.0373 4367.7 -2498.4)">
    <g id="g4122" fill="#71c837" transform="matrix(1.7259 -.39712 .39712 1.7259 857.96 -930.22)">
     <path id="path3188" d="m-225.81 1002.7c5.1591-17.41 8.5837-35.448 8.6432-53.654.22162-7.546.2657-15.1-.0134-22.645 2.3224 15.881 2.3218 32.039.97031 48.007-1.1419 10.001-4.816 19.498-9.5993 28.293z"/>
     <path id="path3191" d="m-225.9 1002.6c-4.363-27.286-12.002-28.204-10.265-137.84-2.3963 18.103-3.4074 74.222-1.5304 90.627 2.534 22.148 4.8327 32.689 11.796 47.21z"/>
     <path id="path3193" d="m-222.84 870.03a.50005 .50005 0 0 0 -.375 .40625c-1.4082 6.6765-2.2908 18.823-2.8125 33.375s-.68802 31.498-.6875 47.594c.00052 16.095.16935 31.348.34375 42.594.0872 5.6231.18459 10.257.25 13.469.0327 1.6057.0746 2.8345.0937 3.6874.01.4265-.005.7492 0 .9688s0 .3437 0 .3438a.50005 .50005 0 1 0 .875 -.3438c.0325-.014.12579.034.125 0-.005-.2192.01-.5426 0-.9688-.0191-.8523-.0611-2.1136-.0937-3.7187-.0654-3.2101-.16283-7.8164-.25-13.438-.17434-11.242-.34323-26.506-.34375-42.594s.16651-33.03.6875-47.562c.52099-14.533 1.407-26.703 2.7812-33.219a.50005 .50005 0 0 0 -.59375 -.59375z" style="color:#000000;block-progression:tb;text-transform:none;text-indent:0"/>
     <path id="path3195" d="m-225.46 911.63s-2.5536-18.607-9.2321-28.156c-6.6786-9.5485-10.411-10.773-10.411-10.773s6.4821 5.1415 12.179 16.894c5.6964 11.752 7.4643 22.035 7.4643 22.035z"/>
     <path id="path3197" d="m-216.17 905.01a.50005 .50005 0 0 0 -.13719 .14228l-1.5491 2.4324c-.28994.45258-.51579 1.2188-.86492 2.392-.34914 1.1731-.77018 2.7132-1.2182 4.4811-.89602 3.5358-1.9343 7.9924-2.9328 12.396-1.997 8.8069-3.8072 17.332-3.8072 17.332a.50025 .50025 0 0 0 .98194 .19175s1.7991-8.4918 3.794-17.29c.99749-4.399 2.0406-8.8752 2.9328-12.396.44608-1.7603.86266-3.2888 1.205-4.439.3423-1.1502.6596-1.9709.75798-2.1245l1.5491-2.4324a.50005 .50005 0 0 0 -.7114 -.68591z" style="color:#000000;block-progression:tb;text-transform:none;text-indent:0"/>
     <path id="path3199" d="m-225.41 943.29s.26597-13.817 12.77-27.376 20.733-18.763 20.733-18.763-13.382 10.779-22.959 24.426c-9.5764 13.647-10.545 21.713-10.545 21.713z"/>
     <g id="g3239" transform="matrix(-.62271 -.066476 -.066476 .62271 -300.1 314.63)">
      <path id="path3201" d="m-218.21 10.15a.98215 2.5893 0 1 1 -1.9643 0 .98215 2.5893 0 1 1 1.9643 0z" transform="translate(2.6786,853.19)"/>
      <path id="path3203" d="m-218.21 10.15a.98215 2.5893 0 1 1 -1.9643 0 .98215 2.5893 0 1 1 1.9643 0z" transform="matrix(.99427 -.10689 .10689 .99427 -2.674 818.01)"/>
      <path id="path3205" d="m-218.21 10.15a.98215 2.5893 0 1 1 -1.9643 0 .98215 2.5893 0 1 1 1.9643 0z" transform="translate(-2.8571,850.87)"/>
      <path id="path3207" d="m-218.21 10.15a.98215 2.5893 0 1 1 -1.9643 0 .98215 2.5893 0 1 1 1.9643 0z" transform="translate(-1.6429,836.05)"/>
      <path id="path3209" d="m-218.21 10.15a.98215 2.5893 0 1 1 -1.9643 0 .98215 2.5893 0 1 1 1.9643 0z" transform="matrix(.98329 -.18203 .18203 .98329 -10.901 788.83)"/>
      <path id="path3211" d="m-217.58 840.59c.0357.77032.008 1.5851-.35528 2.2831-.13088.32173-.56882.5006-.82774.21154-.39824-.41428-.55622-.99344-.67359-1.5415-.1579-.91349-.19028-1.878.1002-2.7685.10544-.2956.27498-.68027.63431-.70643.41466.0425.61189.47988.76207.8158.22224.54116.31897 1.1251.36003 1.7059z"/>
      <path id="path3215" d="m-218.21 10.15a.98215 2.5893 0 1 1 -1.9643 0 .98215 2.5893 0 1 1 1.9643 0z" transform="translate(-.44643 855.25)"/>
      <path id="path3217" d="m-218.21 10.15a.98215 2.5893 0 1 1 -1.9643 0 .98215 2.5893 0 1 1 1.9643 0z" transform="matrix(.99427 -.10689 .10689 .99427 -4.0487 821.93)"/>
      <path id="path3219" d="m-218.21 10.15a.98215 2.5893 0 1 1 -1.9643 0 .98215 2.5893 0 1 1 1.9643 0z" transform="translate(-4.4107,834.62)"/>
      <path id="path3221" d="m-218.21 10.15a.98215 2.5893 0 1 1 -1.9643 0 .98215 2.5893 0 1 1 1.9643 0z" transform="matrix(.99798 -.063573 .063573 .99798 -2.9216 815.64)"/>
      <path id="path3223" d="m-218.21 10.15a.98215 2.5893 0 1 1 -1.9643 0 .98215 2.5893 0 1 1 1.9643 0z" transform="matrix(.99427 -.10689 .10689 .99427 -.022327 820.95)"/>
      <path id="path3225" d="m-218.21 10.15a.98215 2.5893 0 1 1 -1.9643 0 .98215 2.5893 0 1 1 1.9643 0z" transform="matrix(.99427 -.10689 .10689 .99427 -5.7878 817.44)"/>
      <path id="path3227" d="m-218.21 10.15a.98215 2.5893 0 1 1 -1.9643 0 .98215 2.5893 0 1 1 1.9643 0z" transform="translate(1.7857,837.39)"/>
      <path id="path3229" d="m-218.21 10.15a.98215 2.5893 0 1 1 -1.9643 0 .98215 2.5893 0 1 1 1.9643 0z" transform="translate(3.8948e-8,849.44)"/>
      <path id="path3233" d="m-219.34 832.82c.18242.74926.31133 1.5542.0884 2.3089-.0669.34083-.46247.60024-.77193.3661-.47019-.33037-.73613-.86857-.95626-1.384-.32986-.86636-.5463-1.8068-.4317-2.7365.0469-.31032.13965-.72034.48734-.81481.41512-.0377.69243.35386.90415.65481.32174.4886.52848 1.0432.67999 1.6054z"/>
      <path id="path3235" d="m-222.04 835.15c.1673.75277.27996 1.5602.0419 2.3102-.0737.33944-.47445.59082-.77913.35049-.46345-.33978-.71849-.88321-.92819-1.403-.31235-.87283-.50982-1.8175-.3765-2.7446.0531-.30931.15412-.71739.50363-.80484.4158-.0293.68518.36774.89079.6729.31183.49497.50737 1.0536.64752 1.6188z"/>
      <path id="path3237" d="m-223.17 829.85c.1673.75277.27996 1.5602.0419 2.3102-.0737.33944-.47445.59082-.77913.35049-.46345-.33978-.71849-.88321-.92819-1.403-.31235-.87283-.50982-1.8175-.3765-2.7446.0531-.30931.15412-.71739.50363-.80484.4158-.0293.68518.36774.89079.6729.31183.49497.50737 1.0536.64752 1.6188z"/>
     </g>
     <g id="g4027" transform="matrix(-.39261 -.22268 -.22268 .39261 -107.73 514.43)">
      <path id="path4029" d="m-218.21 10.15a.98215 2.5893 0 1 1 -1.9643 0 .98215 2.5893 0 1 1 1.9643 0z" transform="translate(2.6786,853.19)"/>
      <path id="path4031" d="m-218.21 10.15a.98215 2.5893 0 1 1 -1.9643 0 .98215 2.5893 0 1 1 1.9643 0z" transform="matrix(.99427 -.10689 .10689 .99427 -2.674 818.01)"/>
      <path id="path4033" d="m-218.21 10.15a.98215 2.5893 0 1 1 -1.9643 0 .98215 2.5893 0 1 1 1.9643 0z" transform="translate(-2.8571,850.87)"/>
      <path id="path4035" d="m-218.21 10.15a.98215 2.5893 0 1 1 -1.9643 0 .98215 2.5893 0 1 1 1.9643 0z" transform="translate(-1.6429,836.05)"/>
      <path id="path4037" d="m-218.21 10.15a.98215 2.5893 0 1 1 -1.9643 0 .98215 2.5893 0 1 1 1.9643 0z" transform="matrix(.98329 -.18203 .18203 .98329 -10.901 788.83)"/>
      <path id="path4039" d="m-217.58 840.59c.0357.77032.008 1.5851-.35528 2.2831-.13088.32173-.56882.5006-.82774.21154-.39824-.41428-.55622-.99344-.67359-1.5415-.1579-.91349-.19028-1.878.1002-2.7685.10544-.2956.27498-.68027.63431-.70643.41466.0425.61189.47988.76207.8158.22224.54116.31897 1.1251.36003 1.7059z"/>
      <path id="path4041" d="m-218.21 10.15a.98215 2.5893 0 1 1 -1.9643 0 .98215 2.5893 0 1 1 1.9643 0z" transform="translate(-.44643 855.25)"/>
      <path id="path4043" d="m-218.21 10.15a.98215 2.5893 0 1 1 -1.9643 0 .98215 2.5893 0 1 1 1.9643 0z" transform="matrix(.99427 -.10689 .10689 .99427 -4.0487 821.93)"/>
      <path id="path4045" d="m-218.21 10.15a.98215 2.5893 0 1 1 -1.9643 0 .98215 2.5893 0 1 1 1.9643 0z" transform="translate(-4.4107,834.62)"/>
      <path id="path4047" d="m-218.21 10.15a.98215 2.5893 0 1 1 -1.9643 0 .98215 2.5893 0 1 1 1.9643 0z" transform="matrix(.99798 -.063573 .063573 .99798 -2.9216 815.64)"/>
      <path id="path4049" d="m-218.21 10.15a.98215 2.5893 0 1 1 -1.9643 0 .98215 2.5893 0 1 1 1.9643 0z" transform="matrix(.99427 -.10689 .10689 .99427 -.022327 820.95)"/>
      <path id="path4051" d="m-218.21 10.15a.98215 2.5893 0 1 1 -1.9643 0 .98215 2.5893 0 1 1 1.9643 0z" transform="matrix(.99427 -.10689 .10689 .99427 -5.7878 817.44)"/>
      <path id="path4053" d="m-218.21 10.15a.98215 2.5893 0 1 1 -1.9643 0 .98215 2.5893 0 1 1 1.9643 0z" transform="translate(1.7857,837.39)"/>
      <path id="path4055" d="m-218.21 10.15a.98215 2.5893 0 1 1 -1.9643 0 .98215 2.5893 0 1 1 1.9643 0z" transform="translate(3.8948e-8,849.44)"/>
      <path id="path4057" d="m-219.34 832.82c.18242.74926.31133 1.5542.0884 2.3089-.0669.34083-.46247.60024-.77193.3661-.47019-.33037-.73613-.86857-.95626-1.384-.32986-.86636-.5463-1.8068-.4317-2.7365.0469-.31032.13965-.72034.48734-.81481.41512-.0377.69243.35386.90415.65481.32174.4886.52848 1.0432.67999 1.6054z"/>
      <path id="path4059" d="m-222.04 835.15c.1673.75277.27996 1.5602.0419 2.3102-.0737.33944-.47445.59082-.77913.35049-.46345-.33978-.71849-.88321-.92819-1.403-.31235-.87283-.50982-1.8175-.3765-2.7446.0531-.30931.15412-.71739.50363-.80484.4158-.0293.68518.36774.89079.6729.31183.49497.50737 1.0536.64752 1.6188z"/>
      <path id="path4061" d="m-223.17 829.85c.1673.75277.27996 1.5602.0419 2.3102-.0737.33944-.47445.59082-.77913.35049-.46345-.33978-.71849-.88321-.92819-1.403-.31235-.87283-.50982-1.8175-.3765-2.7446.0531-.30931.15412-.71739.50363-.80484.4158-.0293.68518.36774.89079.6729.31183.49497.50737 1.0536.64752 1.6188z"/>
     </g>
     <path id="path4113" d="m-194.8 882.01c.003.19861-.1249.39015-.30848.46538-.18035.0786-.40438.0379-.54507-.0998-.14257-.13247-.19459-.35072-.12805-.53346.0643-.18941.25042-.32907.45053-.33657.19453-.0126.38897.10018.47581.27448.0364.0708.0554.15034.0553.22994z"/>
     <path id="path4116" d="m-192.59 886.03c.004.25565-.16077.50221-.39708.59904-.23215.10118-.52052.0488-.70162-.12846-.18352-.17052-.25048-.45145-.16483-.68668.0828-.24381.32235-.42358.57993-.43324.2504-.0162.50069.12896.61247.35332.0469.0911.0713.19352.0712.29598z"/>
     <path id="path4118" d="m-204.29 847.38c.003.19861-.1249.39015-.30848.46538-.18035.0786-.40438.0379-.54507-.0998-.14257-.13247-.19459-.35072-.12805-.53346.0643-.18941.25042-.32907.45053-.33657.19453-.0126.38897.10018.47581.27448.0364.0708.0554.15034.0553.22994z"/>
     <path id="path4120" d="m-227.89 860.11c.004.25565-.16077.50221-.39708.59904-.23215.10118-.52052.0488-.70162-.12846-.18352-.17052-.25048-.45145-.16483-.68668.0828-.24381.32235-.42358.57993-.43324.2504-.0162.50069.12896.61247.35332.0469.0911.0713.19352.0712.29598z"/>
    </g>
   </g>
   <g id="g5055" fill-rule="evenodd" transform="matrix(2.2142 -1.2694 1.2694 2.2142 -443.89 853.24)">
    <path id="path4645" d="m357 342.36c-3.8243-38.743-2.5994-75.917-51-86-16.522-3.442-33.932-4.0485-48 6" fill="#2d5016"/>
    <path id="path4649" d="m366 339.36c-22.504-30.218.78368-110.14 46-80" fill="#2d5016"/>
    <path id="path4653" d="m379 326.36c-6.8506-23.733 18.23-77.18 47-58" fill="#2d5016"/>
    <path id="path4657" d="m375 333.36c7.2548-67.972-63.152-100.4-109-48" fill="#2d5016"/>
    <path id="path4661" d="m343 326.36c-22.135-26.365-72.375-36.249-90-1" fill="#2d5016"/>
    <path id="path4665" d="m341 332.36c-24.476-25.667-48-66.043-48-103" fill="#2d5016"/>
    <path id="path4669" d="m357 339.36c-17.24-57.688-37.875-115.07 25-151" fill="#2d5016"/>
    <path id="path4673" d="m370 317.36c-13.07-47.171 8.4341-77.288 53-94" fill="#2d5016"/>
    <path id="path4677" d="m372 326.36c2.1383-31.103 46.2-74.56 79-68" fill="#2d5016"/>
    <path id="path4681" d="m387 337.36c-18.151-23.792 34.977-53.551 55-58" fill="#2d5016"/>
    <path id="path4685" d="m401 331.36c7.8166-20.71 22.831-42 48-42" fill="#2d5016"/>
    <path id="path4689" d="m366 324.36c8.5676-36.012-19-70.904-19-104" fill="#2d5016"/>
    <path id="path4693" d="m364 326.36c6.6901-47.843-7.5171-140.45 58-147" fill="#2d5016"/>
    <path id="path4697" d="m373 317.36c10.63-43.201 27.06-86.224 69-103" fill="#2d5016"/>
    <path id="path4701" d="m382 330.36c2.6115-37.89 36.192-75.769 72-86" fill="#2d5016"/>
    <path id="path4705" d="m394 337.36c11.576-30.848 31.016-59.438 60-76" fill="#2d5016"/>
    <path id="path4709" d="m379 322.36c12.394-43.182-92.609-161.49-125-121" fill="#2d5016"/>
    <path id="path4713" d="m357 328.36c.39535-35.317-60.583-103.31-97-76" fill="#2d5016"/>
    <path id="path4721" d="m315 335.36c-19.505-15.928-51.772-44.819-77-28" fill="#2d5016"/>
    <path id="path4725" d="m340 324.36c-30.797-45.097-73.558-113.81-139-92" fill="#2d5016"/>
    <path id="path4729" d="m357 323.36c-27.358-62.991-42.475-121.35-126-113" fill="#2d5016"/>
    <path id="path4733" d="m338 317.36c-3.1843-36.157-35.591-96.705-79-75" fill="#2d5016"/>
    <path id="path4737" d="m339 320.36c.65688-23.571 6.3369-47.518 1-71-5.8266-25.637-33.289-59.695-4-78" fill="#2d5016"/>
    <path id="path4741" d="m358 324.36c1.0776-50.197-24.146-128.9 25-164" fill="#2d5016"/>
    <path id="path4745" d="m369 313.36c-.27967-59.299 18.014-126.61 66-165" fill="#002b00"/>
    <path id="path4749" d="m382 304.36c15.741-41.295 33.249-94.45 81-104" fill="#2d5016"/>
    <path id="path4753" d="m391 320.36c15.91-32.047 41.61-82.122 81-90" fill="#2d5016"/>
    <path id="path4757" d="m319 324.36c-8.4665-49.608-87.278-93-134-93" fill="#2d5016"/>
    <path id="path4761" d="m306 325.36c-18.879-28.902-64.317-61.195-100-51" fill="#2d5016"/>
    <path id="path4765" d="m321 336.36c-19.696-33.839-69.032-69-110-69" fill="#002b00"/>
    <path id="path4769" d="m317 331.36c-4.6365-44.877-38.511-147.64-99-139" fill="#2d5016"/>
    <path id="path4773" d="m330 309.36c-3.4915-27.006-66.316-119.39-94-124" fill="#3e4837"/>
    <path id="path4777" d="m334 314.36c2.4596-59.848-55.08-104.64-62-160" fill="#002b00"/>
    <path id="path4781" d="m339 303.36c-11.641-56.929-44.511-110.6-51-169" fill="#2d5016"/>
    <path id="path4785" d="m352 314.36c8.0604-59.015-52.396-122.47-13-175" fill="#2d5016"/>
    <path id="path4789" d="m351 326.36c5.4971-65.601-1.297-132.17 34-191" fill="#2d5016"/>
    <path id="path4793" d="m365 300.36c4.2652-55.334 17.209-111.01 46-159" fill="#2d5016"/>
    <path id="path4797" d="m374 303.36c27.374-44.426 40.022-103.42 82-137" fill="#2d5016"/>
    <path id="path4801" d="m372 315.36c17.465-42.22 23.753-88.26 38-131" fill="#2d5016"/>
    <path id="path4805" d="m351 327.36c-10.198-51.719-33.852-100.51-49-151" fill="#002b00"/>
    <path id="path4809" d="m348 331.36c-2.6096-33.962-22.193-60.988-39-89" fill="#2d5016"/>
    <path id="path4813" d="m329 328.36c-7.5708-29.375-29.913-54.913-51-76" fill="#2d5016"/>
    <path id="path4817" d="m321 324.36c-7.2665-20.028-18.853-39.085-33-55" fill="#2d5016"/>
    <path id="path4821" d="m326 332.36c-13.352-20.97-27.002-42.002-42-62" fill="#536c53"/>
    <path id="path4825" d="m333 327.36c-9.1097-19.886-20.431-39.045-33-57" fill="#2d5016"/>
    <path id="path4829" d="m348 331.36c-10.388-19.377-20.347-39.954-28-61" fill="#3e4837"/>
    <path id="path4833" d="m368 330.36c-1.847-23.607 2.6679-46.679 5-70" fill="#2d5016"/>
    <path id="path4837" d="m388 327.36c5.4506-19.224 14.091-37.659 24-55" fill="#002b00"/>
    <path id="path4841" d="m395 331.36c10.45-24.387 30.434-43.152 45-65" fill="#536c53"/>
    <path id="path4845" d="m383 332.36c1.0041-35.758 6.8252-70.699-2-106" fill="#3e4837"/>
    <path id="path4849" d="m372 327.36c-3.8661-45.583 6.6891-86.378 27-127" fill="#002b00"/>
    <path id="path4853" d="m356 326.36c4.0559-48.127 1.7973-97.027-3-145" fill="#536c53"/>
    <path id="path4857" d="m349 316.36c-27.239-52.667-16.979-99.23-12-154" fill="#2d5016"/>
    <path id="path4861" d="m354 317.36c6.6783-66.213-12.225-129.12-25-193" fill="#002b00"/>
   </g>
  </g>
 </g>
</svg>
